Semibold.ufo
<glyph name="A" format="2">
	<advance width="613"/>
	<outline>
		<contour>
			<point x="12" y="0" type="line"/>
			<point x="200" y="0" type="line"/>
			<point x="200" y="17" type="line"/>
			<point x="107" y="27" type="line"/>
			<point x="87" y="27" type="line"/>
			<point x="12" y="17" type="line"/>
		</contour>
		<contour>
			<point x="71" y="0" type="line"/>
			<point x="101" y="0" type="line"/>
			<point x="285" y="581" type="line"/>
			<point x="289" y="593" type="line"/>
			<point x="271" y="593" type="line"/>
			<point x="453" y="0" type="line"/>
			<point x="543" y="0" type="line"/>
			<point x="321" y="675" type="line"/>
			<point x="288" y="675" type="line"/>
		</contour>
		<contour>
			<point x="165" y="236" type="line"/>
			<point x="423" y="236" type="line"/>
			<point x="423" y="260" type="line"/>
			<point x="165" y="260" type="line"/>
		</contour>
		<contour>
			<point x="360" y="0" type="line"/>
			<point x="601" y="0" type="line"/>
			<point x="601" y="17" type="line"/>
			<point x="517" y="29" type="line"/>
			<point x="469" y="29" type="line"/>
			<point x="360" y="17" type="line"/>
		</contour>
	</outline>
	<anchor name="aboveUC" x="305" y="688"/>
	<anchor name="belowLC" x="284" y="-20"/>
	<anchor name="ogonek" x="498" y="0"/>
</glyph>
<glyph name="AE" format="2">
	<advance width="861"/>
	<outline>
		<contour>
			<point x="435" y="0" type="curve"/>
			<point x="524" y="0" type="line"/>
			<point x="520" y="80"/>
			<point x="520" y="209"/>
			<point x="520" y="315" type="curve" smooth="yes"/>
			<point x="520" y="359" type="line" smooth="yes"/>
			<point x="520" y="462"/>
			<point x="520" y="588"/>
			<point x="524" y="668" type="curve"/>
			<point x="439" y="668" type="line"/>
			<point x="439" y="315" type="line" smooth="yes"/>
			<point x="439" y="209"/>
			<point x="439" y="80"/>
		</contour>
		<contour>
			<point x="12" y="0" type="line"/>
			<point x="204" y="0" type="line"/>
			<point x="204" y="17" type="line"/>
			<point x="107" y="27" type="line"/>
			<point x="87" y="27" type="line"/>
			<point x="12" y="17" type="line"/>
		</contour>
		<contour>
			<point x="677" y="231" type="line"/>
			<point x="693" y="231" type="line"/>
			<point x="693" y="451" type="line"/>
			<point x="677" y="451" type="line"/>
			<point x="645" y="351" type="line"/>
			<point x="645" y="331" type="line"/>
		</contour>
		<contour>
			<point x="787" y="489" type="line"/>
			<point x="804" y="489" type="line"/>
			<point x="792" y="668" type="line"/>
			<point x="476" y="668" type="line"/>
			<point x="476" y="644" type="line"/>
			<point x="728" y="644" type="line"/>
		</contour>
		<contour>
			<point x="478" y="0" type="line"/>
			<point x="808" y="0" type="line"/>
			<point x="820" y="188" type="line"/>
			<point x="803" y="188" type="line"/>
			<point x="744" y="24" type="line"/>
			<point x="478" y="24" type="line"/>
		</contour>
		<contour>
			<point x="329" y="651" type="line"/>
			<point x="433" y="639" type="line"/>
			<point x="466" y="639" type="line"/>
			<point x="466" y="668" type="line"/>
			<point x="329" y="668" type="line"/>
		</contour>
		<contour>
			<point x="357" y="0" type="line"/>
			<point x="494" y="0" type="line"/>
			<point x="494" y="29" type="line"/>
			<point x="461" y="29" type="line"/>
			<point x="357" y="17" type="line"/>
		</contour>
		<contour>
			<point x="65" y="0" type="line"/>
			<point x="98" y="0" type="line"/>
			<point x="221" y="235" type="line"/>
			<point x="448" y="668" type="line"/>
			<point x="418" y="668" type="line"/>
		</contour>
		<contour>
			<point x="205" y="224" type="line"/>
			<point x="479" y="224" type="line"/>
			<point x="479" y="248" type="line"/>
			<point x="205" y="248" type="line"/>
		</contour>
		<contour>
			<point x="478" y="329" type="line"/>
			<point x="658" y="329" type="line"/>
			<point x="658" y="353" type="line"/>
			<point x="478" y="353" type="line"/>
		</contour>
	</outline>
	<anchor name="aboveUC" x="564" y="688"/>
</glyph>
<glyph name="B" format="2">
	<advance width="552"/>
	<outline>
		<contour>
			<point x="37" y="0" type="line"/>
			<point x="168" y="0" type="line"/>
			<point x="168" y="29" type="line"/>
			<point x="141" y="29" type="line"/>
			<point x="37" y="17" type="line"/>
		</contour>
		<contour>
			<point x="115" y="0" type="curve"/>
			<point x="204" y="0" type="line"/>
			<point x="200" y="80"/>
			<point x="200" y="209"/>
			<point x="200" y="315" type="curve" smooth="yes"/>
			<point x="200" y="359" type="line" smooth="yes"/>
			<point x="200" y="462"/>
			<point x="200" y="588"/>
			<point x="204" y="668" type="curve"/>
			<point x="116" y="668" type="line"/>
			<point x="120" y="588"/>
			<point x="120" y="462"/>
			<point x="120" y="359" type="curve" smooth="yes"/>
			<point x="120" y="315" type="line" smooth="yes"/>
			<point x="120" y="209"/>
			<point x="119" y="80"/>
		</contour>
		<contour>
			<point x="151" y="0" type="line"/>
			<point x="266" y="0" type="line" smooth="yes"/>
			<point x="433" y="0"/>
			<point x="515" y="83"/>
			<point x="515" y="181" type="curve" smooth="yes"/>
			<point x="515" y="276"/>
			<point x="436" y="351"/>
			<point x="268" y="351" type="curve"/>
			<point x="268" y="343" type="line"/>
			<point x="414" y="345"/>
			<point x="485" y="420"/>
			<point x="485" y="512" type="curve" smooth="yes"/>
			<point x="485" y="605"/>
			<point x="412" y="668"/>
			<point x="278" y="668" type="curve" smooth="yes"/>
			<point x="151" y="668" type="line"/>
			<point x="151" y="644" type="line"/>
			<point x="258" y="644" type="line" smooth="yes"/>
			<point x="352" y="644"/>
			<point x="407" y="604"/>
			<point x="407" y="506" type="curve" smooth="yes"/>
			<point x="407" y="406"/>
			<point x="352" y="357"/>
			<point x="242" y="357" type="curve" smooth="yes"/>
			<point x="151" y="357" type="line"/>
			<point x="151" y="333" type="line"/>
			<point x="246" y="333" type="line" smooth="yes"/>
			<point x="371" y="333"/>
			<point x="431" y="280"/>
			<point x="431" y="179" type="curve" smooth="yes"/>
			<point x="431" y="82"/>
			<point x="369" y="24"/>
			<point x="252" y="24" type="curve" smooth="yes"/>
			<point x="151" y="24" type="line"/>
		</contour>
		<contour>
			<point x="37" y="651" type="line"/>
			<point x="141" y="639" type="line"/>
			<point x="168" y="639" type="line"/>
			<point x="168" y="668" type="line"/>
			<point x="37" y="668" type="line"/>
		</contour>
	</outline>
	<anchor name="aboveUC" x="271" y="688"/>
	<anchor name="belowLC" x="288" y="-20"/>
</glyph>
<glyph name="D" format="2">
	<advance width="637"/>
	<outline>
		<contour>
			<point x="37" y="0" type="line"/>
			<point x="168" y="0" type="line"/>
			<point x="168" y="29" type="line"/>
			<point x="141" y="29" type="line"/>
			<point x="37" y="17" type="line"/>
		</contour>
		<contour>
			<point x="115" y="0" type="curve"/>
			<point x="204" y="0" type="line"/>
			<point x="200" y="80"/>
			<point x="200" y="209"/>
			<point x="200" y="315" type="curve" smooth="yes"/>
			<point x="200" y="359" type="line" smooth="yes"/>
			<point x="200" y="462"/>
			<point x="200" y="588"/>
			<point x="204" y="668" type="curve"/>
			<point x="116" y="668" type="line"/>
			<point x="120" y="588"/>
			<point x="120" y="462"/>
			<point x="120" y="359" type="curve" smooth="yes"/>
			<point x="120" y="315" type="line" smooth="yes"/>
			<point x="120" y="209"/>
			<point x="119" y="80"/>
		</contour>
		<contour>
			<point x="170" y="0" type="line"/>
			<point x="279" y="0" type="line" smooth="yes"/>
			<point x="456" y="0"/>
			<point x="591" y="119"/>
			<point x="591" y="334" type="curve" smooth="yes"/>
			<point x="591" y="549"/>
			<point x="470" y="668"/>
			<point x="285" y="668" type="curve" smooth="yes"/>
			<point x="170" y="668" type="line"/>
			<point x="170" y="644" type="line"/>
			<point x="277" y="644" type="line" smooth="yes"/>
			<point x="423" y="644"/>
			<point x="502" y="545"/>
			<point x="502" y="333" type="curve" smooth="yes"/>
			<point x="502" y="147"/>
			<point x="422" y="24"/>
			<point x="269" y="24" type="curve" smooth="yes"/>
			<point x="170" y="24" type="line"/>
		</contour>
		<contour>
			<point x="37" y="651" type="line"/>
			<point x="141" y="639" type="line"/>
			<point x="168" y="639" type="line"/>
			<point x="168" y="668" type="line"/>
			<point x="37" y="668" type="line"/>
		</contour>
	</outline>
	<anchor name="aboveUC" x="303" y="688"/>
	<anchor name="belowLC" x="294" y="-20"/>
</glyph>
<glyph name="E" format="2">
	<advance width="542"/>
	<outline>
		<contour>
			<point x="37" y="0" type="line"/>
			<point x="175" y="0" type="line"/>
			<point x="175" y="29" type="line"/>
			<point x="141" y="29" type="line"/>
			<point x="37" y="17" type="line"/>
		</contour>
		<contour>
			<point x="115" y="0" type="curve"/>
			<point x="204" y="0" type="line"/>
			<point x="200" y="80"/>
			<point x="200" y="209"/>
			<point x="200" y="315" type="curve" smooth="yes"/>
			<point x="200" y="359" type="line" smooth="yes"/>
			<point x="200" y="462"/>
			<point x="200" y="588"/>
			<point x="204" y="668" type="curve"/>
			<point x="116" y="668" type="line"/>
			<point x="120" y="588"/>
			<point x="120" y="462"/>
			<point x="120" y="359" type="curve" smooth="yes"/>
			<point x="120" y="315" type="line" smooth="yes"/>
			<point x="120" y="209"/>
			<point x="119" y="80"/>
		</contour>
		<contour>
			<point x="160" y="0" type="line"/>
			<point x="488" y="0" type="line"/>
			<point x="500" y="188" type="line"/>
			<point x="484" y="188" type="line"/>
			<point x="420" y="12" type="line"/>
			<point x="458" y="24" type="line"/>
			<point x="160" y="24" type="line"/>
		</contour>
		<contour>
			<point x="160" y="329" type="line"/>
			<point x="340" y="329" type="line"/>
			<point x="340" y="353" type="line"/>
			<point x="160" y="353" type="line"/>
		</contour>
		<contour>
			<point x="357" y="231" type="line"/>
			<point x="374" y="231" type="line"/>
			<point x="374" y="451" type="line"/>
			<point x="357" y="451" type="line"/>
			<point x="327" y="351" type="line"/>
			<point x="327" y="331" type="line"/>
		</contour>
		<contour>
			<point x="37" y="651" type="line"/>
			<point x="141" y="639" type="line"/>
			<point x="175" y="639" type="line"/>
			<point x="175" y="668" type="line"/>
			<point x="37" y="668" type="line"/>
		</contour>
		<contour>
			<point x="468" y="489" type="line"/>
			<point x="484" y="489" type="line"/>
			<point x="472" y="668" type="line"/>
			<point x="156" y="668" type="line"/>
			<point x="156" y="644" type="line"/>
			<point x="442" y="644" type="line"/>
			<point x="404" y="656" type="line"/>
		</contour>
	</outline>
	<anchor name="aboveUC" x="291" y="688"/>
	<anchor name="belowLC" x="293" y="-20"/>
	<anchor name="ogonek" x="404" y="0"/>
</glyph>
<glyph name="Eng" format="2">
	<advance width="665"/>
	<outline>
		<contour>
			<point x="37" y="0" type="line"/>
			<point x="239" y="0" type="line"/>
			<point x="239" y="17" type="line"/>
			<point x="142" y="27" type="line"/>
			<point x="127" y="27" type="line"/>
			<point x="37" y="17" type="line"/>
		</contour>
		<contour>
			<point x="121" y="0" type="line"/>
			<point x="149" y="0" type="line"/>
			<point x="149" y="334" type="line"/>
			<point x="149" y="656" type="line"/>
			<point x="121" y="656" type="line"/>
		</contour>
		<contour>
			<point x="394" y="-133" type="curve" smooth="yes"/>
			<point x="439" y="-133"/>
			<point x="468" y="-113"/>
			<point x="503" y="-68" type="curve" smooth="yes"/>
			<point x="541" y="-21"/>
			<point x="553" y="34"/>
			<point x="553" y="115" type="curve" smooth="yes"/>
			<point x="553" y="668" type="line"/>
			<point x="524" y="668" type="line"/>
			<point x="524" y="334" type="line"/>
			<point x="524" y="107" type="line" smooth="yes"/>
			<point x="524" y="8"/>
			<point x="501" y="-51"/>
			<point x="438" y="-102" type="curve"/>
			<point x="438" y="-110" type="line"/>
			<point x="456" y="-111" type="line"/>
			<point x="456" y="-97" type="line"/>
			<point x="427" y="-73" type="line" smooth="yes"/>
			<point x="405" y="-55"/>
			<point x="394" y="-47"/>
			<point x="369" y="-47" type="curve" smooth="yes"/>
			<point x="343" y="-47"/>
			<point x="322" y="-64"/>
			<point x="319" y="-86" type="curve"/>
			<point x="324" y="-118"/>
			<point x="353" y="-133"/>
		</contour>
		<contour>
			<point x="523" y="0" type="line"/>
			<point x="534" y="0" type="line"/>
			<point x="536" y="138" type="line"/>
			<point x="531" y="138" type="line"/>
			<point x="182" y="668" type="line"/>
			<point x="37" y="668" type="line"/>
			<point x="37" y="651" type="line"/>
			<point x="100" y="644" type="line"/>
			<point x="141" y="580" type="line"/>
			<point x="143" y="580" type="line"/>
		</contour>
		<contour>
			<point x="530" y="641" type="line"/>
			<point x="545" y="641" type="line"/>
			<point x="627" y="651" type="line"/>
			<point x="627" y="668" type="line"/>
			<point x="432" y="668" type="line"/>
			<point x="432" y="651" type="line"/>
		</contour>
	</outline>
</glyph>
<glyph name="F" format="2">
	<advance width="508"/>
	<outline>
		<contour>
			<point x="37" y="0" type="line"/>
			<point x="294" y="0" type="line"/>
			<point x="294" y="17" type="line"/>
			<point x="175" y="29" type="line"/>
			<point x="141" y="29" type="line"/>
			<point x="37" y="17" type="line"/>
		</contour>
		<contour>
			<point x="115" y="0" type="curve"/>
			<point x="204" y="0" type="line"/>
			<point x="200" y="80"/>
			<point x="200" y="209"/>
			<point x="200" y="315" type="curve" smooth="yes"/>
			<point x="200" y="359" type="line" smooth="yes"/>
			<point x="200" y="462"/>
			<point x="200" y="588"/>
			<point x="204" y="668" type="curve"/>
			<point x="116" y="668" type="line"/>
			<point x="120" y="588"/>
			<point x="120" y="462"/>
			<point x="120" y="359" type="curve" smooth="yes"/>
			<point x="120" y="315" type="line" smooth="yes"/>
			<point x="120" y="209"/>
			<point x="119" y="80"/>
		</contour>
		<contour>
			<point x="160" y="329" type="line"/>
			<point x="336" y="329" type="line"/>
			<point x="336" y="353" type="line"/>
			<point x="160" y="353" type="line"/>
		</contour>
		<contour>
			<point x="353" y="231" type="line"/>
			<point x="370" y="231" type="line"/>
			<point x="370" y="451" type="line"/>
			<point x="353" y="451" type="line"/>
			<point x="323" y="351" type="line"/>
			<point x="323" y="331" type="line"/>
		</contour>
		<contour>
			<point x="37" y="651" type="line"/>
			<point x="141" y="639" type="line"/>
			<point x="175" y="639" type="line"/>
			<point x="175" y="668" type="line"/>
			<point x="37" y="668" type="line"/>
		</contour>
		<contour>
			<point x="464" y="489" type="line"/>
			<point x="480" y="489" type="line"/>
			<point x="468" y="668" type="line"/>
			<point x="156" y="668" type="line"/>
			<point x="156" y="644" type="line"/>
			<point x="438" y="644" type="line"/>
			<point x="400" y="656" type="line"/>
		</contour>
	</outline>
	<anchor name="aboveUC" x="289" y="688"/>
	<anchor name="belowLC" x="163" y="-20"/>
</glyph>
<glyph name="G" format="2">
	<advance width="605"/>
	<outline>
		<contour>
			<point x="351" y="-16" type="curve" smooth="yes"/>
			<point x="411" y="-16"/>
			<point x="474" y="1"/>
			<point x="527" y="35" type="curve"/>
			<point x="527" y="87" type="line" smooth="yes"/>
			<point x="527" y="172"/>
			<point x="528" y="249"/>
			<point x="531" y="319" type="curve"/>
			<point x="447" y="319" type="line"/>
			<point x="450" y="249"/>
			<point x="451" y="172"/>
			<point x="451" y="87" type="curve" smooth="yes"/>
			<point x="451" y="18" type="line"/>
			<point x="471" y="35" type="line"/>
			<point x="430" y="13"/>
			<point x="388" y="6"/>
			<point x="353" y="6" type="curve" smooth="yes"/>
			<point x="218" y="6"/>
			<point x="135" y="118"/>
			<point x="135" y="333" type="curve" smooth="yes"/>
			<point x="135" y="547"/>
			<point x="236" y="662"/>
			<point x="355" y="662" type="curve" smooth="yes"/>
			<point x="401" y="662"/>
			<point x="450" y="653"/>
			<point x="501" y="613" type="curve"/>
			<point x="497" y="641" type="line"/>
			<point x="450" y="650" type="line"/>
			<point x="512" y="482" type="line"/>
			<point x="529" y="482" type="line"/>
			<point x="519" y="638" type="line"/>
			<point x="464" y="676"/>
			<point x="393" y="684"/>
			<point x="352" y="684" type="curve" smooth="yes"/>
			<point x="179" y="684"/>
			<point x="45" y="552"/>
			<point x="45" y="335" type="curve" smooth="yes"/>
			<point x="45" y="115"/>
			<point x="165" y="-16"/>
		</contour>
		<contour>
			<point x="353" y="302" type="line"/>
			<point x="475" y="290" type="line"/>
			<point x="505" y="290" type="line"/>
			<point x="588" y="302" type="line"/>
			<point x="588" y="319" type="line"/>
			<point x="353" y="319" type="line"/>
		</contour>
	</outline>
	<anchor name="aboveUC" x="347" y="688"/>
	<anchor name="belowLC" x="349" y="-20"/>
</glyph>
<glyph name="Germandbls" format="2">
	<advance width="654"/>
	<outline>
		<contour>
			<point x="24" y="0" type="line"/>
			<point x="154" y="0" type="line"/>
			<point x="154" y="29" type="line"/>
			<point x="127" y="29" type="line"/>
			<point x="24" y="17" type="line"/>
		</contour>
		<contour>
			<point x="101" y="0" type="curve"/>
			<point x="190" y="0" type="line"/>
			<point x="186" y="83"/>
			<point x="186" y="209"/>
			<point x="186" y="315" type="curve" smooth="yes"/>
			<point x="186" y="436" type="line" smooth="yes"/>
			<point x="186" y="597"/>
			<point x="256" y="662"/>
			<point x="367" y="662" type="curve" smooth="yes"/>
			<point x="415" y="662"/>
			<point x="478" y="653"/>
			<point x="521" y="632" type="curve"/>
			<point x="522" y="642" type="line"/>
			<point x="419" y="610"/>
			<point x="363" y="554"/>
			<point x="363" y="464" type="curve" smooth="yes"/>
			<point x="363" y="398"/>
			<point x="404" y="345"/>
			<point x="448" y="295" type="curve" smooth="yes"/>
			<point x="485" y="251" type="line" smooth="yes"/>
			<point x="521" y="209"/>
			<point x="548" y="167"/>
			<point x="548" y="125" type="curve" smooth="yes"/>
			<point x="548" y="53"/>
			<point x="486" y="7"/>
			<point x="426" y="7" type="curve" smooth="yes"/>
			<point x="392" y="7"/>
			<point x="366" y="11"/>
			<point x="325" y="39" type="curve"/>
			<point x="366" y="5" type="line"/>
			<point x="322" y="181" type="line"/>
			<point x="305" y="181" type="line"/>
			<point x="297" y="25" type="line"/>
			<point x="328" y="-1"/>
			<point x="388" y="-16"/>
			<point x="435" y="-16" type="curve" smooth="yes"/>
			<point x="557" y="-16"/>
			<point x="619" y="62"/>
			<point x="619" y="146" type="curve" smooth="yes"/>
			<point x="619" y="218"/>
			<point x="577" y="267"/>
			<point x="535" y="317" type="curve" smooth="yes"/>
			<point x="497" y="360" type="line" smooth="yes"/>
			<point x="461" y="401"/>
			<point x="430" y="445"/>
			<point x="430" y="489" type="curve" smooth="yes"/>
			<point x="430" y="556"/>
			<point x="476" y="603"/>
			<point x="539" y="634" type="curve"/>
			<point x="539" y="645" type="line"/>
			<point x="495" y="671"/>
			<point x="425" y="684"/>
			<point x="365" y="684" type="curve" smooth="yes"/>
			<point x="215" y="684"/>
			<point x="105" y="614"/>
			<point x="105" y="432" type="curve" smooth="yes"/>
			<point x="105" y="315" type="line" smooth="yes"/>
			<point x="105" y="209"/>
			<point x="105" y="83"/>
		</contour>
	</outline>
</glyph>
<glyph name="H" format="2">
	<advance width="699"/>
	<outline>
		<contour>
			<point x="37" y="0" type="line"/>
			<point x="281" y="0" type="line"/>
			<point x="281" y="17" type="line"/>
			<point x="177" y="29" type="line"/>
			<point x="141" y="29" type="line"/>
			<point x="37" y="17" type="line"/>
		</contour>
		<contour>
			<point x="115" y="0" type="curve"/>
			<point x="204" y="0" type="line"/>
			<point x="200" y="80"/>
			<point x="200" y="209"/>
			<point x="200" y="315" type="curve" smooth="yes"/>
			<point x="200" y="359" type="line" smooth="yes"/>
			<point x="200" y="462"/>
			<point x="200" y="588"/>
			<point x="204" y="668" type="curve"/>
			<point x="116" y="668" type="line"/>
			<point x="120" y="588"/>
			<point x="120" y="462"/>
			<point x="120" y="359" type="curve" smooth="yes"/>
			<point x="120" y="315" type="line" smooth="yes"/>
			<point x="120" y="209"/>
			<point x="119" y="80"/>
		</contour>
		<contour>
			<point x="156" y="329" type="line"/>
			<point x="544" y="329" type="line"/>
			<point x="544" y="353" type="line"/>
			<point x="156" y="353" type="line"/>
		</contour>
		<contour>
			<point x="417" y="0" type="line"/>
			<point x="660" y="0" type="line"/>
			<point x="660" y="17" type="line"/>
			<point x="556" y="29" type="line"/>
			<point x="521" y="29" type="line"/>
			<point x="417" y="17" type="line"/>
		</contour>
		<contour>
			<point x="494" y="0" type="curve"/>
			<point x="583" y="0" type="line"/>
			<point x="579" y="80"/>
			<point x="579" y="209"/>
			<point x="579" y="315" type="curve" smooth="yes"/>
			<point x="579" y="359" type="line" smooth="yes"/>
			<point x="579" y="462"/>
			<point x="579" y="588"/>
			<point x="583" y="668" type="curve"/>
			<point x="494" y="668" type="line"/>
			<point x="498" y="588"/>
			<point x="498" y="462"/>
			<point x="498" y="359" type="curve" smooth="yes"/>
			<point x="498" y="315" type="line" smooth="yes"/>
			<point x="498" y="209"/>
			<point x="498" y="80"/>
		</contour>
		<contour>
			<point x="37" y="651" type="line"/>
			<point x="141" y="639" type="line"/>
			<point x="177" y="639" type="line"/>
			<point x="281" y="651" type="line"/>
			<point x="281" y="668" type="line"/>
			<point x="37" y="668" type="line"/>
		</contour>
		<contour>
			<point x="417" y="651" type="line"/>
			<point x="521" y="639" type="line"/>
			<point x="556" y="639" type="line"/>
			<point x="660" y="651" type="line"/>
			<point x="660" y="668" type="line"/>
			<point x="417" y="668" type="line"/>
		</contour>
	</outline>
	<anchor name="aboveUC" x="349" y="688"/>
	<anchor name="belowLC" x="349" y="-20"/>
</glyph>
<glyph name="Hbar" format="2">
	<advance width="699"/>
	<outline>
		<contour>
			<point x="115" y="0" type="curve"/>
			<point x="204" y="0" type="line"/>
			<point x="200" y="80"/>
			<point x="200" y="209"/>
			<point x="200" y="315" type="curve" smooth="yes"/>
			<point x="200" y="359" type="line" smooth="yes"/>
			<point x="200" y="462"/>
			<point x="200" y="588"/>
			<point x="204" y="668" type="curve"/>
			<point x="116" y="668" type="line"/>
			<point x="120" y="588"/>
			<point x="120" y="462"/>
			<point x="120" y="359" type="curve" smooth="yes"/>
			<point x="120" y="315" type="line" smooth="yes"/>
			<point x="120" y="209"/>
			<point x="119" y="80"/>
		</contour>
		<contour>
			<point x="494" y="0" type="curve"/>
			<point x="583" y="0" type="line"/>
			<point x="579" y="80"/>
			<point x="579" y="209"/>
			<point x="579" y="315" type="curve" smooth="yes"/>
			<point x="579" y="359" type="line" smooth="yes"/>
			<point x="579" y="462"/>
			<point x="579" y="588"/>
			<point x="583" y="668" type="curve"/>
			<point x="494" y="668" type="line"/>
			<point x="498" y="588"/>
			<point x="498" y="462"/>
			<point x="498" y="359" type="curve" smooth="yes"/>
			<point x="498" y="315" type="line" smooth="yes"/>
			<point x="498" y="209"/>
			<point x="498" y="80"/>
		</contour>
		<contour>
			<point x="37" y="0" type="line"/>
			<point x="281" y="0" type="line"/>
			<point x="281" y="17" type="line"/>
			<point x="177" y="29" type="line"/>
			<point x="141" y="29" type="line"/>
			<point x="37" y="17" type="line"/>
		</contour>
		<contour>
			<point x="37" y="651" type="line"/>
			<point x="141" y="639" type="line"/>
			<point x="177" y="639" type="line"/>
			<point x="281" y="651" type="line"/>
			<point x="281" y="668" type="line"/>
			<point x="37" y="668" type="line"/>
		</contour>
		<contour>
			<point x="417" y="0" type="line"/>
			<point x="660" y="0" type="line"/>
			<point x="660" y="17" type="line"/>
			<point x="556" y="29" type="line"/>
			<point x="521" y="29" type="line"/>
			<point x="417" y="17" type="line"/>
		</contour>
		<contour>
			<point x="417" y="651" type="line"/>
			<point x="521" y="639" type="line"/>
			<point x="556" y="639" type="line"/>
			<point x="660" y="651" type="line"/>
			<point x="660" y="668" type="line"/>
			<point x="417" y="668" type="line"/>
		</contour>
		<contour>
			<point x="32" y="477" type="line"/>
			<point x="667" y="477" type="line"/>
			<point x="667" y="499" type="line"/>
			<point x="32" y="499" type="line"/>
		</contour>
		<contour>
			<point x="152" y="317" type="line"/>
			<point x="548" y="317" type="line"/>
			<point x="548" y="342" type="line"/>
			<point x="152" y="342" type="line"/>
		</contour>
	</outline>
</glyph>
<glyph name="Idieresis" format="2">
	<advance width="320"/>
	<outline>
		<contour>
			<point x="86" y="744" type="curve" smooth="yes"/>
			<point x="113" y="744"/>
			<point x="137" y="764"/>
			<point x="137" y="794" type="curve" smooth="yes"/>
			<point x="137" y="825"/>
			<point x="113" y="844"/>
			<point x="86" y="844" type="curve" smooth="yes"/>
			<point x="59" y="844"/>
			<point x="36" y="825"/>
			<point x="36" y="794" type="curve" smooth="yes"/>
			<point x="36" y="764"/>
			<point x="59" y="744"/>
		</contour>
		<contour>
			<point x="233" y="744" type="curve" smooth="yes"/>
			<point x="260" y="744"/>
			<point x="283" y="764"/>
			<point x="283" y="794" type="curve" smooth="yes"/>
			<point x="283" y="825"/>
			<point x="260" y="844"/>
			<point x="233" y="844" type="curve" smooth="yes"/>
			<point x="205" y="844"/>
			<point x="183" y="825"/>
			<point x="183" y="794" type="curve" smooth="yes"/>
			<point x="183" y="764"/>
			<point x="205" y="744"/>
		</contour>
		<component base="I"/>
	</outline>
</glyph>
<glyph name="J" format="2">
	<advance width="331"/>
	<outline>
		<contour>
			<point x="52" y="-133" type="curve" smooth="yes"/>
			<point x="97" y="-133"/>
			<point x="127" y="-113"/>
			<point x="162" y="-68" type="curve" smooth="yes"/>
			<point x="205" y="-14"/>
			<point x="212" y="50"/>
			<point x="212" y="227" type="curve" smooth="yes"/>
			<point x="212" y="359" type="line" smooth="yes"/>
			<point x="212" y="464"/>
			<point x="212" y="568"/>
			<point x="216" y="668" type="curve"/>
			<point x="128" y="668" type="line"/>
			<point x="131" y="463"/>
			<point x="138" y="273"/>
			<point x="138" y="149" type="curve" smooth="yes"/>
			<point x="138" y="8"/>
			<point x="132" y="-43"/>
			<point x="104" y="-102" type="curve"/>
			<point x="104" y="-111" type="line"/>
			<point x="114" y="-111" type="line"/>
			<point x="114" y="-97" type="line"/>
			<point x="85" y="-73" type="line" smooth="yes"/>
			<point x="63" y="-55"/>
			<point x="50" y="-47"/>
			<point x="26" y="-47" type="curve" smooth="yes"/>
			<point x="-1" y="-47"/>
			<point x="-20" y="-64"/>
			<point x="-23" y="-86" type="curve"/>
			<point x="-18" y="-118"/>
			<point x="11" y="-133"/>
		</contour>
		<contour>
			<point x="37" y="651" type="line"/>
			<point x="153" y="639" type="line"/>
			<point x="189" y="639" type="line"/>
			<point x="293" y="651" type="line"/>
			<point x="293" y="668" type="line"/>
			<point x="37" y="668" type="line"/>
		</contour>
	</outline>
	<anchor name="aboveUC" x="167" y="688"/>
	<anchor name="belowLC" x="118" y="-143"/>
</glyph>
<glyph name="K" format="2">
	<advance width="612"/>
	<outline>
		<contour>
			<point x="115" y="0" type="curve"/>
			<point x="204" y="0" type="line"/>
			<point x="200" y="80"/>
			<point x="200" y="209"/>
			<point x="200" y="315" type="curve" smooth="yes"/>
			<point x="200" y="359" type="line" smooth="yes"/>
			<point x="200" y="462"/>
			<point x="200" y="588"/>
			<point x="204" y="668" type="curve"/>
			<point x="116" y="668" type="line"/>
			<point x="120" y="588"/>
			<point x="120" y="462"/>
			<point x="120" y="359" type="curve" smooth="yes"/>
			<point x="120" y="315" type="line" smooth="yes"/>
			<point x="120" y="209"/>
			<point x="119" y="80"/>
		</contour>
		<contour>
			<point x="37" y="0" type="line"/>
			<point x="281" y="0" type="line"/>
			<point x="281" y="17" type="line"/>
			<point x="177" y="29" type="line"/>
			<point x="141" y="29" type="line"/>
			<point x="37" y="17" type="line"/>
		</contour>
		<contour>
			<point x="37" y="651" type="line"/>
			<point x="141" y="639" type="line"/>
			<point x="177" y="639" type="line"/>
			<point x="281" y="651" type="line"/>
			<point x="281" y="668" type="line"/>
			<point x="37" y="668" type="line"/>
		</contour>
		<contour>
			<point x="379" y="0" type="line"/>
			<point x="604" y="0" type="line"/>
			<point x="604" y="17" type="line"/>
			<point x="517" y="29" type="line"/>
			<point x="481" y="29" type="line"/>
			<point x="379" y="17" type="line"/>
		</contour>
		<contour>
			<point x="377" y="651" type="line"/>
			<point x="481" y="639" type="line"/>
			<point x="505" y="639" type="line"/>
			<point x="595" y="651" type="line"/>
			<point x="595" y="668" type="line"/>
			<point x="377" y="668" type="line"/>
		</contour>
		<contour>
			<point x="153" y="178" type="line"/>
			<point x="532" y="668" type="line"/>
			<point x="499" y="668" type="line"/>
			<point x="185" y="254" type="line"/>
			<point x="171" y="236" type="line"/>
			<point x="153" y="236" type="line"/>
		</contour>
		<contour>
			<point x="467" y="0" type="line"/>
			<point x="557" y="0" type="line"/>
			<point x="329" y="427" type="line"/>
			<point x="277" y="365" type="line"/>
		</contour>
	</outline>
	<anchor name="aboveUC" x="317" y="688"/>
	<anchor name="belowLC" x="322" y="-20"/>
</glyph>
<glyph name="L" format="2">
	<advance width="519"/>
	<outline>
		<contour>
			<point x="37" y="0" type="line"/>
			<point x="175" y="0" type="line"/>
			<point x="175" y="29" type="line"/>
			<point x="141" y="29" type="line"/>
			<point x="37" y="17" type="line"/>
		</contour>
		<contour>
			<point x="115" y="0" type="curve"/>
			<point x="204" y="0" type="line"/>
			<point x="200" y="80"/>
			<point x="200" y="209"/>
			<point x="200" y="315" type="curve" smooth="yes"/>
			<point x="200" y="359" type="line" smooth="yes"/>
			<point x="200" y="462"/>
			<point x="200" y="588"/>
			<point x="204" y="668" type="curve"/>
			<point x="116" y="668" type="line"/>
			<point x="120" y="588"/>
			<point x="120" y="462"/>
			<point x="120" y="359" type="curve" smooth="yes"/>
			<point x="120" y="315" type="line" smooth="yes"/>
			<point x="120" y="209"/>
			<point x="119" y="80"/>
		</contour>
		<contour>
			<point x="160" y="0" type="line"/>
			<point x="480" y="0" type="line"/>
			<point x="492" y="190" type="line"/>
			<point x="475" y="190" type="line"/>
			<point x="412" y="12" type="line"/>
			<point x="450" y="24" type="line"/>
			<point x="160" y="24" type="line"/>
		</contour>
		<contour>
			<point x="37" y="651" type="line"/>
			<point x="141" y="639" type="line"/>
			<point x="177" y="639" type="line"/>
			<point x="281" y="651" type="line"/>
			<point x="281" y="668" type="line"/>
			<point x="37" y="668" type="line"/>
		</contour>
	</outline>
	<anchor name="aboveUC" x="169" y="688"/>
	<anchor name="belowLC" x="280" y="-20"/>
</glyph>
<glyph name="Lslash" format="2">
	<advance width="519"/>
	<outline>
		<contour>
			<point x="371" y="435" type="line"/>
			<point x="164" y="319" type="line"/>
			<point x="164" y="296" type="line"/>
			<point x="371" y="412" type="line"/>
		</contour>
		<contour>
			<point x="160" y="322" type="line"/>
			<point x="41" y="257" type="line"/>
			<point x="41" y="235" type="line"/>
			<point x="160" y="298" type="line"/>
		</contour>
		<component base="L"/>
	</outline>
</glyph>
<glyph name="M" format="2">
	<advance width="811"/>
	<outline>
		<contour>
			<point x="37" y="0" type="line"/>
			<point x="231" y="0" type="line"/>
			<point x="231" y="17" type="line"/>
			<point x="142" y="27" type="line"/>
			<point x="127" y="27" type="line"/>
			<point x="37" y="17" type="line"/>
		</contour>
		<contour>
			<point x="37" y="651" type="line"/>
			<point x="141" y="639" type="line"/>
			<point x="145" y="639" type="line"/>
			<point x="145" y="668" type="line"/>
			<point x="37" y="668" type="line"/>
		</contour>
		<contour>
			<point x="121" y="0" type="line"/>
			<point x="148" y="0" type="line"/>
			<point x="148" y="358" type="line"/>
			<point x="148" y="657" type="line"/>
			<point x="121" y="657" type="line"/>
		</contour>
		<contour>
			<point x="366" y="0" type="line"/>
			<point x="393" y="0" type="line"/>
			<point x="615" y="613" type="line"/>
			<point x="618" y="620" type="line"/>
			<point x="624" y="620" type="line"/>
			<point x="624" y="668" type="line"/>
			<point x="606" y="668" type="line"/>
			<point x="402" y="107" type="line"/>
			<point x="399" y="96" type="line"/>
			<point x="418" y="96" type="line"/>
			<point x="212" y="668" type="line"/>
			<point x="126" y="668" type="line"/>
			<point x="126" y="611" type="line"/>
			<point x="145" y="611" type="line"/>
		</contour>
		<contour>
			<point x="536" y="0" type="line"/>
			<point x="773" y="0" type="line"/>
			<point x="773" y="17" type="line"/>
			<point x="669" y="29" type="line"/>
			<point x="633" y="29" type="line"/>
			<point x="536" y="17" type="line"/>
		</contour>
		<contour>
			<point x="606" y="0" type="curve"/>
			<point x="696" y="0" type="line"/>
			<point x="692" y="80"/>
			<point x="692" y="209"/>
			<point x="692" y="315" type="curve" smooth="yes"/>
			<point x="692" y="359" type="line" smooth="yes"/>
			<point x="692" y="462"/>
			<point x="692" y="588"/>
			<point x="696" y="668" type="curve"/>
			<point x="611" y="668" type="line"/>
			<point x="611" y="315" type="line" smooth="yes"/>
			<point x="611" y="209"/>
			<point x="610" y="80"/>
		</contour>
		<contour>
			<point x="633" y="639" type="line"/>
			<point x="669" y="639" type="line"/>
			<point x="773" y="651" type="line"/>
			<point x="773" y="668" type="line"/>
			<point x="633" y="668" type="line"/>
		</contour>
	</outline>
	<anchor name="aboveUC" x="399" y="688"/>
	<anchor name="belowLC" x="384" y="-20"/>
</glyph>
<glyph name="N" format="2">
	<advance width="665"/>
	<outline>
		<contour>
			<point x="37" y="0" type="line"/>
			<point x="239" y="0" type="line"/>
			<point x="239" y="17" type="line"/>
			<point x="142" y="27" type="line"/>
			<point x="127" y="27" type="line"/>
			<point x="37" y="17" type="line"/>
		</contour>
		<contour>
			<point x="121" y="0" type="line"/>
			<point x="149" y="0" type="line"/>
			<point x="149" y="334" type="line"/>
			<point x="149" y="655" type="line"/>
			<point x="121" y="655" type="line"/>
		</contour>
		<contour>
			<point x="433" y="651" type="line"/>
			<point x="530" y="641" type="line"/>
			<point x="545" y="641" type="line"/>
			<point x="627" y="651" type="line"/>
			<point x="627" y="668" type="line"/>
			<point x="433" y="668" type="line"/>
		</contour>
		<contour>
			<point x="528" y="-7" type="line"/>
			<point x="553" y="-7" type="line"/>
			<point x="553" y="668" type="line"/>
			<point x="524" y="668" type="line"/>
			<point x="524" y="334" type="line"/>
			<point x="524" y="139" type="line"/>
			<point x="530" y="139" type="line"/>
			<point x="182" y="668" type="line"/>
			<point x="37" y="668" type="line"/>
			<point x="37" y="651" type="line"/>
			<point x="100" y="643" type="line"/>
			<point x="148" y="571" type="line"/>
			<point x="149" y="571" type="line"/>
		</contour>
	</outline>
	<anchor name="aboveUC" x="338" y="688"/>
	<anchor name="belowLC" x="333" y="-20"/>
</glyph>
<glyph name="O" format="2">
	<advance width="641"/>
	<outline>
		<contour>
			<point x="320" y="-16" type="curve" smooth="yes"/>
			<point x="466" y="-16"/>
			<point x="595" y="110"/>
			<point x="595" y="331" type="curve" smooth="yes"/>
			<point x="595" y="560"/>
			<point x="467" y="684"/>
			<point x="320" y="684" type="curve" smooth="yes"/>
			<point x="175" y="684"/>
			<point x="45" y="556"/>
			<point x="45" y="335" type="curve" smooth="yes"/>
			<point x="45" y="105"/>
			<point x="174" y="-16"/>
		</contour>
		<contour>
			<point x="320" y="7" type="curve" smooth="yes"/>
			<point x="192" y="7"/>
			<point x="135" y="150"/>
			<point x="135" y="335" type="curve" smooth="yes"/>
			<point x="135" y="520"/>
			<point x="192" y="662"/>
			<point x="320" y="662" type="curve" smooth="yes"/>
			<point x="449" y="662"/>
			<point x="505" y="516"/>
			<point x="505" y="331" type="curve" smooth="yes"/>
			<point x="505" y="145"/>
			<point x="449" y="7"/>
		</contour>
	</outline>
	<anchor name="aboveUC" x="320" y="688"/>
	<anchor name="belowLC" x="320" y="-20"/>
	<anchor name="hornLC" x="479" y="586"/>
	<anchor name="ogonek" x="391" y="0"/>
</glyph>
<glyph name="OE" format="2">
	<advance width="860"/>
	<outline>
		<contour>
			<point x="135" y="333" type="curve" smooth="yes"/>
			<point x="135" y="547"/>
			<point x="232" y="662"/>
			<point x="349" y="662" type="curve" smooth="yes"/>
			<point x="388" y="662"/>
			<point x="421" y="657"/>
			<point x="460" y="635" type="curve"/>
			<point x="465" y="662" type="line"/>
			<point x="423" y="679"/>
			<point x="380" y="684"/>
			<point x="345" y="684" type="curve" smooth="yes"/>
			<point x="179" y="684"/>
			<point x="45" y="541"/>
			<point x="45" y="335" type="curve" smooth="yes"/>
			<point x="45" y="125"/>
			<point x="172" y="-16"/>
			<point x="344" y="-16" type="curve" smooth="yes"/>
			<point x="388" y="-16"/>
			<point x="431" y="-8"/>
			<point x="472" y="8" type="curve"/>
			<point x="468" y="37" type="line"/>
			<point x="425" y="12"/>
			<point x="384" y="6"/>
			<point x="347" y="6" type="curve" smooth="yes"/>
			<point x="225" y="6"/>
			<point x="135" y="118"/>
		</contour>
		<contour>
			<point x="433" y="0" type="curve"/>
			<point x="523" y="0" type="line"/>
			<point x="519" y="80"/>
			<point x="519" y="209"/>
			<point x="519" y="315" type="curve" smooth="yes"/>
			<point x="519" y="359" type="line" smooth="yes"/>
			<point x="519" y="462"/>
			<point x="519" y="588"/>
			<point x="523" y="668" type="curve"/>
			<point x="433" y="668" type="line"/>
			<point x="437" y="588"/>
			<point x="437" y="462"/>
			<point x="437" y="359" type="curve" smooth="yes"/>
			<point x="437" y="315" type="line" smooth="yes"/>
			<point x="437" y="209"/>
			<point x="437" y="80"/>
		</contour>
		<contour>
			<point x="675" y="231" type="line"/>
			<point x="692" y="231" type="line"/>
			<point x="692" y="451" type="line"/>
			<point x="675" y="451" type="line"/>
			<point x="644" y="351" type="line"/>
			<point x="644" y="331" type="line"/>
		</contour>
		<contour>
			<point x="477" y="329" type="line"/>
			<point x="657" y="329" type="line"/>
			<point x="657" y="353" type="line"/>
			<point x="477" y="353" type="line"/>
		</contour>
		<contour>
			<point x="785" y="489" type="line"/>
			<point x="803" y="489" type="line"/>
			<point x="791" y="668" type="line"/>
			<point x="474" y="668" type="line"/>
			<point x="474" y="644" type="line"/>
			<point x="727" y="644" type="line"/>
		</contour>
		<contour>
			<point x="801" y="188" type="line"/>
			<point x="743" y="24" type="line"/>
			<point x="477" y="24" type="line"/>
			<point x="477" y="0" type="line"/>
			<point x="807" y="0" type="line"/>
			<point x="819" y="188" type="line"/>
		</contour>
	</outline>
	<anchor name="aboveUC" x="475" y="688"/>
</glyph>
<glyph name="Oslash" format="2">
	<advance width="641"/>
	<outline>
		<contour>
			<point x="591" y="670" type="line"/>
			<point x="573" y="682" type="line"/>
			<point x="50" y="-1" type="line"/>
			<point x="68" y="-13" type="line"/>
		</contour>
		<contour>
			<point x="131" y="335" type="curve" smooth="yes"/>
			<point x="131" y="520"/>
			<point x="189" y="662"/>
			<point x="320" y="662" type="curve" smooth="yes"/>
			<point x="451" y="662"/>
			<point x="510" y="516"/>
			<point x="510" y="331" type="curve" smooth="yes"/>
			<point x="510" y="145"/>
			<point x="451" y="7"/>
			<point x="320" y="7" type="curve" smooth="yes"/>
			<point x="189" y="7"/>
			<point x="131" y="150"/>
		</contour>
		<contour>
			<point x="320" y="684" type="curve" smooth="yes"/>
			<point x="175" y="684"/>
			<point x="45" y="556"/>
			<point x="45" y="335" type="curve" smooth="yes"/>
			<point x="45" y="105"/>
			<point x="174" y="-16"/>
			<point x="320" y="-16" type="curve" smooth="yes"/>
			<point x="466" y="-16"/>
			<point x="595" y="110"/>
			<point x="595" y="331" type="curve" smooth="yes"/>
			<point x="595" y="560"/>
			<point x="467" y="684"/>
		</contour>
	</outline>
	<anchor name="aboveUC" x="320" y="688"/>
</glyph>
<glyph name="P" format="2">
	<advance width="519"/>
	<outline>
		<contour>
			<point x="37" y="0" type="line"/>
			<point x="294" y="0" type="line"/>
			<point x="294" y="17" type="line"/>
			<point x="179" y="29" type="line"/>
			<point x="141" y="29" type="line"/>
			<point x="37" y="17" type="line"/>
		</contour>
		<contour>
			<point x="115" y="0" type="curve"/>
			<point x="204" y="0" type="line"/>
			<point x="200" y="80"/>
			<point x="200" y="209"/>
			<point x="200" y="315" type="curve" smooth="yes"/>
			<point x="200" y="359" type="line" smooth="yes"/>
			<point x="200" y="462"/>
			<point x="200" y="588"/>
			<point x="204" y="668" type="curve"/>
			<point x="116" y="668" type="line"/>
			<point x="120" y="588"/>
			<point x="120" y="462"/>
			<point x="120" y="359" type="curve" smooth="yes"/>
			<point x="120" y="315" type="line" smooth="yes"/>
			<point x="120" y="209"/>
			<point x="119" y="80"/>
		</contour>
		<contour>
			<point x="151" y="285" type="line"/>
			<point x="246" y="285" type="line" smooth="yes"/>
			<point x="428" y="285"/>
			<point x="495" y="379"/>
			<point x="495" y="484" type="curve" smooth="yes"/>
			<point x="495" y="594"/>
			<point x="420" y="668"/>
			<point x="270" y="668" type="curve" smooth="yes"/>
			<point x="151" y="668" type="line"/>
			<point x="151" y="644" type="line"/>
			<point x="254" y="644" type="line" smooth="yes"/>
			<point x="363" y="644"/>
			<point x="411" y="583"/>
			<point x="411" y="484" type="curve" smooth="yes"/>
			<point x="411" y="385"/>
			<point x="369" y="311"/>
			<point x="258" y="311" type="curve" smooth="yes"/>
			<point x="151" y="311" type="line"/>
		</contour>
		<contour>
			<point x="37" y="651" type="line"/>
			<point x="141" y="639" type="line"/>
			<point x="177" y="639" type="line"/>
			<point x="177" y="668" type="line"/>
			<point x="37" y="668" type="line"/>
		</contour>
	</outline>
	<anchor name="aboveUC" x="266" y="688"/>
	<anchor name="belowLC" x="162" y="-20"/>
</glyph>
<glyph name="Q" format="2">
	<advance width="641"/>
	<outline>
		<contour>
			<point x="463" y="-214" type="curve" smooth="yes"/>
			<point x="501" y="-214"/>
			<point x="545" y="-204"/>
			<point x="577" y="-179" type="curve"/>
			<point x="570" y="-163" type="line"/>
			<point x="540" y="-176"/>
			<point x="514" y="-178"/>
			<point x="494" y="-178" type="curve" smooth="yes"/>
			<point x="404" y="-178"/>
			<point x="347" y="-113"/>
			<point x="358" y="2" type="curve"/>
			<point x="281" y="3" type="line"/>
			<point x="281" y="-21" type="line" smooth="yes"/>
			<point x="281" y="-127"/>
			<point x="346" y="-214"/>
		</contour>
		<component base="O"/>
	</outline>
	<anchor name="aboveUC" x="320" y="688"/>
</glyph>
<glyph name="R" format="2">
	<advance width="613"/>
	<outline>
		<contour>
			<point x="37" y="0" type="line"/>
			<point x="279" y="0" type="line"/>
			<point x="279" y="17" type="line"/>
			<point x="179" y="29" type="line"/>
			<point x="141" y="29" type="line"/>
			<point x="37" y="17" type="line"/>
		</contour>
		<contour>
			<point x="115" y="0" type="curve"/>
			<point x="203" y="0" type="line"/>
			<point x="200" y="80"/>
			<point x="200" y="209"/>
			<point x="200" y="315" type="curve" smooth="yes"/>
			<point x="200" y="359" type="line" smooth="yes"/>
			<point x="200" y="462"/>
			<point x="200" y="588"/>
			<point x="203" y="668" type="curve"/>
			<point x="116" y="668" type="line"/>
			<point x="120" y="588"/>
			<point x="120" y="462"/>
			<point x="120" y="359" type="curve" smooth="yes"/>
			<point x="120" y="315" type="line" smooth="yes"/>
			<point x="120" y="209"/>
			<point x="119" y="80"/>
		</contour>
		<contour>
			<point x="533" y="-8" type="curve" smooth="yes"/>
			<point x="559" y="-8"/>
			<point x="583" y="-5"/>
			<point x="603" y="0" type="curve"/>
			<point x="603" y="17" type="line"/>
			<point x="498" y="27" type="line"/>
			<point x="537" y="16" type="line"/>
			<point x="453" y="197" type="line" smooth="yes"/>
			<point x="408" y="291"/>
			<point x="362" y="322"/>
			<point x="254" y="324" type="curve"/>
			<point x="254" y="317" type="line"/>
			<point x="426" y="317"/>
			<point x="499" y="406"/>
			<point x="499" y="498" type="curve" smooth="yes"/>
			<point x="499" y="607"/>
			<point x="417" y="668"/>
			<point x="284" y="668" type="curve" smooth="yes"/>
			<point x="153" y="668" type="line"/>
			<point x="153" y="644" type="line"/>
			<point x="278" y="644" type="line" smooth="yes"/>
			<point x="372" y="644"/>
			<point x="416" y="589"/>
			<point x="416" y="496" type="curve" smooth="yes"/>
			<point x="416" y="408"/>
			<point x="369" y="334"/>
			<point x="268" y="334" type="curve" smooth="yes"/>
			<point x="153" y="334" type="line"/>
			<point x="153" y="310" type="line"/>
			<point x="231" y="310" type="line" smooth="yes"/>
			<point x="303" y="310"/>
			<point x="326" y="289"/>
			<point x="358" y="213" type="curve" smooth="yes"/>
			<point x="425" y="60" type="line" smooth="yes"/>
			<point x="446" y="10"/>
			<point x="469" y="-8"/>
		</contour>
		<contour>
			<point x="37" y="651" type="line"/>
			<point x="141" y="639" type="line"/>
			<point x="177" y="639" type="line"/>
			<point x="177" y="668" type="line"/>
			<point x="37" y="668" type="line"/>
		</contour>
	</outline>
	<anchor name="aboveUC" x="302" y="688"/>
	<anchor name="belowLC" x="331" y="-20"/>
</glyph>
<glyph name="S" format="2">
	<advance width="473"/>
	<outline>
		<contour>
			<point x="217" y="-16" type="curve" smooth="yes"/>
			<point x="356" y="-16"/>
			<point x="432" y="57"/>
			<point x="432" y="173" type="curve" smooth="yes"/>
			<point x="432" y="286"/>
			<point x="353" y="329"/>
			<point x="273" y="367" type="curve" smooth="yes"/>
			<point x="239" y="384" type="line" smooth="yes"/>
			<point x="174" y="415"/>
			<point x="116" y="453"/>
			<point x="116" y="528" type="curve" smooth="yes"/>
			<point x="116" y="626"/>
			<point x="179" y="662"/>
			<point x="252" y="662" type="curve" smooth="yes"/>
			<point x="301" y="662"/>
			<point x="343" y="656"/>
			<point x="388" y="611" type="curve"/>
			<point x="384" y="637" type="line"/>
			<point x="336" y="657" type="line"/>
			<point x="383" y="491" type="line"/>
			<point x="400" y="491" type="line"/>
			<point x="404" y="636" type="line"/>
			<point x="367" y="666"/>
			<point x="318" y="684"/>
			<point x="252" y="684" type="curve" smooth="yes"/>
			<point x="138" y="684"/>
			<point x="51" y="619"/>
			<point x="51" y="505" type="curve" smooth="yes"/>
			<point x="51" y="396"/>
			<point x="129" y="350"/>
			<point x="205" y="313" type="curve" smooth="yes"/>
			<point x="240" y="296" type="line" smooth="yes"/>
			<point x="306" y="265"/>
			<point x="363" y="229"/>
			<point x="363" y="152" type="curve" smooth="yes"/>
			<point x="363" y="47"/>
			<point x="301" y="6"/>
			<point x="216" y="6" type="curve" smooth="yes"/>
			<point x="155" y="6"/>
			<point x="120" y="18"/>
			<point x="64" y="52" type="curve"/>
			<point x="64" y="37" type="line"/>
			<point x="108" y="12" type="line"/>
			<point x="65" y="188" type="line"/>
			<point x="48" y="188" type="line"/>
			<point x="40" y="36" type="line"/>
			<point x="84" y="6"/>
			<point x="146" y="-16"/>
		</contour>
	</outline>
	<anchor name="aboveUC" x="253" y="688"/>
	<anchor name="baseLC" x="219" y="0"/>
	<anchor name="belowLC" x="222" y="-20"/>
</glyph>
<glyph name="Schwa" format="2">
	<advance width="584"/>
	<outline>
		<contour>
			<point x="41" y="272" type="curve" smooth="yes"/>
			<point x="41" y="131"/>
			<point x="114" y="-16"/>
			<point x="288" y="-16" type="curve" smooth="yes"/>
			<point x="428" y="-16"/>
			<point x="539" y="112"/>
			<point x="539" y="339" type="curve" smooth="yes"/>
			<point x="539" y="558"/>
			<point x="424" y="684"/>
			<point x="280" y="684" type="curve" smooth="yes"/>
			<point x="195" y="684"/>
			<point x="135" y="648"/>
			<point x="82" y="584" type="curve"/>
			<point x="94" y="573" type="line"/>
			<point x="143" y="612"/>
			<point x="194" y="632"/>
			<point x="260" y="632" type="curve" smooth="yes"/>
			<point x="364" y="632"/>
			<point x="449" y="543"/>
			<point x="449" y="327" type="curve" smooth="yes"/>
			<point x="449" y="105"/>
			<point x="390" y="7"/>
			<point x="288" y="7" type="curve" smooth="yes"/>
			<point x="162" y="7"/>
			<point x="125" y="150"/>
			<point x="125" y="267" type="curve" smooth="yes"/>
			<point x="125" y="288"/>
			<point x="125" y="310"/>
			<point x="128" y="328" type="curve"/>
			<point x="493" y="328" type="line"/>
			<point x="493" y="353" type="line"/>
			<point x="49" y="353" type="line"/>
			<point x="43" y="328"/>
			<point x="41" y="308"/>
		</contour>
	</outline>
	<anchor name="aboveUC" x="286" y="688"/>
	<anchor name="belowLC" x="289" y="-20"/>
</glyph>
<glyph name="T" format="2">
	<advance width="570"/>
	<outline>
		<contour>
			<point x="151" y="0" type="line"/>
			<point x="418" y="0" type="line"/>
			<point x="418" y="17" type="line"/>
			<point x="303" y="29" type="line"/>
			<point x="266" y="29" type="line"/>
			<point x="151" y="17" type="line"/>
		</contour>
		<contour>
			<point x="241" y="0" type="curve"/>
			<point x="330" y="0" type="line"/>
			<point x="326" y="80"/>
			<point x="326" y="209"/>
			<point x="326" y="315" type="curve" smooth="yes"/>
			<point x="326" y="359" type="line" smooth="yes"/>
			<point x="326" y="462"/>
			<point x="326" y="588"/>
			<point x="330" y="668" type="curve"/>
			<point x="241" y="668" type="line"/>
			<point x="245" y="588"/>
			<point x="245" y="462"/>
			<point x="245" y="359" type="curve" smooth="yes"/>
			<point x="245" y="315" type="line" smooth="yes"/>
			<point x="245" y="209"/>
			<point x="245" y="80"/>
		</contour>
		<contour>
			<point x="27" y="479" type="line"/>
			<point x="44" y="479" type="line"/>
			<point x="107" y="656" type="line"/>
			<point x="69" y="644" type="line"/>
			<point x="501" y="644" type="line"/>
			<point x="464" y="656" type="line"/>
			<point x="527" y="479" type="line"/>
			<point x="544" y="479" type="line"/>
			<point x="532" y="668" type="line"/>
			<point x="39" y="668" type="line"/>
		</contour>
	</outline>
	<anchor name="aboveUC" x="285" y="688"/>
	<anchor name="baseLC" x="285" y="0"/>
	<anchor name="belowLC" x="285" y="-20"/>
</glyph>
<glyph name="Thorn" format="2">
	<advance width="520"/>
	<outline>
		<contour>
			<point x="153" y="169" type="line"/>
			<point x="261" y="169" type="line" smooth="yes"/>
			<point x="421" y="169"/>
			<point x="497" y="248"/>
			<point x="497" y="354" type="curve" smooth="yes"/>
			<point x="497" y="460"/>
			<point x="421" y="532"/>
			<point x="261" y="532" type="curve" smooth="yes"/>
			<point x="153" y="532" type="line"/>
			<point x="153" y="508" type="line"/>
			<point x="256" y="508" type="line" smooth="yes"/>
			<point x="363" y="508"/>
			<point x="412" y="448"/>
			<point x="412" y="353" type="curve" smooth="yes"/>
			<point x="412" y="258"/>
			<point x="363" y="193"/>
			<point x="256" y="193" type="curve" smooth="yes"/>
			<point x="153" y="193" type="line"/>
		</contour>
		<contour>
			<point x="115" y="0" type="curve"/>
			<point x="204" y="0" type="line"/>
			<point x="200" y="80"/>
			<point x="200" y="209"/>
			<point x="200" y="315" type="curve" smooth="yes"/>
			<point x="200" y="359" type="line" smooth="yes"/>
			<point x="200" y="462"/>
			<point x="200" y="588"/>
			<point x="204" y="668" type="curve"/>
			<point x="115" y="668" type="line"/>
			<point x="119" y="588"/>
			<point x="120" y="462"/>
			<point x="120" y="359" type="curve" smooth="yes"/>
			<point x="120" y="315" type="line" smooth="yes"/>
			<point x="120" y="209"/>
			<point x="119" y="80"/>
		</contour>
		<contour>
			<point x="141" y="639" type="line"/>
			<point x="177" y="639" type="line"/>
			<point x="281" y="651" type="line"/>
			<point x="281" y="668" type="line"/>
			<point x="37" y="668" type="line"/>
			<point x="37" y="651" type="line"/>
		</contour>
		<contour>
			<point x="37" y="0" type="line"/>
			<point x="281" y="0" type="line"/>
			<point x="281" y="17" type="line"/>
			<point x="177" y="29" type="line"/>
			<point x="141" y="29" type="line"/>
			<point x="37" y="17" type="line"/>
		</contour>
	</outline>
</glyph>
<glyph name="U" format="2">
	<advance width="660"/>
	<outline>
		<contour>
			<point x="338" y="-16" type="curve" smooth="yes"/>
			<point x="463" y="-16"/>
			<point x="548" y="54"/>
			<point x="548" y="244" type="curve" smooth="yes"/>
			<point x="548" y="668" type="line"/>
			<point x="521" y="668" type="line"/>
			<point x="521" y="247" type="line" smooth="yes"/>
			<point x="521" y="81"/>
			<point x="453" y="32"/>
			<point x="350" y="32" type="curve" smooth="yes"/>
			<point x="257" y="32"/>
			<point x="193" y="87"/>
			<point x="193" y="238" type="curve" smooth="yes"/>
			<point x="193" y="359" type="line" smooth="yes"/>
			<point x="193" y="462"/>
			<point x="193" y="588"/>
			<point x="197" y="668" type="curve"/>
			<point x="108" y="668" type="line"/>
			<point x="112" y="588"/>
			<point x="112" y="462"/>
			<point x="112" y="359" type="curve" smooth="yes"/>
			<point x="112" y="224" type="line" smooth="yes"/>
			<point x="112" y="49"/>
			<point x="210" y="-16"/>
		</contour>
		<contour>
			<point x="37" y="651" type="line"/>
			<point x="135" y="639" type="line"/>
			<point x="171" y="639" type="line"/>
			<point x="273" y="651" type="line"/>
			<point x="273" y="668" type="line"/>
			<point x="37" y="668" type="line"/>
		</contour>
		<contour>
			<point x="439" y="651" type="line"/>
			<point x="529" y="641" type="line"/>
			<point x="541" y="641" type="line"/>
			<point x="621" y="651" type="line"/>
			<point x="621" y="668" type="line"/>
			<point x="439" y="668" type="line"/>
		</contour>
	</outline>
	<anchor name="aboveUC" x="350" y="688"/>
	<anchor name="belowLC" x="333" y="-20"/>
	<anchor name="hornLC" x="525" y="590"/>
	<anchor name="ogonek" x="407" y="0"/>
</glyph>
<glyph name="Uhorn" format="2">
	<advance width="660"/>
	<outline>
		<contour>
			<point x="336" y="-16" type="curve" smooth="yes"/>
			<point x="463" y="-16"/>
			<point x="548" y="54"/>
			<point x="548" y="244" type="curve" smooth="yes"/>
			<point x="548" y="668" type="line"/>
			<point x="521" y="668" type="line"/>
			<point x="521" y="247" type="line" smooth="yes"/>
			<point x="521" y="81"/>
			<point x="453" y="32"/>
			<point x="350" y="32" type="curve" smooth="yes"/>
			<point x="257" y="32"/>
			<point x="193" y="87"/>
			<point x="193" y="238" type="curve" smooth="yes"/>
			<point x="193" y="359" type="line" smooth="yes"/>
			<point x="193" y="462"/>
			<point x="193" y="588"/>
			<point x="197" y="668" type="curve"/>
			<point x="108" y="668" type="line"/>
			<point x="112" y="588"/>
			<point x="112" y="462"/>
			<point x="112" y="359" type="curve" smooth="yes"/>
			<point x="112" y="224" type="line" smooth="yes"/>
			<point x="112" y="49"/>
			<point x="210" y="-16"/>
		</contour>
		<contour>
			<point x="541" y="642" type="line"/>
			<point x="607" y="645"/>
			<point x="652" y="671"/>
			<point x="652" y="751" type="curve" smooth="yes"/>
			<point x="652" y="769"/>
			<point x="648" y="791"/>
			<point x="641" y="805" type="curve"/>
			<point x="634" y="812"/>
			<point x="625" y="815"/>
			<point x="612" y="815" type="curve" smooth="yes"/>
			<point x="594" y="815"/>
			<point x="578" y="801"/>
			<point x="578" y="780" type="curve" smooth="yes"/>
			<point x="578" y="755"/>
			<point x="614" y="737"/>
			<point x="614" y="710" type="curve" smooth="yes"/>
			<point x="614" y="683"/>
			<point x="592" y="668"/>
			<point x="541" y="668" type="curve"/>
		</contour>
		<contour>
			<point x="37" y="651" type="line"/>
			<point x="135" y="639" type="line"/>
			<point x="171" y="639" type="line"/>
			<point x="273" y="651" type="line"/>
			<point x="273" y="668" type="line"/>
			<point x="37" y="668" type="line"/>
		</contour>
		<contour>
			<point x="439" y="651" type="line"/>
			<point x="529" y="641" type="line"/>
			<point x="541" y="641" type="line"/>
			<point x="541" y="668" type="line"/>
			<point x="439" y="668" type="line"/>
		</contour>
	</outline>
	<anchor name="aboveUC" x="350" y="688"/>
	<anchor name="belowLC" x="333" y="-20"/>
</glyph>
<glyph name="Uogonek" format="2">
	<advance width="660"/>
	<outline>
		<contour>
			<point x="135" y="639" type="line"/>
			<point x="171" y="639" type="line"/>
			<point x="273" y="651" type="line"/>
			<point x="273" y="668" type="line"/>
			<point x="37" y="668" type="line"/>
			<point x="37" y="651" type="line"/>
		</contour>
		<contour>
			<point x="389" y="-230" type="curve" smooth="yes"/>
			<point x="428" y="-230"/>
			<point x="457" y="-214"/>
			<point x="484" y="-184" type="curve"/>
			<point x="478" y="-171" type="line"/>
			<point x="457" y="-180"/>
			<point x="437" y="-183"/>
			<point x="419" y="-183" type="curve" smooth="yes"/>
			<point x="383" y="-183"/>
			<point x="361" y="-161"/>
			<point x="361" y="-116" type="curve" smooth="yes"/>
			<point x="361" y="-64"/>
			<point x="407" y="-16"/>
			<point x="448" y="9" type="curve" smooth="yes"/>
			<point x="512" y="48"/>
			<point x="548" y="118"/>
			<point x="548" y="244" type="curve" smooth="yes"/>
			<point x="548" y="668" type="line"/>
			<point x="521" y="668" type="line"/>
			<point x="521" y="247" type="line" smooth="yes"/>
			<point x="521" y="81"/>
			<point x="453" y="32"/>
			<point x="350" y="32" type="curve" smooth="yes"/>
			<point x="257" y="32"/>
			<point x="193" y="87"/>
			<point x="193" y="238" type="curve" smooth="yes"/>
			<point x="193" y="359" type="line" smooth="yes"/>
			<point x="193" y="462"/>
			<point x="193" y="588"/>
			<point x="197" y="668" type="curve"/>
			<point x="108" y="668" type="line"/>
			<point x="112" y="588"/>
			<point x="112" y="462"/>
			<point x="112" y="359" type="curve" smooth="yes"/>
			<point x="112" y="224" type="line" smooth="yes"/>
			<point x="112" y="49"/>
			<point x="210" y="-16"/>
			<point x="336" y="-16" type="curve" smooth="yes"/>
			<point x="363" y="-16"/>
			<point x="387" y="-13"/>
			<point x="408" y="-6" type="curve"/>
			<point x="430" y="8" type="line"/>
			<point x="374" y="-19"/>
			<point x="303" y="-67"/>
			<point x="303" y="-143" type="curve" smooth="yes"/>
			<point x="303" y="-194"/>
			<point x="337" y="-230"/>
		</contour>
		<contour>
			<point x="529" y="641" type="line"/>
			<point x="541" y="641" type="line"/>
			<point x="621" y="651" type="line"/>
			<point x="621" y="668" type="line"/>
			<point x="439" y="668" type="line"/>
			<point x="439" y="651" type="line"/>
		</contour>
	</outline>
	<anchor name="aboveUC" x="350" y="688"/>
</glyph>
<glyph name="V" format="2">
	<advance width="612"/>
	<outline>
		<contour>
			<point x="291" y="-7" type="line"/>
			<point x="324" y="-7" type="line"/>
			<point x="542" y="668" type="line"/>
			<point x="511" y="668" type="line"/>
			<point x="330" y="91" type="line"/>
			<point x="327" y="82" type="line"/>
			<point x="340" y="82" type="line"/>
			<point x="159" y="668" type="line"/>
			<point x="70" y="668" type="line"/>
		</contour>
		<contour>
			<point x="12" y="651" type="line"/>
			<point x="95" y="639" type="line"/>
			<point x="144" y="639" type="line"/>
			<point x="253" y="651" type="line"/>
			<point x="253" y="668" type="line"/>
			<point x="12" y="668" type="line"/>
		</contour>
		<contour>
			<point x="412" y="651" type="line"/>
			<point x="505" y="641" type="line"/>
			<point x="525" y="641" type="line"/>
			<point x="600" y="651" type="line"/>
			<point x="600" y="668" type="line"/>
			<point x="412" y="668" type="line"/>
		</contour>
	</outline>
	<anchor name="aboveUC" x="326" y="688"/>
	<anchor name="belowLC" x="310" y="-20"/>
</glyph>
<glyph name="W" format="2">
	<advance width="891"/>
	<outline>
		<contour>
			<point x="244" y="-5" type="line"/>
			<point x="282" y="-5" type="line"/>
			<point x="449" y="568" type="line"/>
			<point x="453" y="580" type="line"/>
			<point x="434" y="580" type="line"/>
			<point x="598" y="-5" type="line"/>
			<point x="635" y="-5" type="line"/>
			<point x="819" y="668" type="line"/>
			<point x="787" y="668" type="line"/>
			<point x="642" y="117" type="line"/>
			<point x="638" y="100" type="line"/>
			<point x="657" y="100" type="line"/>
			<point x="497" y="668" type="line"/>
			<point x="451" y="668" type="line"/>
			<point x="288" y="116" type="line"/>
			<point x="283" y="100" type="line"/>
			<point x="302" y="100" type="line"/>
			<point x="161" y="668" type="line"/>
			<point x="70" y="668" type="line"/>
		</contour>
		<contour>
			<point x="12" y="651" type="line"/>
			<point x="104" y="639" type="line"/>
			<point x="134" y="639" type="line"/>
			<point x="256" y="651" type="line"/>
			<point x="256" y="668" type="line"/>
			<point x="12" y="668" type="line"/>
		</contour>
		<contour>
			<point x="361" y="651" type="line"/>
			<point x="445" y="642" type="line"/>
			<point x="479" y="639" type="line"/>
			<point x="587" y="651" type="line"/>
			<point x="587" y="668" type="line"/>
			<point x="361" y="668" type="line"/>
		</contour>
		<contour>
			<point x="687" y="651" type="line"/>
			<point x="787" y="641" type="line"/>
			<point x="801" y="641" type="line"/>
			<point x="879" y="651" type="line"/>
			<point x="879" y="668" type="line"/>
			<point x="687" y="668" type="line"/>
		</contour>
	</outline>
	<anchor name="aboveUC" x="468" y="688"/>
	<anchor name="belowLC" x="450" y="-20"/>
</glyph>
<glyph name="X" format="2">
	<advance width="614"/>
	<outline>
		<contour>
			<point x="12" y="0" type="line"/>
			<point x="205" y="0" type="line"/>
			<point x="205" y="17" type="line"/>
			<point x="120" y="27" type="line"/>
			<point x="91" y="27" type="line"/>
			<point x="12" y="17" type="line"/>
		</contour>
		<contour>
			<point x="72" y="0" type="line"/>
			<point x="104" y="0" type="line"/>
			<point x="292" y="317" type="line"/>
			<point x="300" y="328" type="line"/>
			<point x="314" y="328" type="line"/>
			<point x="282" y="348" type="line"/>
		</contour>
		<contour>
			<point x="357" y="0" type="line"/>
			<point x="602" y="0" type="line"/>
			<point x="602" y="17" type="line"/>
			<point x="510" y="29" type="line"/>
			<point x="469" y="29" type="line"/>
			<point x="357" y="17" type="line"/>
		</contour>
		<contour>
			<point x="332" y="349" type="line"/>
			<point x="523" y="668" type="line"/>
			<point x="491" y="668" type="line"/>
			<point x="322" y="381" type="line"/>
			<point x="315" y="370" type="line"/>
			<point x="302" y="370" type="line"/>
		</contour>
		<contour>
			<point x="455" y="0" type="line"/>
			<point x="549" y="0" type="line"/>
			<point x="168" y="668" type="line"/>
			<point x="74" y="668" type="line"/>
		</contour>
		<contour>
			<point x="22" y="651" type="line"/>
			<point x="117" y="639" type="line"/>
			<point x="158" y="639" type="line"/>
			<point x="266" y="651" type="line"/>
			<point x="266" y="668" type="line"/>
			<point x="22" y="668" type="line"/>
		</contour>
		<contour>
			<point x="391" y="651" type="line"/>
			<point x="476" y="641" type="line"/>
			<point x="504" y="641" type="line"/>
			<point x="584" y="651" type="line"/>
			<point x="584" y="668" type="line"/>
			<point x="391" y="668" type="line"/>
		</contour>
	</outline>
	<anchor name="aboveUC" x="326" y="688"/>
	<anchor name="belowLC" x="283" y="-20"/>
</glyph>
<glyph name="Y" format="2">
	<advance width="593"/>
	<outline>
		<contour>
			<point x="164" y="0" type="line"/>
			<point x="430" y="0" type="line"/>
			<point x="430" y="17" type="line"/>
			<point x="316" y="29" type="line"/>
			<point x="279" y="29" type="line"/>
			<point x="164" y="17" type="line"/>
		</contour>
		<contour>
			<point x="253" y="0" type="curve"/>
			<point x="341" y="0" type="line"/>
			<point x="338" y="105"/>
			<point x="338" y="166"/>
			<point x="338" y="294" type="curve"/>
			<point x="257" y="294" type="line"/>
			<point x="257" y="166"/>
			<point x="256" y="105"/>
		</contour>
		<contour>
			<point x="286" y="207" type="line"/>
			<point x="308" y="207" type="line"/>
			<point x="522" y="668" type="line"/>
			<point x="491" y="668" type="line"/>
			<point x="324" y="302" type="line"/>
			<point x="322" y="297" type="line"/>
			<point x="331" y="297" type="line"/>
			<point x="155" y="668" type="line"/>
			<point x="65" y="668" type="line"/>
		</contour>
		<contour>
			<point x="12" y="651" type="line"/>
			<point x="103" y="639" type="line"/>
			<point x="142" y="639" type="line"/>
			<point x="250" y="651" type="line"/>
			<point x="250" y="668" type="line"/>
			<point x="12" y="668" type="line"/>
		</contour>
		<contour>
			<point x="396" y="651" type="line"/>
			<point x="481" y="641" type="line"/>
			<point x="502" y="641" type="line"/>
			<point x="581" y="651" type="line"/>
			<point x="581" y="668" type="line"/>
			<point x="396" y="668" type="line"/>
		</contour>
	</outline>
	<anchor name="aboveUC" x="324" y="688"/>
	<anchor name="belowLC" x="296" y="-20"/>
</glyph>
<glyph name="Z" format="2">
	<advance width="504"/>
	<outline>
		<contour>
			<point x="24" y="0" type="line"/>
			<point x="471" y="0" type="line"/>
			<point x="483" y="188" type="line"/>
			<point x="467" y="188" type="line"/>
			<point x="403" y="12" type="line"/>
			<point x="443" y="24" type="line"/>
			<point x="277" y="24" type="line"/>
			<point x="113" y="24" type="line"/>
			<point x="113" y="32" type="line"/>
			<point x="108" y="8" type="line"/>
			<point x="457" y="652" type="line"/>
			<point x="457" y="668" type="line"/>
			<point x="41" y="668" type="line"/>
			<point x="29" y="491" type="line"/>
			<point x="47" y="491" type="line"/>
			<point x="109" y="656" type="line"/>
			<point x="71" y="644" type="line"/>
			<point x="221" y="644" type="line"/>
			<point x="369" y="644" type="line"/>
			<point x="369" y="635" type="line"/>
			<point x="376" y="661" type="line"/>
			<point x="24" y="16" type="line"/>
		</contour>
	</outline>
	<anchor name="aboveUC" x="247" y="688"/>
	<anchor name="belowLC" x="263" y="-20"/>
</glyph>
<glyph name="a" format="2">
	<advance width="458"/>
	<outline>
		<contour>
			<point x="155" y="-12" type="curve" smooth="yes"/>
			<point x="207" y="-12"/>
			<point x="254" y="10"/>
			<point x="295" y="67" type="curve"/>
			<point x="325" y="67" type="line"/>
			<point x="317" y="105" type="line"/>
			<point x="260" y="49"/>
			<point x="232" y="39"/>
			<point x="189" y="39" type="curve" smooth="yes"/>
			<point x="147" y="39"/>
			<point x="116" y="62"/>
			<point x="116" y="119" type="curve" smooth="yes"/>
			<point x="116" y="155"/>
			<point x="128" y="194"/>
			<point x="207" y="228" type="curve" smooth="yes"/>
			<point x="227" y="237"/>
			<point x="266" y="249"/>
			<point x="332" y="269" type="curve"/>
			<point x="332" y="286" type="line"/>
			<point x="265" y="269"/>
			<point x="217" y="256"/>
			<point x="187" y="246" type="curve" smooth="yes"/>
			<point x="64" y="205"/>
			<point x="37" y="158"/>
			<point x="37" y="100" type="curve" smooth="yes"/>
			<point x="37" y="27"/>
			<point x="89" y="-12"/>
		</contour>
		<contour>
			<point x="371" y="-9" type="curve" smooth="yes"/>
			<point x="411" y="-9"/>
			<point x="435" y="15"/>
			<point x="449" y="48" type="curve"/>
			<point x="439" y="56" type="line"/>
			<point x="422" y="38"/>
			<point x="412" y="31"/>
			<point x="396" y="31" type="curve" smooth="yes"/>
			<point x="378" y="31"/>
			<point x="366" y="43"/>
			<point x="366" y="81" type="curve" smooth="yes"/>
			<point x="366" y="305" type="line" smooth="yes"/>
			<point x="366" y="416"/>
			<point x="322" y="465"/>
			<point x="228" y="465" type="curve" smooth="yes"/>
			<point x="137" y="465"/>
			<point x="68" y="421"/>
			<point x="54" y="355" type="curve"/>
			<point x="57" y="331"/>
			<point x="68" y="317"/>
			<point x="93" y="317" type="curve" smooth="yes"/>
			<point x="116" y="317"/>
			<point x="133" y="332"/>
			<point x="139" y="364" type="curve" smooth="yes"/>
			<point x="156" y="443" type="line"/>
			<point x="128" y="423" type="line"/>
			<point x="154" y="432"/>
			<point x="175" y="439"/>
			<point x="200" y="439" type="curve" smooth="yes"/>
			<point x="263" y="439"/>
			<point x="289" y="407"/>
			<point x="289" y="309" type="curve" smooth="yes"/>
			<point x="289" y="76" type="line"/>
			<point x="289" y="73" type="line"/>
			<point x="291" y="20"/>
			<point x="318" y="-9"/>
		</contour>
	</outline>
	<anchor name="aboveLC" x="221" y="473"/>
	<anchor name="belowLC" x="225" y="-20"/>
	<anchor name="ogonek" x="389" y="0"/>
</glyph>
<glyph name="ae" format="2">
	<advance width="692"/>
	<outline>
		<contour>
			<point x="156" y="-12" type="curve" smooth="yes"/>
			<point x="229" y="-12"/>
			<point x="283" y="37"/>
			<point x="326" y="94" type="curve"/>
			<point x="350" y="95" type="line"/>
			<point x="317" y="105" type="line"/>
			<point x="260" y="49"/>
			<point x="232" y="39"/>
			<point x="189" y="39" type="curve" smooth="yes"/>
			<point x="147" y="39"/>
			<point x="116" y="62"/>
			<point x="116" y="119" type="curve" smooth="yes"/>
			<point x="116" y="155"/>
			<point x="128" y="194"/>
			<point x="207" y="228" type="curve" smooth="yes"/>
			<point x="227" y="237"/>
			<point x="266" y="249"/>
			<point x="332" y="269" type="curve"/>
			<point x="332" y="286" type="line"/>
			<point x="265" y="269"/>
			<point x="217" y="256"/>
			<point x="187" y="246" type="curve" smooth="yes"/>
			<point x="64" y="205"/>
			<point x="37" y="158"/>
			<point x="37" y="100" type="curve" smooth="yes"/>
			<point x="37" y="27"/>
			<point x="89" y="-12"/>
		</contour>
		<contour>
			<point x="482" y="-12" type="curve" smooth="yes"/>
			<point x="551" y="-12"/>
			<point x="612" y="19"/>
			<point x="647" y="96" type="curve"/>
			<point x="633" y="104" type="line"/>
			<point x="602" y="63"/>
			<point x="561" y="40"/>
			<point x="506" y="40" type="curve" smooth="yes"/>
			<point x="426" y="40"/>
			<point x="369" y="113"/>
			<point x="369" y="235" type="curve" smooth="yes"/>
			<point x="369" y="385"/>
			<point x="427" y="443"/>
			<point x="483" y="443" type="curve" smooth="yes"/>
			<point x="535" y="443"/>
			<point x="576" y="396"/>
			<point x="576" y="321" type="curve" smooth="yes"/>
			<point x="576" y="284"/>
			<point x="563" y="269"/>
			<point x="524" y="269" type="curve" smooth="yes"/>
			<point x="319" y="269" type="line"/>
			<point x="319" y="246" type="line"/>
			<point x="641" y="246" type="line"/>
			<point x="645" y="259"/>
			<point x="647" y="274"/>
			<point x="647" y="296" type="curve" smooth="yes"/>
			<point x="647" y="400"/>
			<point x="578" y="465"/>
			<point x="491" y="465" type="curve" smooth="yes"/>
			<point x="409" y="465"/>
			<point x="339" y="409"/>
			<point x="308" y="317" type="curve"/>
			<point x="360" y="315" type="line"/>
			<point x="356" y="420"/>
			<point x="317" y="465"/>
			<point x="228" y="465" type="curve" smooth="yes"/>
			<point x="137" y="465"/>
			<point x="68" y="421"/>
			<point x="54" y="355" type="curve"/>
			<point x="57" y="331"/>
			<point x="68" y="317"/>
			<point x="93" y="317" type="curve" smooth="yes"/>
			<point x="116" y="317"/>
			<point x="133" y="332"/>
			<point x="139" y="364" type="curve" smooth="yes"/>
			<point x="156" y="443" type="line"/>
			<point x="128" y="423" type="line"/>
			<point x="154" y="432"/>
			<point x="175" y="439"/>
			<point x="200" y="439" type="curve" smooth="yes"/>
			<point x="263" y="439"/>
			<point x="289" y="407"/>
			<point x="289" y="309" type="curve" smooth="yes"/>
			<point x="289" y="217" type="line" smooth="yes"/>
			<point x="289" y="73"/>
			<point x="376" y="-12"/>
		</contour>
	</outline>
	<anchor name="aboveLC" x="340" y="473"/>
	<anchor name="belowLC" x="319" y="-20"/>
</glyph>
<glyph name="alphalatin" format="2">
	<advance width="530"/>
	<outline>
		<contour>
			<point x="222" y="-12" type="curve" smooth="yes"/>
			<point x="290" y="-12"/>
			<point x="341" y="32"/>
			<point x="371" y="90" type="curve"/>
			<point x="383" y="90" type="line"/>
			<point x="377" y="117" type="line"/>
			<point x="342" y="65"/>
			<point x="302" y="29"/>
			<point x="251" y="29" type="curve" smooth="yes"/>
			<point x="177" y="29"/>
			<point x="123" y="87"/>
			<point x="123" y="220" type="curve" smooth="yes"/>
			<point x="123" y="357"/>
			<point x="181" y="423"/>
			<point x="251" y="423" type="curve" smooth="yes"/>
			<point x="303" y="423"/>
			<point x="333" y="404"/>
			<point x="381" y="348" type="curve"/>
			<point x="389" y="371" type="line"/>
			<point x="375" y="371" type="line"/>
			<point x="338" y="439"/>
			<point x="289" y="465"/>
			<point x="235" y="465" type="curve" smooth="yes"/>
			<point x="130" y="465"/>
			<point x="43" y="374"/>
			<point x="43" y="216" type="curve" smooth="yes"/>
			<point x="43" y="64"/>
			<point x="124" y="-12"/>
		</contour>
		<contour>
			<point x="361" y="88" type="line"/>
			<point x="361" y="75" type="line"/>
			<point x="362" y="20"/>
			<point x="389" y="-9"/>
			<point x="442" y="-9" type="curve" smooth="yes"/>
			<point x="482" y="-9"/>
			<point x="506" y="11"/>
			<point x="521" y="44" type="curve"/>
			<point x="510" y="54" type="line"/>
			<point x="493" y="34"/>
			<point x="484" y="27"/>
			<point x="467" y="27" type="curve" smooth="yes"/>
			<point x="450" y="27"/>
			<point x="437" y="36"/>
			<point x="437" y="75" type="curve" smooth="yes"/>
			<point x="437" y="255" type="line"/>
			<point x="441" y="457" type="line"/>
			<point x="431" y="463" type="line"/>
			<point x="361" y="384" type="line"/>
			<point x="361" y="379" type="line"/>
		</contour>
	</outline>
	<anchor name="aboveLC" x="258" y="473"/>
	<anchor name="belowLC" x="257" y="-20"/>
</glyph>
<glyph name="ampersand" format="2">
	<advance width="676"/>
	<outline>
		<contour>
			<point x="223" y="-12" type="curve" smooth="yes"/>
			<point x="333" y="-12"/>
			<point x="393" y="51"/>
			<point x="432" y="112" type="curve"/>
			<point x="423" y="115" type="line"/>
			<point x="410" y="120" type="line"/>
			<point x="377" y="65"/>
			<point x="318" y="43"/>
			<point x="253" y="43" type="curve" smooth="yes"/>
			<point x="158" y="43"/>
			<point x="105" y="116"/>
			<point x="105" y="196" type="curve" smooth="yes"/>
			<point x="105" y="251"/>
			<point x="133" y="323"/>
			<point x="212" y="365" type="curve"/>
			<point x="204" y="370" type="line"/>
			<point x="197" y="375" type="line"/>
			<point x="87" y="324"/>
			<point x="24" y="262"/>
			<point x="24" y="164" type="curve" smooth="yes"/>
			<point x="24" y="66"/>
			<point x="103" y="-12"/>
		</contour>
		<contour>
			<point x="438" y="108" type="line"/>
			<point x="495" y="191"/>
			<point x="533" y="286"/>
			<point x="556" y="400" type="curve"/>
			<point x="525" y="400" type="line"/>
			<point x="504" y="294"/>
			<point x="475" y="208"/>
			<point x="424" y="129" type="curve"/>
			<point x="419" y="129" type="line"/>
		</contour>
		<contour>
			<point x="529" y="392" type="line"/>
			<point x="551" y="392" type="line"/>
			<point x="632" y="404" type="line"/>
			<point x="632" y="420" type="line"/>
			<point x="441" y="420" type="line"/>
			<point x="441" y="404" type="line"/>
		</contour>
		<contour>
			<point x="555" y="-12" type="curve" smooth="yes"/>
			<point x="581" y="-12"/>
			<point x="606" y="-8"/>
			<point x="636" y="0" type="curve"/>
			<point x="636" y="15" type="line"/>
			<point x="512" y="31" type="line"/>
			<point x="579" y="9" type="line"/>
			<point x="483" y="118"/>
			<point x="411" y="201"/>
			<point x="336" y="289" type="curve" smooth="yes"/>
			<point x="274" y="363"/>
			<point x="246" y="394"/>
			<point x="212" y="439" type="curve" smooth="yes"/>
			<point x="178" y="484"/>
			<point x="170" y="523"/>
			<point x="170" y="558" type="curve" smooth="yes"/>
			<point x="170" y="620"/>
			<point x="207" y="662"/>
			<point x="253" y="662" type="curve" smooth="yes"/>
			<point x="303" y="662"/>
			<point x="337" y="623"/>
			<point x="337" y="558" type="curve" smooth="yes"/>
			<point x="337" y="490"/>
			<point x="291" y="434"/>
			<point x="227" y="389" type="curve"/>
			<point x="233" y="382" type="line"/>
			<point x="239" y="376" type="line"/>
			<point x="350" y="434"/>
			<point x="401" y="482"/>
			<point x="401" y="556" type="curve" smooth="yes"/>
			<point x="401" y="631"/>
			<point x="351" y="684"/>
			<point x="257" y="684" type="curve" smooth="yes"/>
			<point x="166" y="684"/>
			<point x="100" y="619"/>
			<point x="100" y="537" type="curve" smooth="yes"/>
			<point x="100" y="485"/>
			<point x="117" y="436"/>
			<point x="164" y="379" type="curve" smooth="yes"/>
			<point x="204" y="329"/>
			<point x="240" y="287"/>
			<point x="296" y="216" type="curve" smooth="yes"/>
			<point x="343" y="158"/>
			<point x="391" y="102"/>
			<point x="450" y="33" type="curve" smooth="yes"/>
			<point x="483" y="-2"/>
			<point x="504" y="-12"/>
		</contour>
	</outline>
</glyph>
<glyph name="aogonek" format="2">
	<advance width="458"/>
	<outline>
		<contour>
			<point x="155" y="-12" type="curve" smooth="yes"/>
			<point x="207" y="-12"/>
			<point x="254" y="10"/>
			<point x="295" y="67" type="curve"/>
			<point x="325" y="67" type="line"/>
			<point x="317" y="105" type="line"/>
			<point x="260" y="49"/>
			<point x="232" y="39"/>
			<point x="189" y="39" type="curve" smooth="yes"/>
			<point x="147" y="39"/>
			<point x="116" y="62"/>
			<point x="116" y="119" type="curve" smooth="yes"/>
			<point x="116" y="155"/>
			<point x="128" y="194"/>
			<point x="207" y="228" type="curve" smooth="yes"/>
			<point x="227" y="237"/>
			<point x="266" y="249"/>
			<point x="332" y="269" type="curve"/>
			<point x="332" y="286" type="line"/>
			<point x="265" y="269"/>
			<point x="217" y="256"/>
			<point x="187" y="246" type="curve" smooth="yes"/>
			<point x="64" y="205"/>
			<point x="37" y="158"/>
			<point x="37" y="100" type="curve" smooth="yes"/>
			<point x="37" y="27"/>
			<point x="89" y="-12"/>
		</contour>
		<contour>
			<point x="355" y="-230" type="curve" smooth="yes"/>
			<point x="393" y="-230"/>
			<point x="423" y="-214"/>
			<point x="450" y="-184" type="curve"/>
			<point x="443" y="-171" type="line"/>
			<point x="423" y="-180"/>
			<point x="402" y="-183"/>
			<point x="385" y="-183" type="curve" smooth="yes"/>
			<point x="348" y="-183"/>
			<point x="326" y="-162"/>
			<point x="326" y="-120" type="curve" smooth="yes"/>
			<point x="326" y="-74"/>
			<point x="380" y="-25"/>
			<point x="418" y="4" type="curve" smooth="yes"/>
			<point x="433" y="17"/>
			<point x="442" y="31"/>
			<point x="449" y="48" type="curve"/>
			<point x="439" y="56" type="line"/>
			<point x="422" y="38"/>
			<point x="412" y="31"/>
			<point x="396" y="31" type="curve" smooth="yes"/>
			<point x="378" y="31"/>
			<point x="366" y="43"/>
			<point x="366" y="81" type="curve" smooth="yes"/>
			<point x="366" y="305" type="line" smooth="yes"/>
			<point x="366" y="416"/>
			<point x="322" y="465"/>
			<point x="228" y="465" type="curve" smooth="yes"/>
			<point x="137" y="465"/>
			<point x="68" y="421"/>
			<point x="54" y="355" type="curve"/>
			<point x="57" y="331"/>
			<point x="68" y="317"/>
			<point x="93" y="317" type="curve" smooth="yes"/>
			<point x="116" y="317"/>
			<point x="133" y="332"/>
			<point x="139" y="364" type="curve" smooth="yes"/>
			<point x="158" y="447" type="line"/>
			<point x="125" y="424" type="line"/>
			<point x="169" y="436"/>
			<point x="185" y="439"/>
			<point x="200" y="439" type="curve" smooth="yes"/>
			<point x="263" y="439"/>
			<point x="289" y="407"/>
			<point x="289" y="309" type="curve" smooth="yes"/>
			<point x="289" y="76" type="line"/>
			<point x="289" y="73" type="line" smooth="yes"/>
			<point x="291" y="20"/>
			<point x="318" y="-9"/>
			<point x="371" y="-9" type="curve" smooth="yes"/>
			<point x="377" y="-9"/>
			<point x="384" y="-7"/>
			<point x="395" y="-5" type="curve"/>
			<point x="401" y="6" type="line"/>
			<point x="321" y="-37"/>
			<point x="269" y="-85"/>
			<point x="269" y="-144" type="curve" smooth="yes"/>
			<point x="269" y="-194"/>
			<point x="303" y="-230"/>
		</contour>
	</outline>
	<anchor name="aboveLC" x="221" y="473"/>
</glyph>
<glyph name="b" format="2">
	<advance width="543"/>
	<outline>
		<contour>
			<point x="35" y="0" type="line"/>
			<point x="182" y="-10" type="line"/>
			<point x="182" y="74" type="line"/>
			<point x="182" y="76" type="line"/>
			<point x="182" y="368" type="line"/>
			<point x="181" y="371" type="line"/>
			<point x="181" y="537" type="line"/>
			<point x="185" y="734" type="line"/>
			<point x="177" y="742" type="line"/>
			<point x="31" y="705" type="line"/>
			<point x="31" y="690" type="line"/>
			<point x="105" y="673" type="line"/>
			<point x="105" y="211" type="line" smooth="yes"/>
			<point x="105" y="160"/>
			<point x="104" y="84"/>
			<point x="102" y="26" type="curve"/>
			<point x="35" y="17" type="line"/>
		</contour>
		<contour>
			<point x="311" y="-12" type="curve" smooth="yes"/>
			<point x="417" y="-12"/>
			<point x="501" y="79"/>
			<point x="501" y="237" type="curve" smooth="yes"/>
			<point x="501" y="389"/>
			<point x="419" y="465"/>
			<point x="321" y="465" type="curve" smooth="yes"/>
			<point x="253" y="465"/>
			<point x="202" y="422"/>
			<point x="172" y="363" type="curve"/>
			<point x="159" y="363" type="line"/>
			<point x="166" y="335" type="line"/>
			<point x="200" y="388"/>
			<point x="241" y="424"/>
			<point x="292" y="424" type="curve" smooth="yes"/>
			<point x="366" y="424"/>
			<point x="420" y="365"/>
			<point x="420" y="232" type="curve" smooth="yes"/>
			<point x="420" y="97"/>
			<point x="366" y="30"/>
			<point x="296" y="30" type="curve" smooth="yes"/>
			<point x="242" y="30"/>
			<point x="209" y="49"/>
			<point x="162" y="105" type="curve"/>
			<point x="155" y="81" type="line"/>
			<point x="168" y="81" type="line"/>
			<point x="205" y="13"/>
			<point x="257" y="-12"/>
		</contour>
	</outline>
	<anchor name="aboveLC" x="148" y="742"/>
	<anchor name="belowLC" x="271" y="-20"/>
</glyph>
<glyph name="c" format="2">
	<advance width="433"/>
	<outline>
		<contour>
			<point x="246" y="-12" type="curve" smooth="yes"/>
			<point x="321" y="-12"/>
			<point x="379" y="23"/>
			<point x="413" y="99" type="curve"/>
			<point x="399" y="108" type="line"/>
			<point x="368" y="66"/>
			<point x="328" y="40"/>
			<point x="270" y="40" type="curve" smooth="yes"/>
			<point x="167" y="40"/>
			<point x="119" y="130"/>
			<point x="119" y="238" type="curve" smooth="yes"/>
			<point x="119" y="353"/>
			<point x="169" y="443"/>
			<point x="260" y="443" type="curve" smooth="yes"/>
			<point x="281" y="443"/>
			<point x="309" y="440"/>
			<point x="332" y="417" type="curve"/>
			<point x="303" y="443" type="line"/>
			<point x="320" y="364" type="line" smooth="yes"/>
			<point x="326" y="332"/>
			<point x="343" y="317"/>
			<point x="366" y="317" type="curve" smooth="yes"/>
			<point x="389" y="317"/>
			<point x="403" y="329"/>
			<point x="406" y="353" type="curve"/>
			<point x="395" y="418"/>
			<point x="341" y="465"/>
			<point x="259" y="465" type="curve" smooth="yes"/>
			<point x="145" y="465"/>
			<point x="39" y="381"/>
			<point x="39" y="220" type="curve" smooth="yes"/>
			<point x="39" y="72"/>
			<point x="124" y="-12"/>
		</contour>
	</outline>
	<anchor name="aboveLC" x="248" y="473"/>
	<anchor name="baseLC" x="245" y="0"/>
	<anchor name="belowLC" x="245" y="-20"/>
</glyph>
<glyph name="comma" format="2">
	<advance width="259"/>
	<outline>
		<contour>
			<point x="69" y="-143" type="line"/>
			<point x="133" y="-114"/>
			<point x="185" y="-57"/>
			<point x="185" y="29" type="curve" smooth="yes"/>
			<point x="185" y="47"/>
			<point x="182" y="67"/>
			<point x="177" y="88" type="curve"/>
			<point x="157" y="105"/>
			<point x="143" y="106"/>
			<point x="128" y="106" type="curve" smooth="yes"/>
			<point x="95" y="106"/>
			<point x="73" y="84"/>
			<point x="73" y="51" type="curve" smooth="yes"/>
			<point x="73" y="34"/>
			<point x="82" y="14"/>
			<point x="106" y="0" type="curve" smooth="yes"/>
			<point x="152" y="-28" type="line"/>
			<point x="152" y="-5" type="line"/>
			<point x="129" y="-69"/>
			<point x="110" y="-92"/>
			<point x="58" y="-125" type="curve"/>
		</contour>
	</outline>
</glyph>
<glyph name="d" format="2">
	<advance width="531"/>
	<outline>
		<contour>
			<point x="222" y="-12" type="curve" smooth="yes"/>
			<point x="290" y="-12"/>
			<point x="341" y="32"/>
			<point x="371" y="90" type="curve"/>
			<point x="383" y="90" type="line"/>
			<point x="377" y="117" type="line"/>
			<point x="342" y="65"/>
			<point x="302" y="29"/>
			<point x="251" y="29" type="curve" smooth="yes"/>
			<point x="177" y="29"/>
			<point x="123" y="87"/>
			<point x="123" y="220" type="curve" smooth="yes"/>
			<point x="123" y="357"/>
			<point x="181" y="423"/>
			<point x="251" y="423" type="curve" smooth="yes"/>
			<point x="303" y="423"/>
			<point x="333" y="404"/>
			<point x="381" y="348" type="curve"/>
			<point x="389" y="371" type="line"/>
			<point x="375" y="371" type="line"/>
			<point x="338" y="439"/>
			<point x="289" y="465"/>
			<point x="235" y="465" type="curve" smooth="yes"/>
			<point x="130" y="465"/>
			<point x="43" y="374"/>
			<point x="43" y="216" type="curve" smooth="yes"/>
			<point x="43" y="64"/>
			<point x="124" y="-12"/>
		</contour>
		<contour>
			<point x="361" y="-10" type="line"/>
			<point x="504" y="0" type="line"/>
			<point x="504" y="17" type="line"/>
			<point x="437" y="26" type="line"/>
			<point x="437" y="537" type="line"/>
			<point x="441" y="734" type="line"/>
			<point x="433" y="742" type="line"/>
			<point x="289" y="705" type="line"/>
			<point x="289" y="690" type="line"/>
			<point x="361" y="673" type="line"/>
			<point x="361" y="385" type="line"/>
			<point x="361" y="376" type="line"/>
			<point x="361" y="87" type="line"/>
			<point x="361" y="84" type="line"/>
		</contour>
	</outline>
	<anchor name="aboveLC" x="389" y="742"/>
	<anchor name="belowLC" x="255" y="-20"/>
</glyph>
<glyph name="dcroat" format="2">
	<advance width="531"/>
	<outline>
		<contour>
			<point x="172" y="554" type="line"/>
			<point x="504" y="554" type="line"/>
			<point x="504" y="576" type="line"/>
			<point x="172" y="576" type="line"/>
		</contour>
		<contour>
			<point x="123" y="212" type="curve" smooth="yes"/>
			<point x="123" y="341"/>
			<point x="181" y="407"/>
			<point x="251" y="407" type="curve" smooth="yes"/>
			<point x="303" y="407"/>
			<point x="333" y="388"/>
			<point x="381" y="332" type="curve"/>
			<point x="389" y="355" type="line"/>
			<point x="375" y="355" type="line"/>
			<point x="338" y="423"/>
			<point x="289" y="449"/>
			<point x="235" y="449" type="curve" smooth="yes"/>
			<point x="130" y="449"/>
			<point x="43" y="358"/>
			<point x="43" y="208" type="curve" smooth="yes"/>
			<point x="43" y="64"/>
			<point x="124" y="-12"/>
			<point x="222" y="-12" type="curve" smooth="yes"/>
			<point x="290" y="-12"/>
			<point x="341" y="32"/>
			<point x="371" y="90" type="curve"/>
			<point x="383" y="90" type="line"/>
			<point x="377" y="117" type="line"/>
			<point x="342" y="65"/>
			<point x="302" y="29"/>
			<point x="251" y="29" type="curve" smooth="yes"/>
			<point x="177" y="29"/>
			<point x="123" y="87"/>
		</contour>
		<contour>
			<point x="504" y="0" type="line"/>
			<point x="504" y="17" type="line"/>
			<point x="437" y="27" type="line"/>
			<point x="437" y="537" type="line"/>
			<point x="441" y="734" type="line"/>
			<point x="433" y="742" type="line"/>
			<point x="289" y="705" type="line"/>
			<point x="289" y="690" type="line"/>
			<point x="361" y="673" type="line"/>
			<point x="361" y="367" type="line"/>
			<point x="361" y="362" type="line"/>
			<point x="361" y="84" type="line"/>
			<point x="361" y="79" type="line"/>
			<point x="361" y="-10" type="line"/>
		</contour>
	</outline>
</glyph>
<glyph name="dotlessi" format="2">
	<advance width="275"/>
	<outline>
		<contour>
			<point x="33" y="0" type="line"/>
			<point x="248" y="0" type="line"/>
			<point x="248" y="17" type="line"/>
			<point x="155" y="29" type="line"/>
			<point x="128" y="29" type="line"/>
			<point x="33" y="17" type="line"/>
		</contour>
		<contour>
			<point x="101" y="0" type="curve"/>
			<point x="185" y="0" type="line"/>
			<point x="182" y="47"/>
			<point x="181" y="147"/>
			<point x="181" y="212" type="curve" smooth="yes"/>
			<point x="181" y="330" type="line"/>
			<point x="185" y="457" type="line"/>
			<point x="176" y="465" type="line"/>
			<point x="29" y="420" type="line"/>
			<point x="29" y="405" type="line"/>
			<point x="102" y="388" type="line"/>
			<point x="104" y="347"/>
			<point x="105" y="312"/>
			<point x="105" y="255" type="curve" smooth="yes"/>
			<point x="105" y="212" type="line" smooth="yes"/>
			<point x="105" y="147"/>
			<point x="104" y="47"/>
		</contour>
	</outline>
	<anchor name="aboveLC" x="140" y="473"/>
	<anchor name="belowLC" x="141" y="-20"/>
	<anchor name="ogonek" x="187" y="0"/>
</glyph>
<glyph name="e" format="2">
	<advance width="459"/>
	<outline>
		<contour>
			<point x="248" y="-12" type="curve" smooth="yes"/>
			<point x="321" y="-12"/>
			<point x="382" y="22"/>
			<point x="417" y="99" type="curve"/>
			<point x="403" y="108" type="line"/>
			<point x="372" y="67"/>
			<point x="330" y="40"/>
			<point x="272" y="40" type="curve" smooth="yes"/>
			<point x="185" y="40"/>
			<point x="121" y="113"/>
			<point x="121" y="235" type="curve" smooth="yes"/>
			<point x="121" y="385"/>
			<point x="183" y="443"/>
			<point x="245" y="443" type="curve" smooth="yes"/>
			<point x="305" y="443"/>
			<point x="343" y="396"/>
			<point x="343" y="321" type="curve" smooth="yes"/>
			<point x="343" y="284"/>
			<point x="329" y="269"/>
			<point x="290" y="269" type="curve" smooth="yes"/>
			<point x="71" y="269" type="line"/>
			<point x="71" y="246" type="line"/>
			<point x="407" y="246" type="line"/>
			<point x="411" y="259"/>
			<point x="413" y="274"/>
			<point x="413" y="296" type="curve" smooth="yes"/>
			<point x="413" y="400"/>
			<point x="340" y="465"/>
			<point x="245" y="465" type="curve" smooth="yes"/>
			<point x="136" y="465"/>
			<point x="41" y="368"/>
			<point x="41" y="217" type="curve" smooth="yes"/>
			<point x="41" y="73"/>
			<point x="132" y="-12"/>
		</contour>
	</outline>
	<anchor name="aboveLC" x="246" y="473"/>
	<anchor name="belowLC" x="247" y="-20"/>
	<anchor name="ogonek" x="296" y="0"/>
</glyph>
<glyph name="eight.cap" format="2">
	<advance width="483"/>
	<outline>
		<contour>
			<point x="240" y="-12" type="curve" smooth="yes"/>
			<point x="352" y="-12"/>
			<point x="441" y="69"/>
			<point x="441" y="171" type="curve" smooth="yes"/>
			<point x="441" y="274"/>
			<point x="359" y="323"/>
			<point x="281" y="371" type="curve" smooth="yes"/>
			<point x="209" y="414"/>
			<point x="140" y="457"/>
			<point x="140" y="534" type="curve" smooth="yes"/>
			<point x="140" y="613"/>
			<point x="185" y="662"/>
			<point x="246" y="662" type="curve" smooth="yes"/>
			<point x="312" y="662"/>
			<point x="345" y="603"/>
			<point x="345" y="529" type="curve" smooth="yes"/>
			<point x="345" y="469"/>
			<point x="317" y="408"/>
			<point x="244" y="353" type="curve"/>
			<point x="269" y="346" type="line"/>
			<point x="269" y="356" type="line"/>
			<point x="377" y="401"/>
			<point x="420" y="474"/>
			<point x="420" y="532" type="curve" smooth="yes"/>
			<point x="420" y="626"/>
			<point x="350" y="684"/>
			<point x="247" y="684" type="curve" smooth="yes"/>
			<point x="145" y="684"/>
			<point x="61" y="616"/>
			<point x="61" y="513" type="curve" smooth="yes"/>
			<point x="61" y="419"/>
			<point x="128" y="367"/>
			<point x="199" y="323" type="curve" smooth="yes"/>
			<point x="277" y="276"/>
			<point x="358" y="236"/>
			<point x="358" y="153" type="curve" smooth="yes"/>
			<point x="358" y="70"/>
			<point x="309" y="9"/>
			<point x="241" y="9" type="curve" smooth="yes"/>
			<point x="175" y="9"/>
			<point x="120" y="73"/>
			<point x="120" y="155" type="curve" smooth="yes"/>
			<point x="120" y="230"/>
			<point x="161" y="287"/>
			<point x="233" y="334" type="curve"/>
			<point x="204" y="343" type="line"/>
			<point x="204" y="335" type="line"/>
			<point x="102" y="287"/>
			<point x="42" y="228"/>
			<point x="42" y="149" type="curve" smooth="yes"/>
			<point x="42" y="49"/>
			<point x="122" y="-12"/>
		</contour>
	</outline>
</glyph>
<glyph name="eight.lf" format="2">
	<advance width="483"/>
	<outline>
		<contour>
			<point x="240" y="-12" type="curve" smooth="yes"/>
			<point x="352" y="-12"/>
			<point x="440" y="62"/>
			<point x="440" y="165" type="curve" smooth="yes"/>
			<point x="440" y="268"/>
			<point x="359" y="314"/>
			<point x="280" y="358" type="curve" smooth="yes"/>
			<point x="208" y="398"/>
			<point x="140" y="435"/>
			<point x="140" y="513" type="curve" smooth="yes"/>
			<point x="140" y="591"/>
			<point x="185" y="635"/>
			<point x="246" y="635" type="curve" smooth="yes"/>
			<point x="312" y="635"/>
			<point x="345" y="582"/>
			<point x="345" y="508" type="curve" smooth="yes"/>
			<point x="345" y="448"/>
			<point x="317" y="395"/>
			<point x="244" y="340" type="curve"/>
			<point x="269" y="332" type="line"/>
			<point x="269" y="343" type="line"/>
			<point x="377" y="387"/>
			<point x="420" y="453"/>
			<point x="420" y="512" type="curve" smooth="yes"/>
			<point x="420" y="605"/>
			<point x="350" y="657"/>
			<point x="247" y="657" type="curve" smooth="yes"/>
			<point x="145" y="657"/>
			<point x="61" y="595"/>
			<point x="61" y="492" type="curve" smooth="yes"/>
			<point x="61" y="398"/>
			<point x="129" y="351"/>
			<point x="200" y="311" type="curve" smooth="yes"/>
			<point x="277" y="267"/>
			<point x="358" y="230"/>
			<point x="358" y="147" type="curve" smooth="yes"/>
			<point x="358" y="64"/>
			<point x="309" y="9"/>
			<point x="241" y="9" type="curve" smooth="yes"/>
			<point x="175" y="9"/>
			<point x="120" y="67"/>
			<point x="120" y="148" type="curve" smooth="yes"/>
			<point x="120" y="224"/>
			<point x="161" y="274"/>
			<point x="233" y="321" type="curve"/>
			<point x="204" y="330" type="line"/>
			<point x="204" y="322" type="line"/>
			<point x="101" y="275"/>
			<point x="42" y="222"/>
			<point x="42" y="141" type="curve" smooth="yes"/>
			<point x="42" y="42"/>
			<point x="122" y="-12"/>
		</contour>
	</outline>
</glyph>
<glyph name="eng" format="2">
	<advance width="543"/>
	<outline>
		<contour>
			<point x="33" y="0" type="line"/>
			<point x="248" y="0" type="line"/>
			<point x="248" y="17" type="line"/>
			<point x="155" y="29" type="line"/>
			<point x="128" y="29" type="line"/>
			<point x="33" y="17" type="line"/>
		</contour>
		<contour>
			<point x="101" y="0" type="curve"/>
			<point x="185" y="0" type="line"/>
			<point x="182" y="47"/>
			<point x="181" y="147"/>
			<point x="181" y="212" type="curve" smooth="yes"/>
			<point x="181" y="357" type="line"/>
			<point x="181" y="360" type="line"/>
			<point x="181" y="457" type="line"/>
			<point x="172" y="465" type="line"/>
			<point x="29" y="420" type="line"/>
			<point x="29" y="405" type="line"/>
			<point x="102" y="388" type="line"/>
			<point x="104" y="347"/>
			<point x="105" y="312"/>
			<point x="105" y="255" type="curve" smooth="yes"/>
			<point x="105" y="212" type="line" smooth="yes"/>
			<point x="105" y="147"/>
			<point x="104" y="47"/>
		</contour>
		<contour>
			<point x="309" y="-257" type="curve" smooth="yes"/>
			<point x="349" y="-257"/>
			<point x="383" y="-242"/>
			<point x="413" y="-210" type="curve" smooth="yes"/>
			<point x="455" y="-165"/>
			<point x="467" y="-102"/>
			<point x="467" y="31" type="curve" smooth="yes"/>
			<point x="467" y="307" type="line" smooth="yes"/>
			<point x="467" y="423"/>
			<point x="425" y="465"/>
			<point x="349" y="465" type="curve" smooth="yes"/>
			<point x="276" y="465"/>
			<point x="210" y="412"/>
			<point x="169" y="356" type="curve"/>
			<point x="165" y="356" type="line"/>
			<point x="172" y="341" type="line"/>
			<point x="220" y="386"/>
			<point x="264" y="412"/>
			<point x="311" y="412" type="curve" smooth="yes"/>
			<point x="367" y="412"/>
			<point x="389" y="390"/>
			<point x="389" y="307" type="curve" smooth="yes"/>
			<point x="389" y="41" type="line" smooth="yes"/>
			<point x="389" y="-81"/>
			<point x="394" y="-158"/>
			<point x="374" y="-205" type="curve" smooth="yes"/>
			<point x="366" y="-223"/>
			<point x="360" y="-231"/>
			<point x="349" y="-234" type="curve"/>
			<point x="349" y="-240" type="line"/>
			<point x="371" y="-240" type="line"/>
			<point x="371" y="-234" type="line"/>
			<point x="339" y="-203" type="line" smooth="yes"/>
			<point x="320" y="-183"/>
			<point x="302" y="-175"/>
			<point x="279" y="-175" type="curve" smooth="yes"/>
			<point x="251" y="-175"/>
			<point x="230" y="-189"/>
			<point x="228" y="-213" type="curve"/>
			<point x="238" y="-242"/>
			<point x="268" y="-257"/>
		</contour>
	</outline>
</glyph>
<glyph name="eogonek" format="2">
	<advance width="459"/>
	<outline>
		<contour>
			<point x="278" y="-230" type="curve" smooth="yes"/>
			<point x="317" y="-230"/>
			<point x="346" y="-214"/>
			<point x="373" y="-184" type="curve"/>
			<point x="367" y="-171" type="line"/>
			<point x="346" y="-180"/>
			<point x="325" y="-183"/>
			<point x="308" y="-183" type="curve" smooth="yes"/>
			<point x="272" y="-183"/>
			<point x="250" y="-161"/>
			<point x="250" y="-116" type="curve" smooth="yes"/>
			<point x="250" y="-64"/>
			<point x="296" y="-17"/>
			<point x="337" y="8" type="curve" smooth="yes"/>
			<point x="370" y="29"/>
			<point x="398" y="56"/>
			<point x="417" y="99" type="curve"/>
			<point x="403" y="108" type="line"/>
			<point x="372" y="67"/>
			<point x="330" y="40"/>
			<point x="272" y="40" type="curve" smooth="yes"/>
			<point x="185" y="40"/>
			<point x="121" y="113"/>
			<point x="121" y="235" type="curve" smooth="yes"/>
			<point x="121" y="385"/>
			<point x="183" y="443"/>
			<point x="245" y="443" type="curve" smooth="yes"/>
			<point x="305" y="443"/>
			<point x="343" y="396"/>
			<point x="343" y="321" type="curve" smooth="yes"/>
			<point x="343" y="284"/>
			<point x="329" y="269"/>
			<point x="290" y="269" type="curve" smooth="yes"/>
			<point x="71" y="269" type="line"/>
			<point x="71" y="246" type="line"/>
			<point x="407" y="246" type="line"/>
			<point x="411" y="259"/>
			<point x="413" y="274"/>
			<point x="413" y="296" type="curve" smooth="yes"/>
			<point x="413" y="400"/>
			<point x="340" y="465"/>
			<point x="245" y="465" type="curve" smooth="yes"/>
			<point x="136" y="465"/>
			<point x="41" y="368"/>
			<point x="41" y="217" type="curve" smooth="yes"/>
			<point x="41" y="73"/>
			<point x="132" y="-12"/>
			<point x="248" y="-12" type="curve" smooth="yes"/>
			<point x="266" y="-12"/>
			<point x="286" y="-9"/>
			<point x="302" y="-5" type="curve"/>
			<point x="320" y="8" type="line"/>
			<point x="263" y="-17"/>
			<point x="192" y="-67"/>
			<point x="192" y="-143" type="curve" smooth="yes"/>
			<point x="192" y="-194"/>
			<point x="226" y="-230"/>
		</contour>
	</outline>
	<anchor name="aboveLC" x="246" y="473"/>
</glyph>
<glyph name="eth" format="2">
	<advance width="505"/>
	<outline>
		<contour>
			<point x="253" y="-12" type="curve" smooth="yes"/>
			<point x="389" y="-12"/>
			<point x="463" y="99"/>
			<point x="463" y="279" type="curve" smooth="yes"/>
			<point x="463" y="513"/>
			<point x="342" y="668"/>
			<point x="160" y="752" type="curve"/>
			<point x="148" y="736" type="line"/>
			<point x="289" y="645"/>
			<point x="351" y="551"/>
			<point x="387" y="381" type="curve"/>
			<point x="394" y="373" type="line"/>
			<point x="372" y="433"/>
			<point x="322" y="465"/>
			<point x="253" y="465" type="curve" smooth="yes"/>
			<point x="139" y="465"/>
			<point x="43" y="379"/>
			<point x="43" y="225" type="curve" smooth="yes"/>
			<point x="43" y="70"/>
			<point x="138" y="-12"/>
		</contour>
		<contour>
			<point x="253" y="9" type="curve" smooth="yes"/>
			<point x="174" y="9"/>
			<point x="125" y="82"/>
			<point x="125" y="225" type="curve" smooth="yes"/>
			<point x="125" y="368"/>
			<point x="174" y="444"/>
			<point x="253" y="444" type="curve" smooth="yes"/>
			<point x="331" y="444"/>
			<point x="379" y="371"/>
			<point x="379" y="228" type="curve" smooth="yes"/>
			<point x="379" y="85"/>
			<point x="331" y="9"/>
		</contour>
		<contour>
			<point x="147" y="536" type="line"/>
			<point x="464" y="706" type="line"/>
			<point x="454" y="727" type="line"/>
			<point x="137" y="556" type="line"/>
		</contour>
	</outline>
</glyph>
<glyph name="exclam" format="2">
	<advance width="267"/>
	<outline>
		<contour>
			<point x="134" y="-7" type="curve" smooth="yes"/>
			<point x="164" y="-7"/>
			<point x="191" y="15"/>
			<point x="191" y="50" type="curve" smooth="yes"/>
			<point x="191" y="83"/>
			<point x="164" y="106"/>
			<point x="134" y="106" type="curve" smooth="yes"/>
			<point x="102" y="106"/>
			<point x="77" y="83"/>
			<point x="77" y="50" type="curve" smooth="yes"/>
			<point x="77" y="15"/>
			<point x="102" y="-7"/>
		</contour>
		<contour>
			<point x="134" y="684" type="curve" smooth="yes"/>
			<point x="100" y="684"/>
			<point x="81" y="666"/>
			<point x="81" y="619" type="curve" smooth="yes"/>
			<point x="81" y="582"/>
			<point x="94" y="488"/>
			<point x="108" y="349" type="curve" smooth="yes"/>
			<point x="121" y="216" type="line"/>
			<point x="145" y="216" type="line"/>
			<point x="160" y="349" type="line" smooth="yes"/>
			<point x="173" y="488"/>
			<point x="186" y="582"/>
			<point x="186" y="619" type="curve" smooth="yes"/>
			<point x="186" y="666"/>
			<point x="167" y="684"/>
		</contour>
	</outline>
</glyph>
<glyph name="f" format="2">
	<advance width="320"/>
	<outline>
		<contour>
			<point x="33" y="0" type="line"/>
			<point x="273" y="0" type="line"/>
			<point x="273" y="17" type="line"/>
			<point x="163" y="29" type="line"/>
			<point x="128" y="29" type="line"/>
			<point x="33" y="17" type="line"/>
		</contour>
		<contour>
			<point x="101" y="0" type="curve"/>
			<point x="185" y="0" type="line"/>
			<point x="182" y="47"/>
			<point x="181" y="147"/>
			<point x="181" y="212" type="curve" smooth="yes"/>
			<point x="181" y="444" type="line"/>
			<point x="176" y="570"/>
			<point x="194" y="645"/>
			<point x="224" y="693" type="curve" smooth="yes"/>
			<point x="246" y="726"/>
			<point x="270" y="731"/>
			<point x="291" y="732" type="curve"/>
			<point x="291" y="736" type="line"/>
			<point x="246" y="736" type="line"/>
			<point x="246" y="732" type="line"/>
			<point x="280" y="702" type="line" smooth="yes"/>
			<point x="306" y="677"/>
			<point x="324" y="668"/>
			<point x="349" y="668" type="curve" smooth="yes"/>
			<point x="375" y="668"/>
			<point x="396" y="682"/>
			<point x="398" y="706" type="curve"/>
			<point x="389" y="736"/>
			<point x="350" y="752"/>
			<point x="313" y="752" type="curve" smooth="yes"/>
			<point x="271" y="752"/>
			<point x="228" y="738"/>
			<point x="195" y="707" type="curve" smooth="yes"/>
			<point x="142" y="655"/>
			<point x="111" y="586"/>
			<point x="106" y="456" type="curve"/>
			<point x="105" y="431" type="line"/>
			<point x="126" y="461" type="line"/>
			<point x="29" y="445" type="line"/>
			<point x="29" y="428" type="line"/>
			<point x="105" y="428" type="line"/>
			<point x="105" y="212" type="line" smooth="yes"/>
			<point x="105" y="147"/>
			<point x="104" y="47"/>
		</contour>
		<contour>
			<point x="141" y="428" type="line"/>
			<point x="302" y="428" type="line"/>
			<point x="302" y="453" type="line"/>
			<point x="141" y="453" type="line"/>
		</contour>
	</outline>
	<anchor name="aboveLC" x="281" y="742"/>
	<anchor name="belowLC" x="148" y="-20"/>
</glyph>
<glyph name="f_i" format="2">
	<advance width="559"/>
	<outline>
		<contour>
			<point x="35" y="0" type="line"/>
			<point x="250" y="0" type="line"/>
			<point x="250" y="17" type="line"/>
			<point x="157" y="29" type="line"/>
			<point x="126" y="29" type="line"/>
			<point x="35" y="17" type="line"/>
		</contour>
		<contour>
			<point x="101" y="0" type="curve"/>
			<point x="185" y="0" type="line"/>
			<point x="182" y="47"/>
			<point x="181" y="147"/>
			<point x="181" y="212" type="curve" smooth="yes"/>
			<point x="181" y="444" type="line"/>
			<point x="180" y="531"/>
			<point x="189" y="616"/>
			<point x="224" y="670" type="curve" smooth="yes"/>
			<point x="251" y="711"/>
			<point x="294" y="736"/>
			<point x="358" y="736" type="curve"/>
			<point x="358" y="740" type="line"/>
			<point x="313" y="740" type="line"/>
			<point x="313" y="736" type="line"/>
			<point x="342" y="705" type="line" smooth="yes"/>
			<point x="368" y="677"/>
			<point x="384" y="666"/>
			<point x="407" y="666" type="curve" smooth="yes"/>
			<point x="435" y="666"/>
			<point x="453" y="681"/>
			<point x="455" y="705" type="curve"/>
			<point x="445" y="736"/>
			<point x="406" y="752"/>
			<point x="353" y="752" type="curve" smooth="yes"/>
			<point x="282" y="752"/>
			<point x="232" y="727"/>
			<point x="192" y="684" type="curve" smooth="yes"/>
			<point x="134" y="623"/>
			<point x="108" y="523"/>
			<point x="105" y="431" type="curve"/>
			<point x="126" y="461" type="line"/>
			<point x="29" y="445" type="line"/>
			<point x="29" y="428" type="line"/>
			<point x="105" y="428" type="line"/>
			<point x="105" y="212" type="line" smooth="yes"/>
			<point x="105" y="147"/>
			<point x="104" y="47"/>
		</contour>
		<contour>
			<point x="319" y="0" type="line"/>
			<point x="533" y="0" type="line"/>
			<point x="533" y="17" type="line"/>
			<point x="439" y="29" type="line"/>
			<point x="413" y="29" type="line"/>
			<point x="319" y="17" type="line"/>
		</contour>
		<contour>
			<point x="385" y="0" type="curve"/>
			<point x="471" y="0" type="line"/>
			<point x="467" y="47"/>
			<point x="467" y="147"/>
			<point x="467" y="212" type="curve" smooth="yes"/>
			<point x="467" y="330" type="line"/>
			<point x="471" y="457" type="line"/>
			<point x="461" y="465" type="line"/>
			<point x="421" y="453" type="line"/>
			<point x="141" y="453" type="line"/>
			<point x="141" y="428" type="line"/>
			<point x="387" y="428" type="line"/>
			<point x="389" y="387"/>
			<point x="389" y="312"/>
			<point x="389" y="255" type="curve" smooth="yes"/>
			<point x="389" y="212" type="line" smooth="yes"/>
			<point x="389" y="147"/>
			<point x="389" y="47"/>
		</contour>
	</outline>
</glyph>
<glyph name="f_j" format="2">
	<advance width="548"/>
	<outline>
		<contour>
			<point x="35" y="0" type="line"/>
			<point x="250" y="0" type="line"/>
			<point x="250" y="17" type="line"/>
			<point x="157" y="29" type="line"/>
			<point x="126" y="29" type="line"/>
			<point x="35" y="17" type="line"/>
		</contour>
		<contour>
			<point x="101" y="0" type="curve"/>
			<point x="185" y="0" type="line"/>
			<point x="182" y="47"/>
			<point x="181" y="147"/>
			<point x="181" y="212" type="curve" smooth="yes"/>
			<point x="181" y="444" type="line"/>
			<point x="180" y="531"/>
			<point x="189" y="616"/>
			<point x="224" y="670" type="curve" smooth="yes"/>
			<point x="251" y="711"/>
			<point x="294" y="736"/>
			<point x="358" y="736" type="curve"/>
			<point x="358" y="740" type="line"/>
			<point x="313" y="740" type="line"/>
			<point x="313" y="736" type="line"/>
			<point x="342" y="705" type="line" smooth="yes"/>
			<point x="368" y="677"/>
			<point x="384" y="666"/>
			<point x="407" y="666" type="curve" smooth="yes"/>
			<point x="435" y="666"/>
			<point x="453" y="681"/>
			<point x="455" y="705" type="curve"/>
			<point x="445" y="736"/>
			<point x="406" y="752"/>
			<point x="353" y="752" type="curve" smooth="yes"/>
			<point x="282" y="752"/>
			<point x="232" y="727"/>
			<point x="192" y="684" type="curve" smooth="yes"/>
			<point x="134" y="623"/>
			<point x="108" y="523"/>
			<point x="105" y="431" type="curve"/>
			<point x="126" y="461" type="line"/>
			<point x="29" y="445" type="line"/>
			<point x="29" y="428" type="line"/>
			<point x="105" y="428" type="line"/>
			<point x="105" y="212" type="line" smooth="yes"/>
			<point x="105" y="147"/>
			<point x="104" y="47"/>
		</contour>
		<contour>
			<point x="308" y="-257" type="curve" smooth="yes"/>
			<point x="348" y="-257"/>
			<point x="382" y="-242"/>
			<point x="413" y="-210" type="curve" smooth="yes"/>
			<point x="455" y="-165"/>
			<point x="466" y="-102"/>
			<point x="466" y="31" type="curve" smooth="yes"/>
			<point x="466" y="330" type="line"/>
			<point x="470" y="457" type="line"/>
			<point x="461" y="465" type="line"/>
			<point x="421" y="453" type="line"/>
			<point x="141" y="453" type="line"/>
			<point x="141" y="428" type="line"/>
			<point x="387" y="428" type="line"/>
			<point x="388" y="386"/>
			<point x="389" y="353"/>
			<point x="389" y="295" type="curve" smooth="yes"/>
			<point x="389" y="41" type="line" smooth="yes"/>
			<point x="389" y="-81"/>
			<point x="393" y="-158"/>
			<point x="372" y="-209" type="curve" smooth="yes"/>
			<point x="365" y="-223"/>
			<point x="360" y="-229"/>
			<point x="351" y="-233" type="curve"/>
			<point x="351" y="-240" type="line"/>
			<point x="369" y="-240" type="line"/>
			<point x="369" y="-233" type="line"/>
			<point x="338" y="-203" type="line" smooth="yes"/>
			<point x="320" y="-182"/>
			<point x="301" y="-175"/>
			<point x="278" y="-175" type="curve" smooth="yes"/>
			<point x="251" y="-175"/>
			<point x="230" y="-189"/>
			<point x="227" y="-213" type="curve"/>
			<point x="237" y="-242"/>
			<point x="267" y="-257"/>
		</contour>
	</outline>
</glyph>
<glyph name="f_l" format="2">
	<advance width="562"/>
	<outline>
		<contour>
			<point x="35" y="0" type="line"/>
			<point x="250" y="0" type="line"/>
			<point x="250" y="17" type="line"/>
			<point x="157" y="29" type="line"/>
			<point x="126" y="29" type="line"/>
			<point x="35" y="17" type="line"/>
		</contour>
		<contour>
			<point x="101" y="0" type="curve"/>
			<point x="185" y="0" type="line"/>
			<point x="182" y="47"/>
			<point x="181" y="147"/>
			<point x="181" y="212" type="curve" smooth="yes"/>
			<point x="181" y="444" type="line"/>
			<point x="178" y="538"/>
			<point x="190" y="653"/>
			<point x="249" y="706" type="curve" smooth="yes"/>
			<point x="266" y="723"/>
			<point x="285" y="730"/>
			<point x="320" y="731" type="curve"/>
			<point x="320" y="736" type="line"/>
			<point x="267" y="736" type="line"/>
			<point x="267" y="729" type="line"/>
			<point x="297" y="702" type="line" smooth="yes"/>
			<point x="324" y="677"/>
			<point x="341" y="668"/>
			<point x="366" y="668" type="curve" smooth="yes"/>
			<point x="393" y="668"/>
			<point x="414" y="682"/>
			<point x="416" y="706" type="curve"/>
			<point x="406" y="736"/>
			<point x="364" y="752"/>
			<point x="326" y="752" type="curve" smooth="yes"/>
			<point x="285" y="752"/>
			<point x="242" y="743"/>
			<point x="205" y="710" type="curve" smooth="yes"/>
			<point x="152" y="663"/>
			<point x="110" y="578"/>
			<point x="105" y="431" type="curve"/>
			<point x="126" y="461" type="line"/>
			<point x="29" y="445" type="line"/>
			<point x="29" y="428" type="line"/>
			<point x="105" y="428" type="line"/>
			<point x="105" y="212" type="line" smooth="yes"/>
			<point x="105" y="147"/>
			<point x="104" y="47"/>
		</contour>
		<contour>
			<point x="141" y="428" type="line"/>
			<point x="299" y="428" type="line"/>
			<point x="299" y="453" type="line"/>
			<point x="141" y="453" type="line"/>
		</contour>
		<contour>
			<point x="322" y="0" type="line"/>
			<point x="535" y="0" type="line"/>
			<point x="535" y="17" type="line"/>
			<point x="441" y="29" type="line"/>
			<point x="415" y="29" type="line"/>
			<point x="322" y="17" type="line"/>
		</contour>
		<contour>
			<point x="388" y="0" type="curve"/>
			<point x="472" y="0" type="line"/>
			<point x="469" y="47"/>
			<point x="468" y="147"/>
			<point x="468" y="212" type="curve" smooth="yes"/>
			<point x="468" y="537" type="line"/>
			<point x="472" y="734" type="line"/>
			<point x="463" y="742" type="line"/>
			<point x="392" y="724" type="line"/>
			<point x="392" y="212" type="line" smooth="yes"/>
			<point x="392" y="147"/>
			<point x="391" y="47"/>
		</contour>
	</outline>
</glyph>
<glyph name="f_t" format="2">
	<advance width="589"/>
	<outline>
		<contour>
			<point x="410" y="428" type="line"/>
			<point x="565" y="428" type="line"/>
			<point x="565" y="453" type="line"/>
			<point x="410" y="453" type="line"/>
		</contour>
		<contour>
			<point x="473" y="-12" type="curve" smooth="yes"/>
			<point x="527" y="-12"/>
			<point x="557" y="11"/>
			<point x="578" y="51" type="curve"/>
			<point x="566" y="61" type="line"/>
			<point x="548" y="40"/>
			<point x="526" y="28"/>
			<point x="499" y="28" type="curve" smooth="yes"/>
			<point x="465" y="28"/>
			<point x="443" y="48"/>
			<point x="443" y="99" type="curve" smooth="yes"/>
			<point x="443" y="436" type="line"/>
			<point x="443" y="441" type="line"/>
			<point x="447" y="605" type="line"/>
			<point x="423" y="605" type="line"/>
			<point x="366" y="441" type="line"/>
			<point x="402" y="453" type="line"/>
			<point x="277" y="453" type="line"/>
			<point x="277" y="428" type="line"/>
			<point x="368" y="428" type="line"/>
			<point x="366" y="203" type="line" smooth="yes"/>
			<point x="366" y="157"/>
			<point x="366" y="130"/>
			<point x="366" y="92" type="curve" smooth="yes"/>
			<point x="366" y="22"/>
			<point x="407" y="-12"/>
		</contour>
		<component base="f"/>
	</outline>
</glyph>
<glyph name="five.lf" format="2">
	<advance width="479"/>
	<outline>
		<contour>
			<point x="213" y="-12" type="curve" smooth="yes"/>
			<point x="347" y="-12"/>
			<point x="437" y="69"/>
			<point x="437" y="192" type="curve" smooth="yes"/>
			<point x="437" y="317"/>
			<point x="353" y="385"/>
			<point x="231" y="385" type="curve" smooth="yes"/>
			<point x="182" y="385"/>
			<point x="139" y="377"/>
			<point x="94" y="356" type="curve"/>
			<point x="110" y="345" type="line"/>
			<point x="127" y="609" type="line"/>
			<point x="118" y="574" type="line"/>
			<point x="421" y="574" type="line"/>
			<point x="421" y="645" type="line"/>
			<point x="107" y="645" type="line"/>
			<point x="87" y="340" type="line"/>
			<point x="100" y="332" type="line"/>
			<point x="137" y="350"/>
			<point x="174" y="356"/>
			<point x="207" y="356" type="curve" smooth="yes"/>
			<point x="304" y="356"/>
			<point x="353" y="276"/>
			<point x="353" y="190" type="curve" smooth="yes"/>
			<point x="353" y="97"/>
			<point x="304" y="9"/>
			<point x="206" y="9" type="curve" smooth="yes"/>
			<point x="178" y="9"/>
			<point x="147" y="13"/>
			<point x="116" y="32" type="curve"/>
			<point x="148" y="4" type="line"/>
			<point x="128" y="89" type="line" smooth="yes"/>
			<point x="118" y="133"/>
			<point x="104" y="152"/>
			<point x="78" y="152" type="curve" smooth="yes"/>
			<point x="59" y="152"/>
			<point x="45" y="144"/>
			<point x="38" y="123" type="curve"/>
			<point x="50" y="33"/>
			<point x="115" y="-12"/>
		</contour>
	</outline>
</glyph>
<glyph name="four.cap" format="2">
	<advance width="479"/>
	<outline>
		<contour>
			<point x="283" y="-14" type="line"/>
			<point x="357" y="-14" type="line"/>
			<point x="357" y="679" type="line"/>
			<point x="304" y="679" type="line"/>
			<point x="28" y="229" type="line"/>
			<point x="28" y="169" type="line"/>
			<point x="455" y="169" type="line"/>
			<point x="455" y="237" type="line"/>
			<point x="55" y="237" type="line"/>
			<point x="55" y="248" type="line"/>
			<point x="47" y="218" type="line"/>
			<point x="169" y="422" type="line"/>
			<point x="292" y="624" type="line"/>
			<point x="273" y="617" type="line"/>
			<point x="283" y="617" type="line"/>
			<point x="283" y="218" type="line"/>
			<point x="283" y="198" type="line"/>
		</contour>
	</outline>
</glyph>
<glyph name="four.lf" format="2">
	<advance width="479"/>
	<outline>
		<contour>
			<point x="283" y="-14" type="line"/>
			<point x="357" y="-14" type="line"/>
			<point x="357" y="652" type="line"/>
			<point x="303" y="652" type="line"/>
			<point x="28" y="217" type="line"/>
			<point x="28" y="159" type="line"/>
			<point x="455" y="159" type="line"/>
			<point x="455" y="227" type="line"/>
			<point x="55" y="227" type="line"/>
			<point x="55" y="238" type="line"/>
			<point x="46" y="205" type="line"/>
			<point x="170" y="402" type="line"/>
			<point x="292" y="600" type="line"/>
			<point x="271" y="590" type="line"/>
			<point x="283" y="590" type="line"/>
			<point x="283" y="200" type="line"/>
			<point x="283" y="181" type="line"/>
		</contour>
	</outline>
</glyph>
<glyph name="g" format="2">
	<advance width="481"/>
	<outline>
		<contour>
			<point x="212" y="-257" type="curve" smooth="yes"/>
			<point x="374" y="-257"/>
			<point x="453" y="-170"/>
			<point x="453" y="-78" type="curve" smooth="yes"/>
			<point x="453" y="6"/>
			<point x="400" y="45"/>
			<point x="299" y="45" type="curve" smooth="yes"/>
			<point x="175" y="45" type="line" smooth="yes"/>
			<point x="125" y="45"/>
			<point x="103" y="61"/>
			<point x="103" y="95" type="curve" smooth="yes"/>
			<point x="103" y="119"/>
			<point x="111" y="142"/>
			<point x="139" y="167" type="curve"/>
			<point x="125" y="184" type="line"/>
			<point x="125" y="178" type="line"/>
			<point x="74" y="136"/>
			<point x="47" y="105"/>
			<point x="47" y="61" type="curve" smooth="yes"/>
			<point x="47" y="11"/>
			<point x="82" y="-18"/>
			<point x="133" y="-22" type="curve"/>
			<point x="133" y="-24" type="line"/>
			<point x="147" y="-28"/>
			<point x="165" y="-28"/>
			<point x="176" y="-28" type="curve" smooth="yes"/>
			<point x="284" y="-28" type="line" smooth="yes"/>
			<point x="354" y="-28"/>
			<point x="385" y="-57"/>
			<point x="385" y="-107" type="curve" smooth="yes"/>
			<point x="385" y="-177"/>
			<point x="329" y="-236"/>
			<point x="221" y="-236" type="curve" smooth="yes"/>
			<point x="144" y="-236"/>
			<point x="91" y="-198"/>
			<point x="91" y="-126" type="curve" smooth="yes"/>
			<point x="91" y="-64"/>
			<point x="126" y="-39"/>
			<point x="156" y="-16" type="curve"/>
			<point x="152" y="-11" type="line"/>
			<point x="73" y="-44"/>
			<point x="25" y="-83"/>
			<point x="25" y="-137" type="curve" smooth="yes"/>
			<point x="25" y="-209"/>
			<point x="80" y="-257"/>
		</contour>
		<contour>
			<point x="221" y="143" type="curve" smooth="yes"/>
			<point x="309" y="143"/>
			<point x="389" y="201"/>
			<point x="389" y="305" type="curve" smooth="yes"/>
			<point x="389" y="348"/>
			<point x="377" y="381"/>
			<point x="356" y="407" type="curve"/>
			<point x="352" y="411" type="line"/>
			<point x="322" y="447"/>
			<point x="274" y="465"/>
			<point x="221" y="465" type="curve" smooth="yes"/>
			<point x="134" y="465"/>
			<point x="53" y="407"/>
			<point x="53" y="303" type="curve" smooth="yes"/>
			<point x="53" y="198"/>
			<point x="133" y="143"/>
		</contour>
		<contour>
			<point x="221" y="164" type="curve" smooth="yes"/>
			<point x="166" y="164"/>
			<point x="130" y="209"/>
			<point x="130" y="303" type="curve" smooth="yes"/>
			<point x="130" y="396"/>
			<point x="166" y="445"/>
			<point x="221" y="445" type="curve" smooth="yes"/>
			<point x="276" y="445"/>
			<point x="313" y="399"/>
			<point x="313" y="305" type="curve" smooth="yes"/>
			<point x="313" y="213"/>
			<point x="276" y="164"/>
		</contour>
		<contour>
			<point x="339" y="393" type="line"/>
			<point x="459" y="393" type="line"/>
			<point x="459" y="457" type="line"/>
			<point x="451" y="465" type="line"/>
			<point x="341" y="411" type="line"/>
			<point x="337" y="411" type="line"/>
		</contour>
	</outline>
	<anchor name="aboveLC" x="235" y="473"/>
	<anchor name="belowLC" x="233" y="-276"/>
</glyph>
<glyph name="germandbls" format="2">
	<advance width="581"/>
	<outline>
		<contour>
			<point x="29" y="0" type="line"/>
			<point x="141" y="0" type="line"/>
			<point x="141" y="29" type="line"/>
			<point x="125" y="29" type="line"/>
			<point x="29" y="17" type="line"/>
		</contour>
		<contour>
			<point x="99" y="0" type="curve"/>
			<point x="179" y="0" type="line"/>
			<point x="178" y="70"/>
			<point x="177" y="142"/>
			<point x="177" y="212" type="curve" smooth="yes"/>
			<point x="177" y="461" type="line" smooth="yes"/>
			<point x="177" y="582"/>
			<point x="195" y="658"/>
			<point x="234" y="697" type="curve" smooth="yes"/>
			<point x="259" y="721"/>
			<point x="290" y="731"/>
			<point x="327" y="731" type="curve" smooth="yes"/>
			<point x="384" y="731"/>
			<point x="427" y="693"/>
			<point x="427" y="620" type="curve" smooth="yes"/>
			<point x="427" y="571"/>
			<point x="407" y="540"/>
			<point x="380" y="513" type="curve" smooth="yes"/>
			<point x="339" y="470"/>
			<point x="286" y="431"/>
			<point x="286" y="361" type="curve" smooth="yes"/>
			<point x="286" y="297"/>
			<point x="334" y="265"/>
			<point x="380" y="232" type="curve" smooth="yes"/>
			<point x="428" y="198"/>
			<point x="473" y="166"/>
			<point x="473" y="109" type="curve" smooth="yes"/>
			<point x="473" y="41"/>
			<point x="430" y="7"/>
			<point x="369" y="7" type="curve" smooth="yes"/>
			<point x="343" y="7"/>
			<point x="308" y="12"/>
			<point x="263" y="40" type="curve"/>
			<point x="306" y="10" type="line"/>
			<point x="263" y="146" type="line"/>
			<point x="249" y="146" type="line"/>
			<point x="242" y="20" type="line"/>
			<point x="284" y="-2"/>
			<point x="331" y="-12"/>
			<point x="370" y="-12" type="curve" smooth="yes"/>
			<point x="474" y="-12"/>
			<point x="542" y="45"/>
			<point x="542" y="133" type="curve" smooth="yes"/>
			<point x="542" y="213"/>
			<point x="482" y="255"/>
			<point x="428" y="293" type="curve" smooth="yes"/>
			<point x="385" y="324"/>
			<point x="345" y="351"/>
			<point x="345" y="395" type="curve" smooth="yes"/>
			<point x="345" y="439"/>
			<point x="377" y="470"/>
			<point x="412" y="499" type="curve" smooth="yes"/>
			<point x="451" y="532"/>
			<point x="494" y="568"/>
			<point x="494" y="626" type="curve" smooth="yes"/>
			<point x="494" y="698"/>
			<point x="437" y="752"/>
			<point x="331" y="752" type="curve" smooth="yes"/>
			<point x="286" y="752"/>
			<point x="244" y="740"/>
			<point x="209" y="717" type="curve" smooth="yes"/>
			<point x="141" y="671"/>
			<point x="101" y="579"/>
			<point x="101" y="460" type="curve" smooth="yes"/>
			<point x="101" y="212" type="line" smooth="yes"/>
			<point x="101" y="142"/>
			<point x="100" y="70"/>
		</contour>
	</outline>
</glyph>
<glyph name="gscript" format="2">
	<advance width="516"/>
	<outline>
		<contour>
			<point x="221" y="-257" type="curve" smooth="yes"/>
			<point x="275" y="-257"/>
			<point x="329" y="-241"/>
			<point x="368" y="-204" type="curve" smooth="yes"/>
			<point x="410" y="-165"/>
			<point x="437" y="-104"/>
			<point x="437" y="-15" type="curve"/>
			<point x="437" y="255" type="line"/>
			<point x="441" y="457" type="line"/>
			<point x="431" y="463" type="line"/>
			<point x="361" y="384" type="line"/>
			<point x="361" y="381" type="line"/>
			<point x="361" y="88" type="line"/>
			<point x="361" y="83" type="line"/>
			<point x="361" y="44"/>
			<point x="361" y="6"/>
			<point x="361" y="-33" type="curve" smooth="yes"/>
			<point x="361" y="-98"/>
			<point x="349" y="-149"/>
			<point x="324" y="-183" type="curve" smooth="yes"/>
			<point x="300" y="-217"/>
			<point x="266" y="-234"/>
			<point x="219" y="-234" type="curve" smooth="yes"/>
			<point x="184" y="-234"/>
			<point x="156" y="-226"/>
			<point x="130" y="-209" type="curve"/>
			<point x="159" y="-235" type="line"/>
			<point x="141" y="-156" type="line" smooth="yes"/>
			<point x="135" y="-124"/>
			<point x="117" y="-109"/>
			<point x="93" y="-109" type="curve" smooth="yes"/>
			<point x="69" y="-109"/>
			<point x="58" y="-121"/>
			<point x="55" y="-145" type="curve"/>
			<point x="65" y="-210"/>
			<point x="138" y="-257"/>
		</contour>
		<contour>
			<point x="222" y="-12" type="curve" smooth="yes"/>
			<point x="290" y="-12"/>
			<point x="341" y="32"/>
			<point x="371" y="90" type="curve"/>
			<point x="383" y="90" type="line"/>
			<point x="377" y="117" type="line"/>
			<point x="342" y="65"/>
			<point x="302" y="29"/>
			<point x="251" y="29" type="curve" smooth="yes"/>
			<point x="177" y="29"/>
			<point x="123" y="87"/>
			<point x="123" y="220" type="curve" smooth="yes"/>
			<point x="123" y="357"/>
			<point x="181" y="423"/>
			<point x="251" y="423" type="curve" smooth="yes"/>
			<point x="303" y="423"/>
			<point x="333" y="404"/>
			<point x="381" y="348" type="curve"/>
			<point x="389" y="371" type="line"/>
			<point x="375" y="371" type="line"/>
			<point x="338" y="439"/>
			<point x="289" y="465"/>
			<point x="235" y="465" type="curve" smooth="yes"/>
			<point x="130" y="465"/>
			<point x="43" y="374"/>
			<point x="43" y="216" type="curve" smooth="yes"/>
			<point x="43" y="64"/>
			<point x="124" y="-12"/>
		</contour>
	</outline>
	<anchor name="aboveLC" x="259" y="473"/>
	<anchor name="belowLC" x="246" y="-277"/>
</glyph>
<glyph name="guilsinglleft" format="2">
	<advance width="265"/>
	<outline>
		<contour>
			<point x="231" y="37" type="line"/>
			<point x="243" y="49" type="line"/>
			<point x="75" y="261" type="line"/>
			<point x="75" y="217" type="line"/>
			<point x="243" y="429" type="line"/>
			<point x="231" y="441" type="line"/>
			<point x="27" y="254" type="line"/>
			<point x="27" y="222" type="line"/>
		</contour>
	</outline>
</glyph>
<glyph name="hbar" format="2">
	<advance width="559"/>
	<outline>
		<contour>
			<point x="101" y="0" type="curve"/>
			<point x="185" y="0" type="line"/>
			<point x="182" y="47"/>
			<point x="181" y="147"/>
			<point x="181" y="212" type="curve" smooth="yes"/>
			<point x="181" y="338" type="line"/>
			<point x="181" y="343" type="line"/>
			<point x="181" y="537" type="line"/>
			<point x="185" y="734" type="line"/>
			<point x="176" y="742" type="line"/>
			<point x="29" y="705" type="line"/>
			<point x="29" y="690" type="line"/>
			<point x="105" y="673" type="line"/>
			<point x="105" y="212" type="line" smooth="yes"/>
			<point x="105" y="147"/>
			<point x="104" y="47"/>
		</contour>
		<contour>
			<point x="33" y="0" type="line"/>
			<point x="248" y="0" type="line"/>
			<point x="248" y="17" type="line"/>
			<point x="155" y="29" type="line"/>
			<point x="128" y="29" type="line"/>
			<point x="33" y="17" type="line"/>
		</contour>
		<contour>
			<point x="319" y="0" type="line"/>
			<point x="533" y="0" type="line"/>
			<point x="533" y="17" type="line"/>
			<point x="439" y="29" type="line"/>
			<point x="413" y="29" type="line"/>
			<point x="319" y="17" type="line"/>
		</contour>
		<contour>
			<point x="29" y="554" type="line"/>
			<point x="361" y="554" type="line"/>
			<point x="361" y="576" type="line"/>
			<point x="29" y="576" type="line"/>
		</contour>
		<contour>
			<point x="385" y="0" type="curve"/>
			<point x="471" y="0" type="line"/>
			<point x="467" y="47"/>
			<point x="467" y="147"/>
			<point x="467" y="212" type="curve" smooth="yes"/>
			<point x="467" y="291" type="line" smooth="yes"/>
			<point x="467" y="407"/>
			<point x="425" y="449"/>
			<point x="349" y="449" type="curve" smooth="yes"/>
			<point x="276" y="449"/>
			<point x="210" y="396"/>
			<point x="169" y="340" type="curve"/>
			<point x="165" y="340" type="line"/>
			<point x="172" y="325" type="line"/>
			<point x="220" y="370"/>
			<point x="264" y="396"/>
			<point x="311" y="396" type="curve" smooth="yes"/>
			<point x="367" y="396"/>
			<point x="389" y="374"/>
			<point x="389" y="291" type="curve" smooth="yes"/>
			<point x="389" y="212" type="line" smooth="yes"/>
			<point x="389" y="147"/>
			<point x="389" y="47"/>
		</contour>
	</outline>
</glyph>
<glyph name="j" format="2">
	<advance width="264"/>
	<outline>
		<contour>
			<point x="24" y="-257" type="curve" smooth="yes"/>
			<point x="64" y="-257"/>
			<point x="98" y="-242"/>
			<point x="129" y="-210" type="curve" smooth="yes"/>
			<point x="170" y="-165"/>
			<point x="181" y="-102"/>
			<point x="181" y="31" type="curve" smooth="yes"/>
			<point x="181" y="330" type="line"/>
			<point x="185" y="457" type="line"/>
			<point x="176" y="465" type="line"/>
			<point x="29" y="420" type="line"/>
			<point x="29" y="405" type="line"/>
			<point x="102" y="388" type="line"/>
			<point x="104" y="347"/>
			<point x="105" y="314"/>
			<point x="105" y="256" type="curve" smooth="yes"/>
			<point x="105" y="41" type="line" smooth="yes"/>
			<point x="105" y="-81"/>
			<point x="109" y="-158"/>
			<point x="87" y="-209" type="curve" smooth="yes"/>
			<point x="81" y="-223"/>
			<point x="76" y="-229"/>
			<point x="67" y="-233" type="curve"/>
			<point x="67" y="-240" type="line"/>
			<point x="85" y="-240" type="line"/>
			<point x="85" y="-233" type="line"/>
			<point x="54" y="-203" type="line" smooth="yes"/>
			<point x="36" y="-182"/>
			<point x="17" y="-175"/>
			<point x="-6" y="-175" type="curve" smooth="yes"/>
			<point x="-34" y="-175"/>
			<point x="-55" y="-189"/>
			<point x="-57" y="-213" type="curve"/>
			<point x="-48" y="-242"/>
			<point x="-18" y="-257"/>
		</contour>
		<contour>
			<point x="142" y="566" type="curve" smooth="yes"/>
			<point x="172" y="566"/>
			<point x="197" y="587"/>
			<point x="197" y="621" type="curve" smooth="yes"/>
			<point x="197" y="654"/>
			<point x="172" y="676"/>
			<point x="142" y="676" type="curve" smooth="yes"/>
			<point x="112" y="676"/>
			<point x="87" y="654"/>
			<point x="87" y="621" type="curve" smooth="yes"/>
			<point x="87" y="587"/>
			<point x="112" y="566"/>
		</contour>
	</outline>
	<anchor name="aboveLC" x="142" y="676"/>
	<anchor name="belowLC" x="81" y="-267"/>
</glyph>
<glyph name="k" format="2">
	<advance width="512"/>
	<outline>
		<contour>
			<point x="33" y="0" type="line"/>
			<point x="248" y="0" type="line"/>
			<point x="248" y="17" type="line"/>
			<point x="155" y="29" type="line"/>
			<point x="128" y="29" type="line"/>
			<point x="33" y="17" type="line"/>
		</contour>
		<contour>
			<point x="101" y="0" type="curve"/>
			<point x="185" y="0" type="line"/>
			<point x="182" y="47"/>
			<point x="181" y="147"/>
			<point x="181" y="212" type="curve" smooth="yes"/>
			<point x="181" y="537" type="line"/>
			<point x="185" y="734" type="line"/>
			<point x="176" y="742" type="line"/>
			<point x="29" y="705" type="line"/>
			<point x="29" y="690" type="line"/>
			<point x="105" y="673" type="line"/>
			<point x="105" y="212" type="line" smooth="yes"/>
			<point x="105" y="147"/>
			<point x="104" y="47"/>
		</contour>
		<contour>
			<point x="144" y="139" type="line"/>
			<point x="431" y="453" type="line"/>
			<point x="397" y="453" type="line"/>
			<point x="274" y="316" type="line"/>
			<point x="150" y="177" type="line"/>
			<point x="144" y="177" type="line"/>
		</contour>
		<contour>
			<point x="374" y="0" type="line"/>
			<point x="505" y="0" type="line"/>
			<point x="505" y="17" type="line"/>
			<point x="450" y="25" type="line"/>
			<point x="287" y="304" type="line"/>
			<point x="231" y="251" type="line"/>
		</contour>
		<contour>
			<point x="285" y="436" type="line"/>
			<point x="379" y="424" type="line"/>
			<point x="397" y="424" type="line"/>
			<point x="481" y="436" type="line"/>
			<point x="481" y="453" type="line"/>
			<point x="285" y="453" type="line"/>
		</contour>
	</outline>
	<anchor name="aboveLC" x="148" y="742"/>
	<anchor name="belowLC" x="277" y="-20"/>
</glyph>
<glyph name="kgreenlandic" format="2">
	<advance width="512"/>
	<outline>
		<contour>
			<point x="33" y="0" type="line"/>
			<point x="248" y="0" type="line"/>
			<point x="248" y="17" type="line"/>
			<point x="155" y="29" type="line"/>
			<point x="128" y="29" type="line"/>
			<point x="33" y="17" type="line"/>
		</contour>
		<contour>
			<point x="101" y="0" type="curve"/>
			<point x="185" y="0" type="line"/>
			<point x="182" y="47"/>
			<point x="181" y="147"/>
			<point x="181" y="212" type="curve" smooth="yes"/>
			<point x="181" y="330" type="line"/>
			<point x="185" y="457" type="line"/>
			<point x="176" y="465" type="line"/>
			<point x="29" y="420" type="line"/>
			<point x="29" y="405" type="line"/>
			<point x="102" y="388" type="line"/>
			<point x="104" y="347"/>
			<point x="105" y="312"/>
			<point x="105" y="255" type="curve" smooth="yes"/>
			<point x="105" y="212" type="line" smooth="yes"/>
			<point x="105" y="147"/>
			<point x="104" y="47"/>
		</contour>
		<contour>
			<point x="144" y="139" type="line"/>
			<point x="431" y="453" type="line"/>
			<point x="397" y="453" type="line"/>
			<point x="274" y="316" type="line"/>
			<point x="150" y="177" type="line"/>
			<point x="144" y="177" type="line"/>
		</contour>
		<contour>
			<point x="374" y="0" type="line"/>
			<point x="505" y="0" type="line"/>
			<point x="505" y="17" type="line"/>
			<point x="420" y="30" type="line"/>
			<point x="457" y="14" type="line"/>
			<point x="287" y="304" type="line"/>
			<point x="231" y="251" type="line"/>
		</contour>
		<contour>
			<point x="379" y="424" type="line"/>
			<point x="397" y="424" type="line"/>
			<point x="481" y="436" type="line"/>
			<point x="481" y="453" type="line"/>
			<point x="285" y="453" type="line"/>
			<point x="285" y="436" type="line"/>
		</contour>
	</outline>
</glyph>
<glyph name="l" format="2">
	<advance width="275"/>
	<outline>
		<contour>
			<point x="33" y="0" type="line"/>
			<point x="248" y="0" type="line"/>
			<point x="248" y="17" type="line"/>
			<point x="155" y="29" type="line"/>
			<point x="128" y="29" type="line"/>
			<point x="33" y="17" type="line"/>
		</contour>
		<contour>
			<point x="101" y="0" type="curve"/>
			<point x="185" y="0" type="line"/>
			<point x="182" y="47"/>
			<point x="181" y="147"/>
			<point x="181" y="212" type="curve" smooth="yes"/>
			<point x="181" y="557" type="line"/>
			<point x="185" y="734" type="line"/>
			<point x="176" y="742" type="line"/>
			<point x="29" y="705" type="line"/>
			<point x="29" y="690" type="line"/>
			<point x="105" y="673" type="line"/>
			<point x="105" y="212" type="line" smooth="yes"/>
			<point x="105" y="147"/>
			<point x="104" y="47"/>
		</contour>
	</outline>
	<anchor name="aboveLC" x="140" y="742"/>
	<anchor name="belowLC" x="140" y="-20"/>
</glyph>
<glyph name="longs" format="2">
	<advance width="321"/>
	<outline>
		<contour>
			<point x="33" y="0" type="line"/>
			<point x="273" y="0" type="line"/>
			<point x="273" y="17" type="line"/>
			<point x="163" y="29" type="line"/>
			<point x="128" y="29" type="line"/>
			<point x="33" y="17" type="line"/>
		</contour>
		<contour>
			<point x="102" y="0" type="curve"/>
			<point x="184" y="0" type="line"/>
			<point x="182" y="47"/>
			<point x="181" y="147"/>
			<point x="181" y="212" type="curve" smooth="yes"/>
			<point x="181" y="444" type="line" smooth="yes"/>
			<point x="181" y="587"/>
			<point x="194" y="656"/>
			<point x="230" y="700" type="curve" smooth="yes"/>
			<point x="248" y="721"/>
			<point x="275" y="731"/>
			<point x="290" y="732" type="curve"/>
			<point x="277" y="737" type="line"/>
			<point x="256" y="737" type="line"/>
			<point x="245" y="732" type="line"/>
			<point x="280" y="702" type="line" smooth="yes"/>
			<point x="306" y="677"/>
			<point x="324" y="668"/>
			<point x="349" y="668" type="curve" smooth="yes"/>
			<point x="375" y="668"/>
			<point x="396" y="682"/>
			<point x="398" y="706" type="curve"/>
			<point x="389" y="736"/>
			<point x="350" y="752"/>
			<point x="313" y="752" type="curve" smooth="yes"/>
			<point x="271" y="752"/>
			<point x="227" y="737"/>
			<point x="191" y="703" type="curve" smooth="yes"/>
			<point x="144" y="654"/>
			<point x="105" y="586"/>
			<point x="105" y="430" type="curve" smooth="yes"/>
			<point x="105" y="212" type="line" smooth="yes"/>
			<point x="105" y="147"/>
			<point x="104" y="47"/>
		</contour>
	</outline>
</glyph>
<glyph name="lslash" format="2">
	<advance width="275"/>
	<outline>
		<contour>
			<point x="150" y="393" type="line"/>
			<point x="31" y="329" type="line"/>
			<point x="31" y="306" type="line"/>
			<point x="150" y="369" type="line"/>
		</contour>
		<contour>
			<point x="253" y="438" type="line"/>
			<point x="133" y="375" type="line"/>
			<point x="133" y="352" type="line"/>
			<point x="253" y="415" type="line"/>
		</contour>
		<component base="l"/>
	</outline>
</glyph>
<glyph name="m" format="2">
	<advance width="838"/>
	<outline>
		<contour>
			<point x="33" y="0" type="line"/>
			<point x="248" y="0" type="line"/>
			<point x="248" y="17" type="line"/>
			<point x="155" y="29" type="line"/>
			<point x="128" y="29" type="line"/>
			<point x="33" y="17" type="line"/>
		</contour>
		<contour>
			<point x="101" y="0" type="curve"/>
			<point x="185" y="0" type="line"/>
			<point x="182" y="47"/>
			<point x="181" y="147"/>
			<point x="181" y="212" type="curve" smooth="yes"/>
			<point x="181" y="357" type="line"/>
			<point x="181" y="363" type="line"/>
			<point x="181" y="457" type="line"/>
			<point x="172" y="465" type="line"/>
			<point x="29" y="420" type="line"/>
			<point x="29" y="405" type="line"/>
			<point x="102" y="388" type="line"/>
			<point x="104" y="347"/>
			<point x="105" y="312"/>
			<point x="105" y="255" type="curve" smooth="yes"/>
			<point x="105" y="212" type="line" smooth="yes"/>
			<point x="105" y="147"/>
			<point x="104" y="47"/>
		</contour>
		<contour>
			<point x="317" y="0" type="line"/>
			<point x="530" y="0" type="line"/>
			<point x="530" y="17" type="line"/>
			<point x="436" y="29" type="line"/>
			<point x="410" y="29" type="line"/>
			<point x="317" y="17" type="line"/>
		</contour>
		<contour>
			<point x="382" y="0" type="curve"/>
			<point x="467" y="0" type="line"/>
			<point x="464" y="47"/>
			<point x="463" y="147"/>
			<point x="463" y="212" type="curve" smooth="yes"/>
			<point x="463" y="307" type="line" smooth="yes"/>
			<point x="463" y="423"/>
			<point x="423" y="465"/>
			<point x="347" y="465" type="curve" smooth="yes"/>
			<point x="274" y="465"/>
			<point x="210" y="412"/>
			<point x="169" y="356" type="curve"/>
			<point x="165" y="356" type="line"/>
			<point x="172" y="341" type="line"/>
			<point x="220" y="386"/>
			<point x="262" y="412"/>
			<point x="310" y="412" type="curve" smooth="yes"/>
			<point x="365" y="412"/>
			<point x="387" y="390"/>
			<point x="387" y="307" type="curve" smooth="yes"/>
			<point x="387" y="212" type="line" smooth="yes"/>
			<point x="387" y="147"/>
			<point x="386" y="47"/>
		</contour>
		<contour>
			<point x="597" y="0" type="line"/>
			<point x="811" y="0" type="line"/>
			<point x="811" y="17" type="line"/>
			<point x="717" y="29" type="line"/>
			<point x="692" y="29" type="line"/>
			<point x="597" y="17" type="line"/>
		</contour>
		<contour>
			<point x="663" y="0" type="curve"/>
			<point x="749" y="0" type="line"/>
			<point x="746" y="47"/>
			<point x="745" y="147"/>
			<point x="745" y="212" type="curve" smooth="yes"/>
			<point x="745" y="307" type="line" smooth="yes"/>
			<point x="745" y="423"/>
			<point x="705" y="465"/>
			<point x="629" y="465" type="curve" smooth="yes"/>
			<point x="556" y="465"/>
			<point x="491" y="412"/>
			<point x="450" y="356" type="curve"/>
			<point x="445" y="356" type="line"/>
			<point x="454" y="339" type="line"/>
			<point x="502" y="386"/>
			<point x="544" y="412"/>
			<point x="591" y="412" type="curve" smooth="yes"/>
			<point x="647" y="412"/>
			<point x="668" y="390"/>
			<point x="668" y="307" type="curve" smooth="yes"/>
			<point x="668" y="212" type="line" smooth="yes"/>
			<point x="668" y="147"/>
			<point x="668" y="47"/>
		</contour>
	</outline>
	<anchor name="aboveLC" x="423" y="473"/>
	<anchor name="belowLC" x="427" y="-20"/>
</glyph>
<glyph name="n" format="2">
	<advance width="559"/>
	<outline>
		<contour>
			<point x="33" y="0" type="line"/>
			<point x="248" y="0" type="line"/>
			<point x="248" y="17" type="line"/>
			<point x="155" y="29" type="line"/>
			<point x="128" y="29" type="line"/>
			<point x="33" y="17" type="line"/>
		</contour>
		<contour>
			<point x="101" y="0" type="curve"/>
			<point x="185" y="0" type="line"/>
			<point x="182" y="47"/>
			<point x="181" y="147"/>
			<point x="181" y="212" type="curve" smooth="yes"/>
			<point x="181" y="357" type="line"/>
			<point x="181" y="359" type="line"/>
			<point x="181" y="457" type="line"/>
			<point x="172" y="465" type="line"/>
			<point x="29" y="420" type="line"/>
			<point x="29" y="405" type="line"/>
			<point x="102" y="388" type="line"/>
			<point x="104" y="347"/>
			<point x="105" y="312"/>
			<point x="105" y="255" type="curve" smooth="yes"/>
			<point x="105" y="212" type="line" smooth="yes"/>
			<point x="105" y="147"/>
			<point x="104" y="47"/>
		</contour>
		<contour>
			<point x="319" y="0" type="line"/>
			<point x="533" y="0" type="line"/>
			<point x="533" y="17" type="line"/>
			<point x="439" y="29" type="line"/>
			<point x="413" y="29" type="line"/>
			<point x="319" y="17" type="line"/>
		</contour>
		<contour>
			<point x="385" y="0" type="curve"/>
			<point x="471" y="0" type="line"/>
			<point x="467" y="47"/>
			<point x="467" y="147"/>
			<point x="467" y="212" type="curve" smooth="yes"/>
			<point x="467" y="307" type="line" smooth="yes"/>
			<point x="467" y="423"/>
			<point x="425" y="465"/>
			<point x="349" y="465" type="curve" smooth="yes"/>
			<point x="276" y="465"/>
			<point x="210" y="412"/>
			<point x="169" y="356" type="curve"/>
			<point x="165" y="356" type="line"/>
			<point x="172" y="341" type="line"/>
			<point x="220" y="386"/>
			<point x="264" y="412"/>
			<point x="311" y="412" type="curve" smooth="yes"/>
			<point x="367" y="412"/>
			<point x="389" y="390"/>
			<point x="389" y="307" type="curve" smooth="yes"/>
			<point x="389" y="212" type="line" smooth="yes"/>
			<point x="389" y="147"/>
			<point x="389" y="47"/>
		</contour>
	</outline>
	<anchor name="aboveLC" x="285" y="473"/>
	<anchor name="belowLC" x="287" y="-20"/>
</glyph>
<glyph name="nine.cap" format="2">
	<advance width="488"/>
	<outline>
		<contour>
			<point x="84" y="-20" type="line"/>
			<point x="328" y="33"/>
			<point x="442" y="214"/>
			<point x="442" y="403" type="curve" smooth="yes"/>
			<point x="442" y="582"/>
			<point x="364" y="684"/>
			<point x="239" y="684" type="curve" smooth="yes"/>
			<point x="129" y="684"/>
			<point x="38" y="596"/>
			<point x="38" y="468" type="curve" smooth="yes"/>
			<point x="38" y="334"/>
			<point x="116" y="264"/>
			<point x="217" y="264" type="curve" smooth="yes"/>
			<point x="286" y="264"/>
			<point x="341" y="299"/>
			<point x="385" y="372" type="curve"/>
			<point x="391" y="372" type="line"/>
			<point x="381" y="383" type="line"/>
			<point x="341" y="330"/>
			<point x="289" y="307"/>
			<point x="247" y="307" type="curve" smooth="yes"/>
			<point x="173" y="307"/>
			<point x="117" y="353"/>
			<point x="117" y="473" type="curve" smooth="yes"/>
			<point x="117" y="595"/>
			<point x="173" y="662"/>
			<point x="240" y="662" type="curve" smooth="yes"/>
			<point x="314" y="662"/>
			<point x="360" y="575"/>
			<point x="360" y="399" type="curve" smooth="yes"/>
			<point x="360" y="191"/>
			<point x="277" y="68"/>
			<point x="80" y="-3" type="curve"/>
		</contour>
	</outline>
</glyph>
<glyph name="nine.lf" format="2">
	<advance width="488"/>
	<outline>
		<contour>
			<point x="84" y="-20" type="line"/>
			<point x="328" y="33"/>
			<point x="442" y="205"/>
			<point x="442" y="385" type="curve" smooth="yes"/>
			<point x="442" y="558"/>
			<point x="364" y="657"/>
			<point x="239" y="657" type="curve" smooth="yes"/>
			<point x="129" y="657"/>
			<point x="38" y="573"/>
			<point x="38" y="448" type="curve" smooth="yes"/>
			<point x="38" y="322"/>
			<point x="116" y="253"/>
			<point x="217" y="253" type="curve" smooth="yes"/>
			<point x="286" y="253"/>
			<point x="341" y="290"/>
			<point x="385" y="361" type="curve"/>
			<point x="391" y="361" type="line"/>
			<point x="381" y="373" type="line"/>
			<point x="341" y="320"/>
			<point x="289" y="296"/>
			<point x="247" y="296" type="curve" smooth="yes"/>
			<point x="173" y="296"/>
			<point x="117" y="341"/>
			<point x="117" y="453" type="curve" smooth="yes"/>
			<point x="117" y="568"/>
			<point x="173" y="635"/>
			<point x="240" y="635" type="curve" smooth="yes"/>
			<point x="314" y="635"/>
			<point x="360" y="551"/>
			<point x="360" y="383" type="curve" smooth="yes"/>
			<point x="360" y="182"/>
			<point x="277" y="68"/>
			<point x="80" y="-3" type="curve"/>
		</contour>
	</outline>
</glyph>
<glyph name="o" format="2">
	<advance width="505"/>
	<outline>
		<contour>
			<point x="253" y="-12" type="curve" smooth="yes"/>
			<point x="365" y="-12"/>
			<point x="463" y="75"/>
			<point x="463" y="228" type="curve" smooth="yes"/>
			<point x="463" y="384"/>
			<point x="367" y="465"/>
			<point x="253" y="465" type="curve" smooth="yes"/>
			<point x="139" y="465"/>
			<point x="43" y="379"/>
			<point x="43" y="225" type="curve" smooth="yes"/>
			<point x="43" y="70"/>
			<point x="138" y="-12"/>
		</contour>
		<contour>
			<point x="253" y="9" type="curve" smooth="yes"/>
			<point x="174" y="9"/>
			<point x="125" y="82"/>
			<point x="125" y="225" type="curve" smooth="yes"/>
			<point x="125" y="368"/>
			<point x="174" y="444"/>
			<point x="253" y="444" type="curve" smooth="yes"/>
			<point x="331" y="444"/>
			<point x="379" y="371"/>
			<point x="379" y="228" type="curve" smooth="yes"/>
			<point x="379" y="85"/>
			<point x="331" y="9"/>
		</contour>
	</outline>
	<anchor name="aboveLC" x="253" y="473"/>
	<anchor name="belowLC" x="253" y="-20"/>
	<anchor name="hornLC" x="370" y="370"/>
	<anchor name="ogonek" x="307" y="0"/>
</glyph>
<glyph name="oe" format="2">
	<advance width="782"/>
	<outline>
		<contour>
			<point x="245" y="-12" type="curve" smooth="yes"/>
			<point x="323" y="-12"/>
			<point x="387" y="30"/>
			<point x="421" y="108" type="curve"/>
			<point x="389" y="108" type="line"/>
			<point x="422" y="31"/>
			<point x="488" y="-12"/>
			<point x="568" y="-12" type="curve" smooth="yes"/>
			<point x="641" y="-12"/>
			<point x="701" y="22"/>
			<point x="737" y="99" type="curve"/>
			<point x="723" y="108" type="line"/>
			<point x="691" y="67"/>
			<point x="650" y="40"/>
			<point x="592" y="40" type="curve" smooth="yes"/>
			<point x="505" y="40"/>
			<point x="444" y="113"/>
			<point x="444" y="235" type="curve" smooth="yes"/>
			<point x="444" y="385"/>
			<point x="507" y="443"/>
			<point x="569" y="443" type="curve" smooth="yes"/>
			<point x="628" y="443"/>
			<point x="666" y="396"/>
			<point x="666" y="321" type="curve" smooth="yes"/>
			<point x="666" y="284"/>
			<point x="653" y="269"/>
			<point x="613" y="269" type="curve" smooth="yes"/>
			<point x="394" y="269" type="line"/>
			<point x="394" y="246" type="line"/>
			<point x="731" y="246" type="line"/>
			<point x="735" y="259"/>
			<point x="735" y="274"/>
			<point x="735" y="296" type="curve" smooth="yes"/>
			<point x="735" y="400"/>
			<point x="672" y="465"/>
			<point x="577" y="465" type="curve" smooth="yes"/>
			<point x="500" y="465"/>
			<point x="431" y="421"/>
			<point x="395" y="348" type="curve"/>
			<point x="422" y="348" type="line"/>
			<point x="389" y="425"/>
			<point x="324" y="465"/>
			<point x="245" y="465" type="curve" smooth="yes"/>
			<point x="133" y="465"/>
			<point x="43" y="379"/>
			<point x="43" y="225" type="curve" smooth="yes"/>
			<point x="43" y="70"/>
			<point x="131" y="-12"/>
		</contour>
		<contour>
			<point x="245" y="9" type="curve" smooth="yes"/>
			<point x="166" y="9"/>
			<point x="125" y="82"/>
			<point x="125" y="225" type="curve" smooth="yes"/>
			<point x="125" y="368"/>
			<point x="166" y="444"/>
			<point x="245" y="444" type="curve" smooth="yes"/>
			<point x="323" y="444"/>
			<point x="365" y="371"/>
			<point x="365" y="228" type="curve" smooth="yes"/>
			<point x="365" y="85"/>
			<point x="323" y="9"/>
		</contour>
	</outline>
	<anchor name="aboveLC" x="405" y="473"/>
</glyph>
<glyph name="one.cap" format="2">
	<advance width="406"/>
	<outline>
		<contour>
			<point x="59" y="0" type="line"/>
			<point x="369" y="0" type="line"/>
			<point x="369" y="17" type="line"/>
			<point x="226" y="35" type="line"/>
			<point x="200" y="35" type="line"/>
			<point x="59" y="17" type="line"/>
		</contour>
		<contour>
			<point x="172" y="0" type="curve"/>
			<point x="257" y="0" type="line"/>
			<point x="254" y="47"/>
			<point x="253" y="147"/>
			<point x="253" y="212" type="curve" smooth="yes"/>
			<point x="253" y="472" type="line"/>
			<point x="257" y="669" type="line"/>
			<point x="248" y="678" type="line"/>
			<point x="60" y="617" type="line"/>
			<point x="60" y="602" type="line"/>
			<point x="176" y="615" type="line"/>
			<point x="176" y="212" type="line" smooth="yes"/>
			<point x="176" y="147"/>
			<point x="175" y="47"/>
		</contour>
	</outline>
</glyph>
<glyph name="one" format="2">
	<advance width="476"/>
	<outline>
		<contour>
			<point x="72" y="0" type="line"/>
			<point x="419" y="0" type="line"/>
			<point x="419" y="17" type="line"/>
			<point x="257" y="35" type="line"/>
			<point x="231" y="35" type="line"/>
			<point x="72" y="17" type="line"/>
		</contour>
		<contour>
			<point x="203" y="0" type="curve"/>
			<point x="288" y="0" type="line"/>
			<point x="284" y="47"/>
			<point x="283" y="147"/>
			<point x="283" y="212" type="curve" smooth="yes"/>
			<point x="283" y="444" type="line"/>
			<point x="287" y="641" type="line"/>
			<point x="278" y="649" type="line"/>
			<point x="83" y="590" type="line"/>
			<point x="83" y="575" type="line"/>
			<point x="207" y="586" type="line"/>
			<point x="207" y="212" type="line" smooth="yes"/>
			<point x="207" y="147"/>
			<point x="206" y="47"/>
		</contour>
	</outline>
</glyph>
<glyph name="one.lf" format="2">
	<advance width="406"/>
	<outline>
		<contour>
			<point x="59" y="0" type="line"/>
			<point x="369" y="0" type="line"/>
			<point x="369" y="17" type="line"/>
			<point x="226" y="35" type="line"/>
			<point x="200" y="35" type="line"/>
			<point x="59" y="17" type="line"/>
		</contour>
		<contour>
			<point x="172" y="0" type="curve"/>
			<point x="257" y="0" type="line"/>
			<point x="254" y="47"/>
			<point x="253" y="147"/>
			<point x="253" y="212" type="curve" smooth="yes"/>
			<point x="253" y="444" type="line"/>
			<point x="257" y="641" type="line"/>
			<point x="248" y="651" type="line"/>
			<point x="60" y="590" type="line"/>
			<point x="60" y="575" type="line"/>
			<point x="176" y="588" type="line"/>
			<point x="176" y="212" type="line" smooth="yes"/>
			<point x="176" y="147"/>
			<point x="175" y="47"/>
		</contour>
	</outline>
</glyph>
<glyph name="one.osf" format="2">
	<advance width="408"/>
	<outline>
		<contour>
			<point x="66" y="0" type="line"/>
			<point x="377" y="0" type="line"/>
			<point x="377" y="17" type="line"/>
			<point x="233" y="35" type="line"/>
			<point x="208" y="35" type="line"/>
			<point x="66" y="17" type="line"/>
		</contour>
		<contour>
			<point x="179" y="0" type="curve"/>
			<point x="265" y="0" type="line"/>
			<point x="261" y="47"/>
			<point x="260" y="147"/>
			<point x="260" y="212" type="curve" smooth="yes"/>
			<point x="260" y="315" type="line"/>
			<point x="264" y="512" type="line"/>
			<point x="255" y="521" type="line"/>
			<point x="68" y="460" type="line"/>
			<point x="68" y="445" type="line"/>
			<point x="184" y="458" type="line"/>
			<point x="184" y="212" type="line" smooth="yes"/>
			<point x="184" y="147"/>
			<point x="183" y="47"/>
		</contour>
	</outline>
</glyph>
<glyph name="one.tosf" format="2">
	<advance width="476"/>
	<outline>
		<contour>
			<point x="71" y="0" type="line"/>
			<point x="418" y="0" type="line"/>
			<point x="418" y="17" type="line"/>
			<point x="256" y="35" type="line"/>
			<point x="231" y="35" type="line"/>
			<point x="71" y="17" type="line"/>
		</contour>
		<contour>
			<point x="202" y="0" type="curve"/>
			<point x="287" y="0" type="line"/>
			<point x="284" y="47"/>
			<point x="283" y="147"/>
			<point x="283" y="212" type="curve" smooth="yes"/>
			<point x="283" y="314" type="line"/>
			<point x="287" y="512" type="line"/>
			<point x="278" y="521" type="line"/>
			<point x="81" y="460" type="line"/>
			<point x="81" y="445" type="line"/>
			<point x="207" y="458" type="line"/>
			<point x="207" y="212" type="line" smooth="yes"/>
			<point x="207" y="147"/>
			<point x="206" y="47"/>
		</contour>
	</outline>
</glyph>
<glyph name="oslash" format="2">
	<advance width="505"/>
	<outline>
		<contour>
			<point x="461" y="449" type="line"/>
			<point x="444" y="463" type="line"/>
			<point x="52" y="4" type="line"/>
			<point x="68" y="-9" type="line"/>
		</contour>
		<contour>
			<point x="253" y="-12" type="curve" smooth="yes"/>
			<point x="365" y="-12"/>
			<point x="463" y="75"/>
			<point x="463" y="228" type="curve" smooth="yes"/>
			<point x="463" y="384"/>
			<point x="367" y="465"/>
			<point x="253" y="465" type="curve" smooth="yes"/>
			<point x="139" y="465"/>
			<point x="43" y="379"/>
			<point x="43" y="225" type="curve" smooth="yes"/>
			<point x="43" y="70"/>
			<point x="138" y="-12"/>
		</contour>
		<contour>
			<point x="253" y="9" type="curve" smooth="yes"/>
			<point x="172" y="9"/>
			<point x="122" y="82"/>
			<point x="122" y="225" type="curve" smooth="yes"/>
			<point x="122" y="368"/>
			<point x="172" y="444"/>
			<point x="253" y="444" type="curve" smooth="yes"/>
			<point x="333" y="444"/>
			<point x="383" y="371"/>
			<point x="383" y="228" type="curve" smooth="yes"/>
			<point x="383" y="85"/>
			<point x="333" y="9"/>
		</contour>
	</outline>
	<anchor name="aboveLC" x="253" y="473"/>
</glyph>
<glyph name="p" format="2">
	<advance width="541"/>
	<outline>
		<contour>
			<point x="33" y="-257" type="line"/>
			<point x="258" y="-257" type="line"/>
			<point x="258" y="-240" type="line"/>
			<point x="153" y="-228" type="line"/>
			<point x="128" y="-228" type="line"/>
			<point x="33" y="-240" type="line"/>
		</contour>
		<contour>
			<point x="101" y="-257" type="curve"/>
			<point x="185" y="-257" type="line"/>
			<point x="182" y="-210"/>
			<point x="181" y="-111"/>
			<point x="181" y="-45" type="curve" smooth="yes"/>
			<point x="181" y="73" type="line"/>
			<point x="181" y="77" type="line"/>
			<point x="181" y="369" type="line"/>
			<point x="181" y="373" type="line"/>
			<point x="181" y="457" type="line"/>
			<point x="172" y="465" type="line"/>
			<point x="29" y="420" type="line"/>
			<point x="29" y="405" type="line"/>
			<point x="102" y="388" type="line"/>
			<point x="104" y="347"/>
			<point x="105" y="312"/>
			<point x="105" y="255" type="curve" smooth="yes"/>
			<point x="105" y="-45" type="line" smooth="yes"/>
			<point x="105" y="-111"/>
			<point x="104" y="-210"/>
		</contour>
		<contour>
			<point x="311" y="-12" type="curve" smooth="yes"/>
			<point x="415" y="-12"/>
			<point x="500" y="79"/>
			<point x="500" y="237" type="curve" smooth="yes"/>
			<point x="500" y="389"/>
			<point x="419" y="465"/>
			<point x="319" y="465" type="curve" smooth="yes"/>
			<point x="251" y="465"/>
			<point x="201" y="422"/>
			<point x="172" y="363" type="curve"/>
			<point x="159" y="363" type="line"/>
			<point x="165" y="335" type="line"/>
			<point x="200" y="388"/>
			<point x="240" y="424"/>
			<point x="292" y="424" type="curve" smooth="yes"/>
			<point x="365" y="424"/>
			<point x="419" y="365"/>
			<point x="419" y="232" type="curve" smooth="yes"/>
			<point x="419" y="97"/>
			<point x="364" y="30"/>
			<point x="294" y="30" type="curve" smooth="yes"/>
			<point x="242" y="30"/>
			<point x="208" y="49"/>
			<point x="162" y="105" type="curve"/>
			<point x="155" y="81" type="line"/>
			<point x="168" y="81" type="line"/>
			<point x="204" y="13"/>
			<point x="256" y="-12"/>
		</contour>
	</outline>
	<anchor name="aboveLC" x="281" y="473"/>
	<anchor name="belowLC" x="148" y="-277"/>
</glyph>
<glyph name="period" format="2">
	<advance width="259"/>
	<outline>
		<contour>
			<point x="129" y="-8" type="curve" smooth="yes"/>
			<point x="161" y="-8"/>
			<point x="186" y="15"/>
			<point x="186" y="49" type="curve" smooth="yes"/>
			<point x="186" y="83"/>
			<point x="161" y="106"/>
			<point x="129" y="106" type="curve" smooth="yes"/>
			<point x="98" y="106"/>
			<point x="72" y="83"/>
			<point x="72" y="49" type="curve" smooth="yes"/>
			<point x="72" y="15"/>
			<point x="98" y="-8"/>
		</contour>
	</outline>
</glyph>
<glyph name="q" format="2">
	<advance width="516"/>
	<outline>
		<contour>
			<point x="283" y="-257" type="line"/>
			<point x="508" y="-257" type="line"/>
			<point x="508" y="-240" type="line"/>
			<point x="414" y="-228" type="line"/>
			<point x="390" y="-228" type="line"/>
			<point x="283" y="-240" type="line"/>
		</contour>
		<contour>
			<point x="222" y="-12" type="curve" smooth="yes"/>
			<point x="290" y="-12"/>
			<point x="341" y="32"/>
			<point x="371" y="90" type="curve"/>
			<point x="383" y="90" type="line"/>
			<point x="377" y="117" type="line"/>
			<point x="342" y="65"/>
			<point x="302" y="29"/>
			<point x="251" y="29" type="curve" smooth="yes"/>
			<point x="177" y="29"/>
			<point x="123" y="87"/>
			<point x="123" y="220" type="curve" smooth="yes"/>
			<point x="123" y="357"/>
			<point x="181" y="423"/>
			<point x="251" y="423" type="curve" smooth="yes"/>
			<point x="303" y="423"/>
			<point x="333" y="404"/>
			<point x="381" y="348" type="curve"/>
			<point x="389" y="371" type="line"/>
			<point x="375" y="371" type="line"/>
			<point x="338" y="439"/>
			<point x="289" y="465"/>
			<point x="235" y="465" type="curve" smooth="yes"/>
			<point x="130" y="465"/>
			<point x="43" y="374"/>
			<point x="43" y="216" type="curve" smooth="yes"/>
			<point x="43" y="64"/>
			<point x="124" y="-12"/>
		</contour>
		<contour>
			<point x="357" y="-257" type="curve"/>
			<point x="442" y="-257" type="line"/>
			<point x="438" y="-210"/>
			<point x="437" y="-111"/>
			<point x="437" y="-45" type="curve" smooth="yes"/>
			<point x="437" y="340" type="line"/>
			<point x="441" y="457" type="line"/>
			<point x="431" y="463" type="line"/>
			<point x="361" y="384" type="line"/>
			<point x="361" y="382" type="line"/>
			<point x="361" y="88" type="line"/>
			<point x="361" y="84" type="line"/>
			<point x="361" y="-45" type="line" smooth="yes"/>
			<point x="361" y="-111"/>
			<point x="361" y="-210"/>
		</contour>
	</outline>
	<anchor name="aboveLC" x="278" y="473"/>
	<anchor name="belowLC" x="393" y="-277"/>
</glyph>
<glyph name="question" format="2">
	<advance width="387"/>
	<outline>
		<contour>
			<point x="142" y="-8" type="curve" smooth="yes"/>
			<point x="173" y="-8"/>
			<point x="199" y="15"/>
			<point x="199" y="49" type="curve" smooth="yes"/>
			<point x="199" y="82"/>
			<point x="173" y="106"/>
			<point x="142" y="106" type="curve" smooth="yes"/>
			<point x="111" y="106"/>
			<point x="86" y="82"/>
			<point x="86" y="49" type="curve" smooth="yes"/>
			<point x="86" y="15"/>
			<point x="111" y="-8"/>
		</contour>
		<contour>
			<point x="329" y="464" type="curve" smooth="yes"/>
			<point x="329" y="582"/>
			<point x="186" y="674"/>
			<point x="101" y="684" type="curve"/>
			<point x="74" y="678"/>
			<point x="61" y="663"/>
			<point x="61" y="642" type="curve" smooth="yes"/>
			<point x="61" y="621"/>
			<point x="73" y="606"/>
			<point x="123" y="598" type="curve" smooth="yes"/>
			<point x="277" y="575" type="line"/>
			<point x="221" y="608" type="line"/>
			<point x="258" y="572"/>
			<point x="294" y="523"/>
			<point x="294" y="479" type="curve" smooth="yes"/>
			<point x="294" y="447"/>
			<point x="264" y="423"/>
			<point x="223" y="407" type="curve" smooth="yes"/>
			<point x="173" y="389" type="line" smooth="yes"/>
			<point x="118" y="369"/>
			<point x="103" y="352"/>
			<point x="103" y="321" type="curve" smooth="yes"/>
			<point x="103" y="308"/>
			<point x="106" y="293"/>
			<point x="117" y="254" type="curve" smooth="yes"/>
			<point x="129" y="213" type="line"/>
			<point x="151" y="213" type="line"/>
			<point x="151" y="269" type="line" smooth="yes"/>
			<point x="151" y="301"/>
			<point x="164" y="313"/>
			<point x="204" y="328" type="curve" smooth="yes"/>
			<point x="241" y="341" type="line" smooth="yes"/>
			<point x="303" y="364"/>
			<point x="329" y="400"/>
		</contour>
	</outline>
</glyph>
<glyph name="quoteleft" format="2">
	<advance width="189"/>
	<outline>
		<contour>
			<point x="96" y="507" type="curve" smooth="yes"/>
			<point x="127" y="507"/>
			<point x="148" y="527"/>
			<point x="148" y="559" type="curve" smooth="yes"/>
			<point x="148" y="576"/>
			<point x="139" y="593"/>
			<point x="117" y="607" type="curve" smooth="yes"/>
			<point x="74" y="635" type="line"/>
			<point x="73" y="612" type="line"/>
			<point x="94" y="669"/>
			<point x="113" y="688"/>
			<point x="159" y="714" type="curve"/>
			<point x="150" y="732" type="line"/>
			<point x="94" y="710"/>
			<point x="41" y="658"/>
			<point x="41" y="580" type="curve" smooth="yes"/>
			<point x="41" y="563"/>
			<point x="44" y="543"/>
			<point x="50" y="525" type="curve"/>
			<point x="68" y="509"/>
			<point x="82" y="507"/>
		</contour>
	</outline>
</glyph>
<glyph name="quotesingle" format="2">
	<advance width="184"/>
	<outline>
		<contour>
			<point x="93" y="735" type="curve" smooth="yes"/>
			<point x="66" y="735"/>
			<point x="51" y="716"/>
			<point x="51" y="684" type="curve" smooth="yes"/>
			<point x="51" y="645"/>
			<point x="69" y="534"/>
			<point x="73" y="503" type="curve" smooth="yes"/>
			<point x="83" y="429" type="line"/>
			<point x="101" y="429" type="line"/>
			<point x="111" y="503" type="line" smooth="yes"/>
			<point x="115" y="534"/>
			<point x="133" y="645"/>
			<point x="133" y="684" type="curve" smooth="yes"/>
			<point x="133" y="716"/>
			<point x="118" y="735"/>
		</contour>
	</outline>
</glyph>
<glyph name="r" format="2">
	<advance width="397"/>
	<outline>
		<contour>
			<point x="33" y="0" type="line"/>
			<point x="260" y="0" type="line"/>
			<point x="260" y="17" type="line"/>
			<point x="155" y="29" type="line"/>
			<point x="128" y="29" type="line"/>
			<point x="33" y="17" type="line"/>
		</contour>
		<contour>
			<point x="101" y="0" type="curve"/>
			<point x="185" y="0" type="line"/>
			<point x="182" y="47"/>
			<point x="181" y="147"/>
			<point x="181" y="212" type="curve" smooth="yes"/>
			<point x="181" y="305" type="line"/>
			<point x="181" y="308" type="line"/>
			<point x="181" y="457" type="line"/>
			<point x="172" y="465" type="line"/>
			<point x="29" y="420" type="line"/>
			<point x="29" y="405" type="line"/>
			<point x="102" y="388" type="line"/>
			<point x="104" y="347"/>
			<point x="105" y="312"/>
			<point x="105" y="255" type="curve" smooth="yes"/>
			<point x="105" y="212" type="line" smooth="yes"/>
			<point x="105" y="147"/>
			<point x="104" y="47"/>
		</contour>
		<contour>
			<point x="174" y="256" type="line"/>
			<point x="195" y="348"/>
			<point x="245" y="411"/>
			<point x="288" y="430" type="curve"/>
			<point x="251" y="425" type="line"/>
			<point x="274" y="400" type="line" smooth="yes"/>
			<point x="291" y="379"/>
			<point x="309" y="369"/>
			<point x="332" y="369" type="curve" smooth="yes"/>
			<point x="360" y="369"/>
			<point x="385" y="387"/>
			<point x="388" y="421" type="curve"/>
			<point x="380" y="452"/>
			<point x="355" y="465"/>
			<point x="324" y="465" type="curve" smooth="yes"/>
			<point x="263" y="465"/>
			<point x="210" y="414"/>
			<point x="176" y="311" type="curve"/>
			<point x="162" y="311" type="line"/>
		</contour>
	</outline>
	<anchor name="aboveLC" x="230" y="473"/>
	<anchor name="belowLC" x="151" y="-20"/>
</glyph>
<glyph name="s" format="2">
	<advance width="393"/>
	<outline>
		<contour>
			<point x="187" y="-12" type="curve" smooth="yes"/>
			<point x="295" y="-12"/>
			<point x="352" y="44"/>
			<point x="352" y="124" type="curve" smooth="yes"/>
			<point x="352" y="203"/>
			<point x="291" y="231"/>
			<point x="231" y="257" type="curve" smooth="yes"/>
			<point x="203" y="269" type="line" smooth="yes"/>
			<point x="154" y="290"/>
			<point x="112" y="313"/>
			<point x="112" y="366" type="curve" smooth="yes"/>
			<point x="112" y="410"/>
			<point x="144" y="445"/>
			<point x="205" y="445" type="curve" smooth="yes"/>
			<point x="246" y="445"/>
			<point x="277" y="435"/>
			<point x="310" y="411" type="curve"/>
			<point x="310" y="438" type="line"/>
			<point x="271" y="438" type="line"/>
			<point x="311" y="316" type="line"/>
			<point x="327" y="316" type="line"/>
			<point x="331" y="431" type="line"/>
			<point x="292" y="454"/>
			<point x="255" y="465"/>
			<point x="205" y="465" type="curve" smooth="yes"/>
			<point x="104" y="465"/>
			<point x="53" y="408"/>
			<point x="53" y="333" type="curve" smooth="yes"/>
			<point x="53" y="257"/>
			<point x="109" y="228"/>
			<point x="166" y="204" type="curve" smooth="yes"/>
			<point x="194" y="192" type="line" smooth="yes"/>
			<point x="244" y="170"/>
			<point x="288" y="148"/>
			<point x="288" y="95" type="curve" smooth="yes"/>
			<point x="288" y="46"/>
			<point x="254" y="7"/>
			<point x="187" y="7" type="curve" smooth="yes"/>
			<point x="142" y="7"/>
			<point x="111" y="16"/>
			<point x="79" y="33" type="curve"/>
			<point x="79" y="15" type="line"/>
			<point x="113" y="15" type="line"/>
			<point x="71" y="148" type="line"/>
			<point x="56" y="148" type="line"/>
			<point x="50" y="24" type="line"/>
			<point x="95" y="-1"/>
			<point x="131" y="-12"/>
		</contour>
	</outline>
	<anchor name="aboveLC" x="206" y="473"/>
	<anchor name="baseLC" x="192" y="0"/>
	<anchor name="belowLC" x="194" y="-20"/>
</glyph>
<glyph name="schwa" format="2">
	<advance width="467"/>
	<outline>
		<contour>
			<point x="224" y="-12" type="curve" smooth="yes"/>
			<point x="341" y="-12"/>
			<point x="425" y="73"/>
			<point x="425" y="226" type="curve" smooth="yes"/>
			<point x="425" y="375"/>
			<point x="338" y="465"/>
			<point x="229" y="465" type="curve" smooth="yes"/>
			<point x="156" y="465"/>
			<point x="96" y="430"/>
			<point x="60" y="353" type="curve"/>
			<point x="74" y="343" type="line"/>
			<point x="106" y="387"/>
			<point x="147" y="413"/>
			<point x="205" y="413" type="curve" smooth="yes"/>
			<point x="289" y="413"/>
			<point x="346" y="342"/>
			<point x="346" y="219" type="curve" smooth="yes"/>
			<point x="346" y="69"/>
			<point x="287" y="10"/>
			<point x="224" y="10" type="curve" smooth="yes"/>
			<point x="159" y="10"/>
			<point x="112" y="54"/>
			<point x="112" y="156" type="curve" smooth="yes"/>
			<point x="112" y="194"/>
			<point x="125" y="209"/>
			<point x="164" y="209" type="curve" smooth="yes"/>
			<point x="396" y="209" type="line"/>
			<point x="396" y="231" type="line"/>
			<point x="46" y="231" type="line"/>
			<point x="42" y="219"/>
			<point x="40" y="205"/>
			<point x="40" y="183" type="curve" smooth="yes"/>
			<point x="40" y="53"/>
			<point x="116" y="-12"/>
		</contour>
	</outline>
	<anchor name="aboveLC" x="227" y="473"/>
	<anchor name="belowLC" x="230" y="-20"/>
</glyph>
<glyph name="seven.cap" format="2">
	<advance width="454"/>
	<outline>
		<contour>
			<point x="113" y="0" type="line"/>
			<point x="196" y="0" type="line"/>
			<point x="423" y="630" type="line"/>
			<point x="423" y="668" type="line"/>
			<point x="28" y="668" type="line"/>
			<point x="28" y="597" type="line"/>
			<point x="390" y="597" type="line"/>
			<point x="390" y="583" type="line"/>
			<point x="401" y="628" type="line"/>
			<point x="105" y="12" type="line"/>
		</contour>
	</outline>
</glyph>
<glyph name="seven.lf" format="2">
	<advance width="454"/>
	<outline>
		<contour>
			<point x="113" y="0" type="line"/>
			<point x="196" y="0" type="line"/>
			<point x="423" y="605" type="line"/>
			<point x="423" y="645" type="line"/>
			<point x="28" y="645" type="line"/>
			<point x="28" y="574" type="line"/>
			<point x="389" y="574" type="line"/>
			<point x="389" y="557" type="line"/>
			<point x="397" y="598" type="line"/>
			<point x="105" y="12" type="line"/>
		</contour>
	</outline>
</glyph>
<glyph name="six.cap" format="2">
	<advance width="488"/>
	<outline>
		<contour>
			<point x="252" y="-12" type="curve" smooth="yes"/>
			<point x="357" y="-12"/>
			<point x="450" y="66"/>
			<point x="450" y="203" type="curve" smooth="yes"/>
			<point x="450" y="326"/>
			<point x="385" y="402"/>
			<point x="278" y="402" type="curve" smooth="yes"/>
			<point x="210" y="402"/>
			<point x="156" y="366"/>
			<point x="110" y="294" type="curve"/>
			<point x="104" y="294" type="line"/>
			<point x="114" y="282" type="line"/>
			<point x="154" y="336"/>
			<point x="207" y="359"/>
			<point x="249" y="359" type="curve" smooth="yes"/>
			<point x="315" y="359"/>
			<point x="372" y="311"/>
			<point x="372" y="197" type="curve" smooth="yes"/>
			<point x="372" y="73"/>
			<point x="320" y="9"/>
			<point x="252" y="9" type="curve" smooth="yes"/>
			<point x="178" y="9"/>
			<point x="129" y="90"/>
			<point x="129" y="259" type="curve" smooth="yes"/>
			<point x="129" y="469"/>
			<point x="213" y="611"/>
			<point x="413" y="667" type="curve"/>
			<point x="409" y="684" type="line"/>
			<point x="178" y="657"/>
			<point x="46" y="473"/>
			<point x="46" y="265" type="curve" smooth="yes"/>
			<point x="46" y="88"/>
			<point x="125" y="-12"/>
		</contour>
	</outline>
</glyph>
<glyph name="six.lf" format="2">
	<advance width="488"/>
	<outline>
		<contour>
			<point x="252" y="-12" type="curve" smooth="yes"/>
			<point x="357" y="-12"/>
			<point x="450" y="67"/>
			<point x="450" y="197" type="curve" smooth="yes"/>
			<point x="450" y="313"/>
			<point x="385" y="388"/>
			<point x="278" y="388" type="curve" smooth="yes"/>
			<point x="210" y="388"/>
			<point x="156" y="353"/>
			<point x="110" y="280" type="curve"/>
			<point x="104" y="280" type="line"/>
			<point x="114" y="268" type="line"/>
			<point x="154" y="322"/>
			<point x="207" y="345"/>
			<point x="249" y="345" type="curve" smooth="yes"/>
			<point x="315" y="345"/>
			<point x="372" y="297"/>
			<point x="372" y="192" type="curve" smooth="yes"/>
			<point x="372" y="75"/>
			<point x="320" y="9"/>
			<point x="252" y="9" type="curve" smooth="yes"/>
			<point x="178" y="9"/>
			<point x="129" y="90"/>
			<point x="129" y="252" type="curve" smooth="yes"/>
			<point x="129" y="457"/>
			<point x="213" y="584"/>
			<point x="413" y="640" type="curve"/>
			<point x="409" y="657" type="line"/>
			<point x="178" y="630"/>
			<point x="46" y="461"/>
			<point x="46" y="260" type="curve" smooth="yes"/>
			<point x="46" y="88"/>
			<point x="125" y="-12"/>
		</contour>
	</outline>
</glyph>
<glyph name="t" format="2">
	<advance width="304"/>
	<outline>
		<contour>
			<point x="124" y="428" type="line"/>
			<point x="281" y="428" type="line"/>
			<point x="281" y="453" type="line"/>
			<point x="124" y="453" type="line"/>
		</contour>
		<contour>
			<point x="187" y="-12" type="curve" smooth="yes"/>
			<point x="243" y="-12"/>
			<point x="271" y="11"/>
			<point x="293" y="51" type="curve"/>
			<point x="281" y="61" type="line"/>
			<point x="262" y="40"/>
			<point x="240" y="28"/>
			<point x="214" y="28" type="curve" smooth="yes"/>
			<point x="180" y="28"/>
			<point x="159" y="48"/>
			<point x="159" y="99" type="curve" smooth="yes"/>
			<point x="159" y="436" type="line"/>
			<point x="159" y="441" type="line"/>
			<point x="163" y="605" type="line"/>
			<point x="137" y="605" type="line"/>
			<point x="81" y="441" type="line"/>
			<point x="117" y="463" type="line"/>
			<point x="9" y="445" type="line"/>
			<point x="9" y="428" type="line"/>
			<point x="82" y="428" type="line"/>
			<point x="80" y="203" type="line" smooth="yes"/>
			<point x="80" y="157"/>
			<point x="80" y="130"/>
			<point x="80" y="92" type="curve" smooth="yes"/>
			<point x="80" y="22"/>
			<point x="122" y="-12"/>
		</contour>
	</outline>
	<anchor name="aboveLC" x="144" y="585"/>
	<anchor name="baseLC" x="184" y="0"/>
	<anchor name="belowLC" x="184" y="-20"/>
</glyph>
<glyph name="thorn" format="2">
	<advance width="536"/>
	<outline>
		<contour>
			<point x="95" y="-257" type="curve"/>
			<point x="176" y="-257" type="line"/>
			<point x="175" y="-189"/>
			<point x="174" y="-116"/>
			<point x="174" y="-45" type="curve" smooth="yes"/>
			<point x="174" y="69" type="line"/>
			<point x="174" y="73" type="line"/>
			<point x="174" y="372" type="line"/>
			<point x="174" y="375" type="line"/>
			<point x="174" y="537" type="line"/>
			<point x="178" y="734" type="line"/>
			<point x="169" y="742" type="line"/>
			<point x="23" y="705" type="line"/>
			<point x="23" y="690" type="line"/>
			<point x="98" y="673" type="line"/>
			<point x="98" y="-45" type="line" smooth="yes"/>
			<point x="98" y="-111"/>
			<point x="97" y="-210"/>
		</contour>
		<contour>
			<point x="305" y="-12" type="curve" smooth="yes"/>
			<point x="409" y="-12"/>
			<point x="493" y="79"/>
			<point x="493" y="237" type="curve" smooth="yes"/>
			<point x="493" y="389"/>
			<point x="412" y="465"/>
			<point x="313" y="465" type="curve" smooth="yes"/>
			<point x="245" y="465"/>
			<point x="194" y="422"/>
			<point x="164" y="363" type="curve"/>
			<point x="152" y="363" type="line"/>
			<point x="158" y="335" type="line"/>
			<point x="192" y="388"/>
			<point x="233" y="424"/>
			<point x="284" y="424" type="curve" smooth="yes"/>
			<point x="358" y="424"/>
			<point x="412" y="365"/>
			<point x="412" y="232" type="curve" smooth="yes"/>
			<point x="412" y="97"/>
			<point x="358" y="30"/>
			<point x="288" y="30" type="curve" smooth="yes"/>
			<point x="236" y="30"/>
			<point x="201" y="49"/>
			<point x="154" y="105" type="curve"/>
			<point x="147" y="81" type="line"/>
			<point x="161" y="81" type="line"/>
			<point x="197" y="13"/>
			<point x="250" y="-12"/>
		</contour>
		<contour>
			<point x="27" y="-257" type="line"/>
			<point x="251" y="-257" type="line"/>
			<point x="251" y="-240" type="line"/>
			<point x="146" y="-228" type="line"/>
			<point x="121" y="-228" type="line"/>
			<point x="27" y="-240" type="line"/>
		</contour>
	</outline>
	<anchor name="aboveLC" x="141" y="742"/>
	<anchor name="belowLC" x="365" y="-20"/>
</glyph>
<glyph name="three.cap" format="2">
	<advance width="475"/>
	<outline>
		<contour>
			<point x="216" y="-12" type="curve" smooth="yes"/>
			<point x="353" y="-12"/>
			<point x="433" y="71"/>
			<point x="433" y="179" type="curve" smooth="yes"/>
			<point x="433" y="272"/>
			<point x="369" y="342"/>
			<point x="237" y="349" type="curve"/>
			<point x="237" y="344" type="line"/>
			<point x="351" y="357"/>
			<point x="411" y="430"/>
			<point x="411" y="526" type="curve" smooth="yes"/>
			<point x="411" y="614"/>
			<point x="353" y="684"/>
			<point x="228" y="684" type="curve" smooth="yes"/>
			<point x="142" y="684"/>
			<point x="65" y="638"/>
			<point x="53" y="550" type="curve"/>
			<point x="59" y="529"/>
			<point x="71" y="521"/>
			<point x="89" y="521" type="curve" smooth="yes"/>
			<point x="117" y="521"/>
			<point x="129" y="539"/>
			<point x="138" y="578" type="curve" smooth="yes"/>
			<point x="160" y="665" type="line"/>
			<point x="123" y="639" type="line"/>
			<point x="155" y="657"/>
			<point x="188" y="662"/>
			<point x="215" y="662" type="curve" smooth="yes"/>
			<point x="295" y="662"/>
			<point x="332" y="599"/>
			<point x="332" y="520" type="curve" smooth="yes"/>
			<point x="332" y="437"/>
			<point x="288" y="356"/>
			<point x="190" y="356" type="curve" smooth="yes"/>
			<point x="156" y="356" type="line"/>
			<point x="156" y="332" type="line"/>
			<point x="198" y="332" type="line" smooth="yes"/>
			<point x="304" y="332"/>
			<point x="350" y="258"/>
			<point x="350" y="175" type="curve" smooth="yes"/>
			<point x="350" y="90"/>
			<point x="300" y="9"/>
			<point x="205" y="9" type="curve" smooth="yes"/>
			<point x="175" y="9"/>
			<point x="142" y="13"/>
			<point x="109" y="32" type="curve"/>
			<point x="144" y="4" type="line"/>
			<point x="124" y="89" type="line" smooth="yes"/>
			<point x="114" y="133"/>
			<point x="101" y="152"/>
			<point x="75" y="152" type="curve" smooth="yes"/>
			<point x="55" y="152"/>
			<point x="42" y="144"/>
			<point x="34" y="123" type="curve"/>
			<point x="47" y="33"/>
			<point x="115" y="-12"/>
		</contour>
	</outline>
</glyph>
<glyph name="three.lf" format="2">
	<advance width="475"/>
	<outline>
		<contour>
			<point x="216" y="-12" type="curve" smooth="yes"/>
			<point x="353" y="-12"/>
			<point x="433" y="71"/>
			<point x="433" y="175" type="curve" smooth="yes"/>
			<point x="433" y="263"/>
			<point x="369" y="333"/>
			<point x="237" y="339" type="curve"/>
			<point x="237" y="334" type="line"/>
			<point x="351" y="349"/>
			<point x="411" y="418"/>
			<point x="411" y="507" type="curve" smooth="yes"/>
			<point x="411" y="587"/>
			<point x="353" y="657"/>
			<point x="228" y="657" type="curve" smooth="yes"/>
			<point x="142" y="657"/>
			<point x="65" y="610"/>
			<point x="53" y="523" type="curve"/>
			<point x="59" y="501"/>
			<point x="71" y="494"/>
			<point x="89" y="494" type="curve" smooth="yes"/>
			<point x="117" y="494"/>
			<point x="129" y="512"/>
			<point x="138" y="550" type="curve" smooth="yes"/>
			<point x="160" y="637" type="line"/>
			<point x="123" y="612" type="line"/>
			<point x="155" y="630"/>
			<point x="188" y="635"/>
			<point x="215" y="635" type="curve" smooth="yes"/>
			<point x="295" y="635"/>
			<point x="332" y="572"/>
			<point x="332" y="501" type="curve" smooth="yes"/>
			<point x="332" y="425"/>
			<point x="288" y="347"/>
			<point x="190" y="347" type="curve" smooth="yes"/>
			<point x="156" y="347" type="line"/>
			<point x="156" y="323" type="line"/>
			<point x="198" y="323" type="line" smooth="yes"/>
			<point x="304" y="323"/>
			<point x="350" y="248"/>
			<point x="350" y="171" type="curve" smooth="yes"/>
			<point x="350" y="90"/>
			<point x="300" y="9"/>
			<point x="205" y="9" type="curve" smooth="yes"/>
			<point x="175" y="9"/>
			<point x="142" y="13"/>
			<point x="109" y="32" type="curve"/>
			<point x="144" y="4" type="line"/>
			<point x="124" y="89" type="line" smooth="yes"/>
			<point x="114" y="133"/>
			<point x="101" y="152"/>
			<point x="75" y="152" type="curve" smooth="yes"/>
			<point x="55" y="152"/>
			<point x="42" y="144"/>
			<point x="34" y="123" type="curve"/>
			<point x="47" y="33"/>
			<point x="115" y="-12"/>
		</contour>
	</outline>
</glyph>
<glyph name="two.cap" format="2">
	<advance width="471"/>
	<outline>
		<contour>
			<point x="48" y="0" type="line"/>
			<point x="435" y="0" type="line"/>
			<point x="435" y="71" type="line"/>
			<point x="90" y="71" type="line"/>
			<point x="90" y="82" type="line"/>
			<point x="72" y="47" type="line"/>
			<point x="116" y="93"/>
			<point x="162" y="139"/>
			<point x="206" y="184" type="curve" smooth="yes"/>
			<point x="349" y="329"/>
			<point x="410" y="417"/>
			<point x="410" y="512" type="curve" smooth="yes"/>
			<point x="410" y="608"/>
			<point x="361" y="684"/>
			<point x="225" y="684" type="curve" smooth="yes"/>
			<point x="124" y="684"/>
			<point x="54" y="625"/>
			<point x="43" y="542" type="curve"/>
			<point x="51" y="522"/>
			<point x="63" y="513"/>
			<point x="82" y="513" type="curve" smooth="yes"/>
			<point x="109" y="513"/>
			<point x="120" y="531"/>
			<point x="130" y="575" type="curve" smooth="yes"/>
			<point x="154" y="668" type="line"/>
			<point x="116" y="635" type="line"/>
			<point x="150" y="655"/>
			<point x="181" y="662"/>
			<point x="211" y="662" type="curve" smooth="yes"/>
			<point x="283" y="662"/>
			<point x="330" y="608"/>
			<point x="330" y="506" type="curve" smooth="yes"/>
			<point x="330" y="421"/>
			<point x="273" y="321"/>
			<point x="185" y="213" type="curve" smooth="yes"/>
			<point x="139" y="159"/>
			<point x="94" y="102"/>
			<point x="48" y="47" type="curve"/>
		</contour>
	</outline>
</glyph>
<glyph name="two.lf" format="2">
	<advance width="471"/>
	<outline>
		<contour>
			<point x="48" y="0" type="line"/>
			<point x="435" y="0" type="line"/>
			<point x="435" y="71" type="line"/>
			<point x="89" y="71" type="line"/>
			<point x="89" y="81" type="line"/>
			<point x="72" y="47" type="line"/>
			<point x="116" y="90"/>
			<point x="162" y="134"/>
			<point x="206" y="176" type="curve" smooth="yes"/>
			<point x="353" y="317"/>
			<point x="410" y="394"/>
			<point x="410" y="485" type="curve" smooth="yes"/>
			<point x="410" y="584"/>
			<point x="361" y="657"/>
			<point x="225" y="657" type="curve" smooth="yes"/>
			<point x="124" y="657"/>
			<point x="54" y="598"/>
			<point x="43" y="515" type="curve"/>
			<point x="51" y="495"/>
			<point x="63" y="485"/>
			<point x="82" y="485" type="curve" smooth="yes"/>
			<point x="109" y="485"/>
			<point x="120" y="504"/>
			<point x="130" y="548" type="curve" smooth="yes"/>
			<point x="154" y="641" type="line"/>
			<point x="116" y="608" type="line"/>
			<point x="150" y="628"/>
			<point x="181" y="635"/>
			<point x="211" y="635" type="curve" smooth="yes"/>
			<point x="283" y="635"/>
			<point x="330" y="583"/>
			<point x="330" y="479" type="curve" smooth="yes"/>
			<point x="330" y="398"/>
			<point x="276" y="311"/>
			<point x="185" y="205" type="curve" smooth="yes"/>
			<point x="139" y="153"/>
			<point x="94" y="100"/>
			<point x="48" y="47" type="curve"/>
		</contour>
	</outline>
</glyph>
<glyph name="two.osf" format="2">
	<advance width="479"/>
	<outline>
		<contour>
			<point x="51" y="0" type="line"/>
			<point x="432" y="0" type="line"/>
			<point x="432" y="71" type="line"/>
			<point x="95" y="71" type="line"/>
			<point x="95" y="82" type="line"/>
			<point x="79" y="51" type="line"/>
			<point x="123" y="85"/>
			<point x="167" y="112"/>
			<point x="213" y="145" type="curve" smooth="yes"/>
			<point x="359" y="246"/>
			<point x="412" y="308"/>
			<point x="412" y="379" type="curve" smooth="yes"/>
			<point x="412" y="468"/>
			<point x="342" y="521"/>
			<point x="234" y="521" type="curve" smooth="yes"/>
			<point x="134" y="521"/>
			<point x="64" y="461"/>
			<point x="52" y="378" type="curve"/>
			<point x="60" y="358"/>
			<point x="73" y="349"/>
			<point x="92" y="349" type="curve" smooth="yes"/>
			<point x="118" y="349"/>
			<point x="130" y="368"/>
			<point x="141" y="412" type="curve" smooth="yes"/>
			<point x="163" y="505" type="line"/>
			<point x="126" y="472" type="line"/>
			<point x="160" y="492"/>
			<point x="191" y="499"/>
			<point x="219" y="499" type="curve" smooth="yes"/>
			<point x="285" y="499"/>
			<point x="332" y="453"/>
			<point x="332" y="375" type="curve" smooth="yes"/>
			<point x="332" y="306"/>
			<point x="281" y="248"/>
			<point x="196" y="175" type="curve" smooth="yes"/>
			<point x="148" y="134"/>
			<point x="98" y="93"/>
			<point x="51" y="50" type="curve"/>
		</contour>
	</outline>
</glyph>
<glyph name="u" format="2">
	<advance width="543"/>
	<outline>
		<contour>
			<point x="210" y="-12" type="curve" smooth="yes"/>
			<point x="283" y="-12"/>
			<point x="346" y="41"/>
			<point x="385" y="93" type="curve"/>
			<point x="390" y="93" type="line"/>
			<point x="383" y="113" type="line"/>
			<point x="334" y="66"/>
			<point x="291" y="40"/>
			<point x="245" y="40" type="curve" smooth="yes"/>
			<point x="190" y="40"/>
			<point x="166" y="62"/>
			<point x="166" y="145" type="curve" smooth="yes"/>
			<point x="166" y="330" type="line"/>
			<point x="170" y="457" type="line"/>
			<point x="161" y="465" type="line"/>
			<point x="23" y="432" type="line"/>
			<point x="23" y="417" type="line"/>
			<point x="112" y="398" type="line"/>
			<point x="90" y="428" type="line"/>
			<point x="90" y="132" type="line" smooth="yes"/>
			<point x="89" y="30"/>
			<point x="134" y="-12"/>
		</contour>
		<contour>
			<point x="375" y="-10" type="line"/>
			<point x="516" y="0" type="line"/>
			<point x="516" y="17" type="line"/>
			<point x="451" y="26" type="line"/>
			<point x="451" y="330" type="line"/>
			<point x="455" y="457" type="line"/>
			<point x="447" y="465" type="line"/>
			<point x="305" y="432" type="line"/>
			<point x="305" y="417" type="line"/>
			<point x="375" y="403" type="line"/>
			<point x="375" y="92" type="line"/>
			<point x="375" y="89" type="line"/>
		</contour>
	</outline>
	<anchor name="aboveLC" x="267" y="473"/>
	<anchor name="belowLC" x="285" y="-20"/>
	<anchor name="hornLC" x="430" y="413"/>
	<anchor name="ogonek" x="444" y="0"/>
</glyph>
<glyph name="uhorn" format="2">
	<advance width="543"/>
	<outline>
		<contour>
			<point x="210" y="-12" type="curve" smooth="yes"/>
			<point x="283" y="-12"/>
			<point x="346" y="41"/>
			<point x="385" y="93" type="curve"/>
			<point x="390" y="93" type="line"/>
			<point x="383" y="113" type="line"/>
			<point x="334" y="66"/>
			<point x="291" y="40"/>
			<point x="245" y="40" type="curve" smooth="yes"/>
			<point x="190" y="40"/>
			<point x="166" y="62"/>
			<point x="166" y="145" type="curve" smooth="yes"/>
			<point x="166" y="330" type="line"/>
			<point x="170" y="457" type="line"/>
			<point x="161" y="465" type="line"/>
			<point x="23" y="432" type="line"/>
			<point x="23" y="417" type="line"/>
			<point x="112" y="398" type="line"/>
			<point x="90" y="428" type="line"/>
			<point x="90" y="132" type="line" smooth="yes"/>
			<point x="89" y="30"/>
			<point x="134" y="-12"/>
		</contour>
		<contour>
			<point x="375" y="-10" type="line"/>
			<point x="516" y="0" type="line"/>
			<point x="516" y="17" type="line"/>
			<point x="451" y="26" type="line"/>
			<point x="451" y="330" type="line"/>
			<point x="455" y="457" type="line"/>
			<point x="428" y="442" type="line"/>
			<point x="494" y="452"/>
			<point x="537" y="492"/>
			<point x="537" y="553" type="curve" smooth="yes"/>
			<point x="537" y="577"/>
			<point x="533" y="593"/>
			<point x="525" y="608" type="curve"/>
			<point x="517" y="615"/>
			<point x="508" y="619"/>
			<point x="496" y="619" type="curve" smooth="yes"/>
			<point x="477" y="619"/>
			<point x="461" y="604"/>
			<point x="461" y="584" type="curve" smooth="yes"/>
			<point x="461" y="554"/>
			<point x="488" y="538"/>
			<point x="488" y="511" type="curve" smooth="yes"/>
			<point x="488" y="478"/>
			<point x="467" y="470"/>
			<point x="428" y="461" type="curve" smooth="yes"/>
			<point x="305" y="432" type="line"/>
			<point x="305" y="417" type="line"/>
			<point x="375" y="403" type="line"/>
			<point x="375" y="92" type="line"/>
			<point x="375" y="89" type="line"/>
		</contour>
	</outline>
	<anchor name="aboveLC" x="267" y="473"/>
	<anchor name="belowLC" x="285" y="-20"/>
</glyph>
<glyph name="uogonek" format="2">
	<advance width="543"/>
	<outline>
		<contour>
			<point x="435" y="-230" type="curve" smooth="yes"/>
			<point x="474" y="-230"/>
			<point x="503" y="-214"/>
			<point x="530" y="-184" type="curve"/>
			<point x="524" y="-171" type="line"/>
			<point x="503" y="-180"/>
			<point x="483" y="-183"/>
			<point x="465" y="-183" type="curve" smooth="yes"/>
			<point x="429" y="-183"/>
			<point x="407" y="-161"/>
			<point x="407" y="-116" type="curve" smooth="yes"/>
			<point x="407" y="-70"/>
			<point x="429" y="-27"/>
			<point x="469" y="2" type="curve"/>
			<point x="453" y="10" type="line"/>
			<point x="453" y="2" type="line"/>
			<point x="398" y="-24"/>
			<point x="349" y="-80"/>
			<point x="349" y="-143" type="curve" smooth="yes"/>
			<point x="349" y="-194"/>
			<point x="383" y="-230"/>
		</contour>
		<component base="u"/>
	</outline>
	<anchor name="aboveLC" x="267" y="473"/>
</glyph>
<glyph name="v" format="2">
	<advance width="469"/>
	<outline>
		<contour>
			<point x="224" y="-4" type="line"/>
			<point x="249" y="-4" type="line"/>
			<point x="421" y="453" type="line"/>
			<point x="392" y="453" type="line"/>
			<point x="259" y="88" type="line"/>
			<point x="255" y="76" type="line"/>
			<point x="272" y="76" type="line"/>
			<point x="131" y="453" type="line"/>
			<point x="43" y="453" type="line"/>
		</contour>
		<contour>
			<point x="4" y="436" type="line"/>
			<point x="89" y="424" type="line"/>
			<point x="120" y="424" type="line"/>
			<point x="218" y="437" type="line"/>
			<point x="218" y="453" type="line"/>
			<point x="4" y="453" type="line"/>
		</contour>
		<contour>
			<point x="316" y="437" type="line"/>
			<point x="393" y="428" type="line"/>
			<point x="404" y="428" type="line"/>
			<point x="464" y="436" type="line"/>
			<point x="464" y="453" type="line"/>
			<point x="316" y="453" type="line"/>
		</contour>
	</outline>
	<anchor name="aboveLC" x="262" y="473"/>
	<anchor name="belowLC" x="237" y="-20"/>
</glyph>
<glyph name="w" format="2">
	<advance width="703"/>
	<outline>
		<contour>
			<point x="203" y="-4" type="line"/>
			<point x="231" y="-4" type="line"/>
			<point x="356" y="359" type="line"/>
			<point x="360" y="368" type="line"/>
			<point x="347" y="368" type="line"/>
			<point x="475" y="-4" type="line"/>
			<point x="503" y="-4" type="line"/>
			<point x="658" y="453" type="line"/>
			<point x="629" y="453" type="line"/>
			<point x="510" y="89" type="line"/>
			<point x="506" y="76" type="line"/>
			<point x="524" y="76" type="line"/>
			<point x="396" y="453" type="line"/>
			<point x="360" y="453" type="line"/>
			<point x="239" y="89" type="line"/>
			<point x="234" y="76" type="line"/>
			<point x="252" y="76" type="line"/>
			<point x="132" y="453" type="line"/>
			<point x="43" y="453" type="line"/>
		</contour>
		<contour>
			<point x="4" y="436" type="line"/>
			<point x="89" y="424" type="line"/>
			<point x="119" y="424" type="line"/>
			<point x="206" y="437" type="line"/>
			<point x="206" y="453" type="line"/>
			<point x="4" y="453" type="line"/>
		</contour>
		<contour>
			<point x="283" y="437" type="line"/>
			<point x="359" y="428" type="line"/>
			<point x="398" y="427" type="line"/>
			<point x="475" y="437" type="line"/>
			<point x="475" y="453" type="line"/>
			<point x="283" y="453" type="line"/>
		</contour>
		<contour>
			<point x="553" y="437" type="line"/>
			<point x="627" y="428" type="line"/>
			<point x="639" y="428" type="line"/>
			<point x="699" y="436" type="line"/>
			<point x="699" y="453" type="line"/>
			<point x="553" y="453" type="line"/>
		</contour>
	</outline>
	<anchor name="aboveLC" x="378" y="473"/>
	<anchor name="belowLC" x="356" y="-20"/>
</glyph>
<glyph name="x" format="2">
	<advance width="464"/>
	<outline>
		<contour>
			<point x="5" y="0" type="line"/>
			<point x="151" y="0" type="line"/>
			<point x="151" y="16" type="line"/>
			<point x="85" y="25" type="line"/>
			<point x="71" y="25" type="line"/>
			<point x="5" y="17" type="line"/>
		</contour>
		<contour>
			<point x="46" y="0" type="line"/>
			<point x="78" y="0" type="line"/>
			<point x="155" y="114" type="line"/>
			<point x="232" y="229" type="line"/>
			<point x="225" y="235" type="line"/>
			<point x="215" y="243" type="line"/>
		</contour>
		<contour>
			<point x="255" y="0" type="line"/>
			<point x="457" y="0" type="line"/>
			<point x="457" y="17" type="line"/>
			<point x="376" y="29" type="line"/>
			<point x="345" y="29" type="line"/>
			<point x="255" y="16" type="line"/>
		</contour>
		<contour>
			<point x="235" y="209" type="line"/>
			<point x="406" y="453" type="line"/>
			<point x="374" y="453" type="line"/>
			<point x="296" y="338" type="line"/>
			<point x="220" y="224" type="line"/>
			<point x="227" y="217" type="line"/>
		</contour>
		<contour>
			<point x="330" y="0" type="line"/>
			<point x="423" y="0" type="line"/>
			<point x="259" y="252" type="line"/>
			<point x="137" y="453" type="line"/>
			<point x="44" y="453" type="line"/>
			<point x="198" y="215" type="line"/>
		</contour>
		<contour>
			<point x="12" y="436" type="line"/>
			<point x="91" y="424" type="line"/>
			<point x="121" y="424" type="line"/>
			<point x="215" y="437" type="line"/>
			<point x="215" y="453" type="line"/>
			<point x="12" y="453" type="line"/>
		</contour>
		<contour>
			<point x="301" y="437" type="line"/>
			<point x="367" y="428" type="line"/>
			<point x="381" y="428" type="line"/>
			<point x="443" y="436" type="line"/>
			<point x="443" y="453" type="line"/>
			<point x="301" y="453" type="line"/>
		</contour>
	</outline>
	<anchor name="aboveLC" x="246" y="473"/>
	<anchor name="belowLC" x="214" y="-20"/>
</glyph>
<glyph name="y" format="2">
	<advance width="469"/>
	<outline>
		<contour>
			<point x="61" y="-257" type="curve" smooth="yes"/>
			<point x="141" y="-257"/>
			<point x="187" y="-172"/>
			<point x="234" y="-45" type="curve" smooth="yes"/>
			<point x="421" y="453" type="line"/>
			<point x="392" y="453" type="line"/>
			<point x="318" y="251" type="line"/>
			<point x="240" y="38" type="line"/>
			<point x="239" y="34" type="line"/>
			<point x="209" y="-45" type="line" smooth="yes"/>
			<point x="171" y="-141"/>
			<point x="142" y="-203"/>
			<point x="91" y="-231" type="curve"/>
			<point x="112" y="-227" type="line"/>
			<point x="122" y="-221" type="line"/>
			<point x="98" y="-203" type="line" smooth="yes"/>
			<point x="78" y="-185"/>
			<point x="60" y="-175"/>
			<point x="37" y="-175" type="curve" smooth="yes"/>
			<point x="9" y="-175"/>
			<point x="-11" y="-190"/>
			<point x="-13" y="-214" type="curve"/>
			<point x="-4" y="-244"/>
			<point x="30" y="-257"/>
		</contour>
		<contour>
			<point x="227" y="-12" type="line"/>
			<point x="245" y="25" type="line"/>
			<point x="272" y="76" type="line"/>
			<point x="131" y="453" type="line"/>
			<point x="43" y="453" type="line"/>
		</contour>
		<contour>
			<point x="4" y="436" type="line"/>
			<point x="89" y="424" type="line"/>
			<point x="120" y="424" type="line"/>
			<point x="218" y="437" type="line"/>
			<point x="218" y="453" type="line"/>
			<point x="4" y="453" type="line"/>
		</contour>
		<contour>
			<point x="313" y="437" type="line"/>
			<point x="389" y="428" type="line"/>
			<point x="401" y="428" type="line"/>
			<point x="464" y="436" type="line"/>
			<point x="464" y="453" type="line"/>
			<point x="313" y="453" type="line"/>
		</contour>
	</outline>
	<anchor name="aboveLC" x="267" y="473"/>
	<anchor name="belowLC" x="113" y="-267"/>
</glyph>
<glyph name="z" format="2">
	<advance width="416"/>
	<outline>
		<contour>
			<point x="28" y="0" type="line"/>
			<point x="385" y="0" type="line"/>
			<point x="393" y="156" type="line"/>
			<point x="378" y="156" type="line"/>
			<point x="326" y="13" type="line"/>
			<point x="363" y="23" type="line"/>
			<point x="229" y="23" type="line"/>
			<point x="113" y="23" type="line"/>
			<point x="113" y="37" type="line"/>
			<point x="106" y="5" type="line"/>
			<point x="381" y="440" type="line"/>
			<point x="381" y="453" type="line"/>
			<point x="43" y="453" type="line"/>
			<point x="40" y="311" type="line"/>
			<point x="55" y="309" type="line"/>
			<point x="106" y="440" type="line"/>
			<point x="65" y="430" type="line"/>
			<point x="189" y="430" type="line"/>
			<point x="297" y="430" type="line"/>
			<point x="301" y="421" type="line"/>
			<point x="301" y="446" type="line"/>
			<point x="28" y="12" type="line"/>
		</contour>
	</outline>
	<anchor name="aboveLC" x="210" y="473"/>
	<anchor name="belowLC" x="217" y="-20"/>
</glyph>
<glyph name="zero.cap" format="2">
	<advance width="488"/>
	<outline>
		<contour>
			<point x="244" y="-12" type="curve" smooth="yes"/>
			<point x="349" y="-12"/>
			<point x="443" y="77"/>
			<point x="443" y="335" type="curve" smooth="yes"/>
			<point x="443" y="593"/>
			<point x="349" y="684"/>
			<point x="244" y="684" type="curve" smooth="yes"/>
			<point x="139" y="684"/>
			<point x="46" y="593"/>
			<point x="46" y="335" type="curve" smooth="yes"/>
			<point x="46" y="77"/>
			<point x="139" y="-12"/>
		</contour>
		<contour>
			<point x="244" y="9" type="curve" smooth="yes"/>
			<point x="189" y="9"/>
			<point x="129" y="70"/>
			<point x="129" y="335" type="curve" smooth="yes"/>
			<point x="129" y="598"/>
			<point x="189" y="662"/>
			<point x="244" y="662" type="curve" smooth="yes"/>
			<point x="299" y="662"/>
			<point x="359" y="598"/>
			<point x="359" y="335" type="curve" smooth="yes"/>
			<point x="359" y="70"/>
			<point x="299" y="9"/>
		</contour>
	</outline>
</glyph>
<glyph name="zero" format="2">
	<advance width="476"/>
	<outline>
		<contour>
			<point x="238" y="-12" type="curve" smooth="yes"/>
			<point x="342" y="-12"/>
			<point x="434" y="77"/>
			<point x="434" y="323" type="curve" smooth="yes"/>
			<point x="434" y="569"/>
			<point x="342" y="657"/>
			<point x="238" y="657" type="curve" smooth="yes"/>
			<point x="134" y="657"/>
			<point x="41" y="569"/>
			<point x="41" y="323" type="curve" smooth="yes"/>
			<point x="41" y="77"/>
			<point x="134" y="-12"/>
		</contour>
		<contour>
			<point x="238" y="9" type="curve" smooth="yes"/>
			<point x="180" y="9"/>
			<point x="125" y="72"/>
			<point x="125" y="323" type="curve" smooth="yes"/>
			<point x="125" y="574"/>
			<point x="180" y="635"/>
			<point x="238" y="635" type="curve" smooth="yes"/>
			<point x="294" y="635"/>
			<point x="351" y="574"/>
			<point x="351" y="323" type="curve" smooth="yes"/>
			<point x="351" y="72"/>
			<point x="294" y="9"/>
		</contour>
	</outline>
</glyph>
